{
.appVersion = "1365";
DisplayStrings = (
A,

glyphs = (
{
glyphname = A;
lastChange = "2025-12-24 17:11:10 +0000";
layers = (
{
anchors = (
{
name = bottom;
position = "{570, 0}";
},
{
name = ogonek;
position = "{618, 10}";
},
{
name = top;
position = "{342, 720}";
}
);
hints = (
{
horizontal = 1;
origin = "{1, 5}";
target = up;
type = BottomGhost;
},
{
horizontal = 1;
origin = "{2, 2}";
target = "{2, 3}";
type = Stem;
},
{
horizontal = 1;
origin = "{0, 2}";
target = down;
type = TopGhost;
},
{
horizontal = 1;
origin = "{0, 2}";
target = "{0, 3}";
type = Stem;
}
);
layerId = "05246BF3-0764-4143-87C4-5D2B296D3790";
paths = (
{
closed = 1;
nodes = (
"664 0 LINE",
"389 720 LINE",
"295 720 LINE",
"340 612 LINE",
"344 612 LINE",
"570 0 LINE"
);
},
{
closed = 1;
nodes = (
"114 0 LINE",
"340 612 LINE",
"344 612 LINE",
"389 720 LINE",
"295 720 LINE",
"20 0 LINE"
);
},
{
closed = 1;
nodes = (
"519 210 LINE",
"519 290 LINE",
"159 290 LINE",
"159 210 LINE"
);
}
);
width = 684;
},
{
anchors = (
{
name = bottom;
position = "{564, 0}";
},
{
name = ogonek;
position = "{608, 10}";
},
{
name = top;
position = "{362, 720}";
}
);
hints = (
{
horizontal = 1;
origin = "{1, 5}";
target = up;
type = BottomGhost;
},
{
horizontal = 1;
origin = "{2, 2}";
target = "{2, 3}";
type = Stem;
},
{
horizontal = 1;
origin = "{0, 2}";
target = "{0, 3}";
type = Stem;
}
);
layerId = "B51EB05F-9FBB-4087-814F-400611B2D4B0";
paths = (
{
closed = 1;
nodes = (
"714 0 LINE",
"439 720 LINE",
"285 720 LINE",
"357 548 LINE",
"367 548 LINE",
"564 0 LINE"
);
},
{
closed = 1;
nodes = (
"160 0 LINE",
"357 548 LINE",
"367 548 LINE",
"439 720 LINE",
"285 720 LINE",
"10 0 LINE"
);
},
{
closed = 1;
nodes = (
"559 195 LINE",
"559 315 LINE",
"159 315 LINE",
"159 195 LINE"
);
}
);
width = 724;
}
);
leftKerningGroup = A;
rightKerningGroup = A;
unicode = 0041;
},
{
glyphname = AE;
lastChange = "2025-12-24 17:11:10 +0000";
layers = (
{
hints = (
{
horizontal = 1;
origin = "{0, 3}";
target = "{2, 2}";
type = Stem;
},
{
horizontal = 1;
origin = "{1, 3}";
target = "{1, 2}";
type = Stem;
},
{
horizontal = 1;
origin = "{4, 3}";
target = "{4, 2}";
type = Stem;
},
{
horizontal = 1;
origin = "{0, 2}";
target = "{5, 3}";
type = Stem;
},
{
origin = "{3, 3}";
target = "{3, 0}";
type = Stem;
}
);
layerId = "05246BF3-0764-4143-87C4-5D2B296D3790";
paths = (
{
closed = 1;
nodes = (
"114 0 LINE",
"389 720 LINE",
"295 720 LINE",
"20 0 LINE"
);
},
{
closed = 1;
nodes = (
"515 210 LINE",
"515 290 LINE",
"155 290 LINE",
"155 210 LINE"
);
},
{
closed = 1;
nodes = (
"929 0 LINE",
"929 80 LINE",
"539 80 LINE",
"539 0 LINE"
);
},
{
closed = 1;
nodes = (
"574 0 LINE",
"574 720 LINE",
"484 720 LINE",
"484 0 LINE"
);
},
{
closed = 1;
nodes = (
"879 330 LINE",
"879 410 LINE",
"539 410 LINE",
"539 330 LINE"
);
},
{
closed = 1;
nodes = (
"929 640 LINE",
"929 720 LINE",
"296 720 LINE",
"296 640 LINE"
);
}
);
width = 999;
},
{
hints = (
{
horizontal = 1;
origin = "{0, 3}";
target = "{3, 2}";
type = Stem;
},
{
horizontal = 1;
origin = "{4, 3}";
target = "{4, 2}";
type = Stem;
},
{
horizontal = 1;
origin = "{0, 2}";
target = "{5, 3}";
type = Stem;
},
{
horizontal = 1;
origin = "{1, 3}";
target = "{1, 2}";
type = Stem;
},
{
origin = "{2, 3}";
target = "{2, 0}";
type = Stem;
}
);
layerId = "B51EB05F-9FBB-4087-814F-400611B2D4B0";
paths = (
{
closed = 1;
nodes = (
"165 0 LINE",
"440 720 LINE",
"290 720 LINE",
"15 0 LINE"
);
},
{
closed = 1;
nodes = (
"529 195 LINE",
"529 315 LINE",
"179 315 LINE",
"179 195 LINE"
);
},
{
closed = 1;
nodes = (
"620 0 LINE",
"620 720 LINE",
"470 720 LINE",
"470 0 LINE"
);
},
{
closed = 1;
nodes = (
"945 0 LINE",
"945 120 LINE",
"555 120 LINE",
"555 0 LINE"
);
},
{
closed = 1;
nodes = (
"895 310 LINE",
"895 430 LINE",
"555 430 LINE",
"555 310 LINE"
);
},
{
closed = 1;
nodes = (
"945 600 LINE",
"945 720 LINE",
"290 720 LINE",
"290 600 LINE"
);
}
);
width = 995;
}
);
leftKerningGroup = A;
rightKerningGroup = E;
unicode = 00C6;
},
{
glyphname = B;
lastChange = "2025-12-24 17:11:10 +0000";
layers = (
{
anchors = (
{
name = bottom;
position = "{320, 0}";
},
{
name = top;
position = "{320, 700}";
}
);
hints = (
{
horizontal = 1;
origin = "{1, 3}";
target = "{0, 20}";
type = Stem;
},
{
horizontal = 1;
origin = "{0, 12}";
target = "{2, 20}";
type = Stem;
},
{
horizontal = 1;
origin = "{1, 2}";
target = "{2, 12}";
type = Stem;
},
{
origin = "{1, 3}";
target = "{1, 0}";
type = Stem;
},
{
origin = "{0, 16}";
target = "{0, 3}";
type = Stem;
},
{
origin = "{2, 16}";
target = "{2, 7}";
type = Stem;
}
);
layerId = "05246BF3-0764-4143-87C4-5D2B296D3790";
paths = (
{
closed = 1;
nodes = (
"355 0 LINE",
"525 0 OFFCURVE",
"605 78 OFFCURVE",
"605 208 CURVE SMOOTH",
"605 298 OFFCURVE",
"552 363 OFFCURVE",
"454 380 CURVE",
"454 390 LINE",
"426 395 OFFCURVE",
"391 390 OFFCURVE",
"355 390 CURVE",
"140 390 LINE",
"140 340 LINE",
"355 340 LINE",
"445 340 OFFCURVE",
"515 308 OFFCURVE",
"515 208 CURVE SMOOTH",
"515 108 OFFCURVE",
"445 80 OFFCURVE",
"355 80 CURVE",
"140 80 LINE",
"140 0 LINE"
);
},
{
closed = 1;
nodes = (
"180 0 LINE",
"180 720 LINE",
"90 720 LINE",
"90 0 LINE"
);
},
{
closed = 1;
nodes = (
"325 370 LINE",
"372 370 OFFCURVE",
"419 368 OFFCURVE",
"454 380 CURVE",
"454 390 LINE",
"516 410 OFFCURVE",
"555 450 OFFCURVE",
"555 532 CURVE SMOOTH",
"555 652 OFFCURVE",
"475 720 OFFCURVE",
"325 720 CURVE",
"140 720 LINE",
"140 640 LINE",
"325 640 LINE",
"405 640 OFFCURVE",
"465 622 OFFCURVE",
"465 532 CURVE SMOOTH",
"465 442 OFFCURVE",
"415 420 OFFCURVE",
"325 420 CURVE",
"140 420 LINE",
"140 370 LINE"
);
}
);
width = 645;
},
{
anchors = (
{
name = bottom;
position = "{320, 0}";
},
{
name = top;
position = "{320, 700}";
}
);
hints = (
{
horizontal = 1;
origin = "{1, 3}";
target = "{0, 20}";
type = Stem;
},
{
horizontal = 1;
origin = "{0, 12}";
target = "{2, 20}";
type = Stem;
},
{
horizontal = 1;
origin = "{1, 2}";
target = "{2, 12}";
type = Stem;
},
{
origin = "{1, 3}";
target = "{1, 0}";
type = Stem;
},
{
origin = "{0, 16}";
target = "{0, 3}";
type = Stem;
},
{
origin = "{2, 16}";
target = "{2, 7}";
type = Stem;
}
);
layerId = "B51EB05F-9FBB-4087-814F-400611B2D4B0";
paths = (
{
closed = 1;
nodes = (
"345 0 LINE",
"550 0 OFFCURVE",
"625 78 OFFCURVE",
"625 218 CURVE SMOOTH",
"625 313 OFFCURVE",
"547 368 OFFCURVE",
"454 380 CURVE",
"454 390 LINE",
"426 395 OFFCURVE",
"381 390 OFFCURVE",
"345 390 CURVE",
"130 390 LINE",
"130 320 LINE",
"345 320 LINE",
"410 320 OFFCURVE",
"475 303 OFFCURVE",
"475 218 CURVE SMOOTH",
"475 133 OFFCURVE",
"420 120 OFFCURVE",
"345 120 CURVE",
"130 120 LINE",
"130 0 LINE"
);
},
{
closed = 1;
nodes = (
"200 0 LINE",
"200 720 LINE",
"70 720 LINE",
"70 0 LINE"
);
},
{
closed = 1;
nodes = (
"315 370 LINE",
"362 370 OFFCURVE",
"419 368 OFFCURVE",
"454 380 CURVE",
"454 390 LINE",
"516 405 OFFCURVE",
"575 440 OFFCURVE",
"575 522 CURVE SMOOTH",
"575 662 OFFCURVE",
"485 720 OFFCURVE",
"315 720 CURVE",
"130 720 LINE",
"130 600 LINE",
"315 600 LINE",
"370 600 OFFCURVE",
"425 607 OFFCURVE",
"425 522 CURVE SMOOTH",
"425 457 OFFCURVE",
"390 440 OFFCURVE",
"315 440 CURVE",
"130 440 LINE",
"130 370 LINE"
);
}
);
width = 665;
}
);
leftKerningGroup = I;
rightKerningGroup = B;
unicode = 0042;
},
{
glyphname = C;
lastChange = "2025-12-24 17:11:10 +0000";
layers = (
{
anchors = (
{
name = bottom;
position = "{375, 0}";
},
{
name = top;
position = "{375, 730}";
}
);
hints = (
{
horizontal = 1;
origin = "{0, 6}";
target = "{0, 25}";
type = Stem;
},
{
horizontal = 1;
origin = "{0, 19}";
target = "{0, 12}";
type = Stem;
},
{
origin = "{0, 22}";
target = "{0, 9}";
type = Stem;
}
);
layerId = "05246BF3-0764-4143-87C4-5D2B296D3790";
paths = (
{
closed = 1;
nodes = (
"535 -10 OFFCURVE",
"624 79 OFFCURVE",
"660 205 CURVE",
"568 205 LINE",
"539 120 OFFCURVE",
"476 70 OFFCURVE",
"375 70 CURVE SMOOTH",
"215 70 OFFCURVE",
"150 200 OFFCURVE",
"150 360 CURVE SMOOTH",
"150 520 OFFCURVE",
"215 650 OFFCURVE",
"375 650 CURVE SMOOTH",
"476 650 OFFCURVE",
"539 600 OFFCURVE",
"568 515 CURVE",
"660 515 LINE",
"624 641 OFFCURVE",
"535 730 OFFCURVE",
"375 730 CURVE SMOOTH",
"155 730 OFFCURVE",
"60 560 OFFCURVE",
"60 360 CURVE SMOOTH",
"60 160 OFFCURVE",
"155 -10 OFFCURVE",
"375 -10 CURVE SMOOTH"
);
}
);
width = 710;
},
{
anchors = (
{
name = bottom;
position = "{365, 0}";
},
{
name = top;
position = "{365, 730}";
}
);
hints = (
{
horizontal = 1;
origin = "{0, 6}";
target = "{0, 25}";
type = Stem;
},
{
horizontal = 1;
origin = "{0, 19}";
target = "{0, 12}";
type = Stem;
},
{
origin = "{0, 22}";
target = "{0, 9}";
type = Stem;
}
);
layerId = "B51EB05F-9FBB-4087-814F-400611B2D4B0";
paths = (
{
closed = 1;
nodes = (
"539 -10 OFFCURVE",
"630 83 OFFCURVE",
"665 225 CURVE",
"513 225 LINE",
"492 153 OFFCURVE",
"454 110 OFFCURVE",
"365 110 CURVE SMOOTH",
"225 110 OFFCURVE",
"190 230 OFFCURVE",
"190 360 CURVE SMOOTH",
"190 490 OFFCURVE",
"225 610 OFFCURVE",
"365 610 CURVE SMOOTH",
"454 610 OFFCURVE",
"492 567 OFFCURVE",
"513 495 CURVE",
"665 495 LINE",
"630 637 OFFCURVE",
"539 730 OFFCURVE",
"365 730 CURVE SMOOTH",
"140 730 OFFCURVE",
"40 575 OFFCURVE",
"40 360 CURVE SMOOTH",
"40 145 OFFCURVE",
"140 -10 OFFCURVE",
"365 -10 CURVE SMOOTH"
);
}
);
width = 695;
}
);
leftKerningGroup = C;
rightKerningGroup = C;
unicode = 0043;
},
{
glyphname = D;
lastChange = "2025-12-24 17:11:10 +0000";
layers = (
{
anchors = (
{
name = bottom;
position = "{354, 0}";
},
{
name = center;
position = "{354, 350}";
},
{
name = top;
position = "{354, 700}";
}
);
hints = (
{
horizontal = 1;
origin = "{1, 3}";
target = "{0, 16}";
type = Stem;
},
{
horizontal = 1;
origin = "{1, 2}";
target = "{0, 8}";
type = Stem;
},
{
origin = "{1, 3}";
target = "{1, 0}";
type = Stem;
},
{
origin = "{0, 12}";
target = "{0, 3}";
type = Stem;
}
);
layerId = "05246BF3-0764-4143-87C4-5D2B296D3790";
paths = (
{
closed = 1;
nodes = (
"318 0 LINE",
"551 0 OFFCURVE",
"653 167 OFFCURVE",
"653 360 CURVE SMOOTH",
"653 553 OFFCURVE",
"551 720 OFFCURVE",
"318 720 CURVE",
"130 720 LINE",
"130 640 LINE",
"318 640 LINE",
"500 640 OFFCURVE",
"563 512 OFFCURVE",
"563 360 CURVE SMOOTH",
"563 208 OFFCURVE",
"500 80 OFFCURVE",
"318 80 CURVE",
"133 80 LINE",
"133 0 LINE"
);
},
{
closed = 1;
nodes = (
"180 0 LINE",
"180 720 LINE",
"90 720 LINE",
"90 0 LINE"
);
}
);
width = 713;
},
{
anchors = (
{
name = bottom;
position = "{364, 0}";
},
{
name = center;
position = "{364, 350}";
},
{
name = top;
position = "{364, 700}";
}
);
hints = (
{
horizontal = 1;
origin = "{1, 3}";
target = "{0, 16}";
type = Stem;
},
{
horizontal = 1;
origin = "{1, 2}";
target = "{0, 8}";
type = Stem;
},
{
origin = "{1, 3}";
target = "{1, 0}";
type = Stem;
},
{
origin = "{0, 12}";
target = "{0, 3}";
type = Stem;
}
);
layerId = "B51EB05F-9FBB-4087-814F-400611B2D4B0";
paths = (
{
closed = 1;
nodes = (
"318 0 LINE",
"571 0 OFFCURVE",
"673 137 OFFCURVE",
"673 360 CURVE SMOOTH",
"673 583 OFFCURVE",
"571 720 OFFCURVE",
"318 720 CURVE",
"140 720 LINE",
"140 600 LINE",
"318 600 LINE",
"470 600 OFFCURVE",
"523 492 OFFCURVE",
"523 360 CURVE SMOOTH",
"523 228 OFFCURVE",
"470 120 OFFCURVE",
"318 120 CURVE",
"143 120 LINE",
"143 0 LINE"
);
},
{
closed = 1;
nodes = (
"220 0 LINE",
"220 720 LINE",
"70 720 LINE",
"70 0 LINE"
);
}
);
width = 713;
}
);
leftKerningGroup = I;
rightKerningGroup = O;
unicode = 0044;
},
{
glyphname = Eth;
lastChange = "2025-12-24 17:11:10 +0000";
layers = (
{
components = (
{
name = D;
transform = "{1, 0, 0, 1, 7, 0}";
}
);
hints = (
{
horizontal = 1;
origin = "{0, 3}";
target = "{0, 2}";
type = Stem;
}
);
layerId = "05246BF3-0764-4143-87C4-5D2B296D3790";
paths = (
{
closed = 1;
nodes = (
"350 335 LINE",
"350 405 LINE",
"30 405 LINE",
"30 335 LINE"
);
}
);
width = 721;
},
{
components = (
{
name = D;
transform = "{1, 0, 0, 1, 12, 0}";
}
);
hints = (
{
horizontal = 1;
origin = "{0, 3}";
target = "{0, 2}";
type = Stem;
},
{
origin = "{0, 3}";
target = "{0, 0}";
type = Stem;
}
);
layerId = "B51EB05F-9FBB-4087-814F-400611B2D4B0";
paths = (
{
closed = 1;
nodes = (
"395 315 LINE",
"395 425 LINE",
"15 425 LINE",
"15 315 LINE"
);
}
);
width = 736;
}
);
leftKerningGroup = B;
rightKerningGroup = D;
unicode = 00D0;
},
{
glyphname = Dcaron;
lastChange = "2025-12-24 17:11:10 +0000";
layers = (
{
anchors = (
{
name = top;
position = "{354, 880}";
}
);
components = (
{
name = D;
}
);
hints = (
{
horizontal = 1;
origin = "{0, 4}";
target = "{0, 5}";
type = Stem;
},
{
horizontal = 1;
origin = "{0, 5}";
target = "{1, 4}";
type = Stem;
}
);
layerId = "05246BF3-0764-4143-87C4-5D2B296D3790";
paths = (
{
closed = 1;
nodes = (
"394 770 LINE",
"504 910 LINE",
"424 910 LINE",
"359 823 LINE",
"349 823 LINE",
"314 770 LINE"
);
},
{
closed = 1;
nodes = (
"394 770 LINE",
"359 823 LINE",
"349 823 LINE",
"284 910 LINE",
"204 910 LINE",
"314 770 LINE"
);
}
);
width = 713;
},
{
anchors = (
{
name = top;
position = "{364, 870}";
}
);
components = (
{
name = D;
}
);
hints = (
{
horizontal = 1;
origin = "{0, 5}";
target = "{0, 4}";
type = Stem;
},
{
horizontal = 1;
origin = "{1, 4}";
target = "{0, 5}";
type = Stem;
},
{
origin = "{1, 4}";
target = "{0, 1}";
type = Stem;
}
);
layerId = "B51EB05F-9FBB-4087-814F-400611B2D4B0";
paths = (
{
closed = 1;
nodes = (
"424 760 LINE",
"534 900 LINE",
"414 900 LINE",
"369 839 LINE",
"359 839 LINE",
"304 760 LINE"
);
},
{
closed = 1;
nodes = (
"424 760 LINE",
"369 839 LINE",
"359 839 LINE",
"314 900 LINE",
"194 900 LINE",
"304 760 LINE"
);
}
);
width = 713;
}
);
unicode = 010E;
},
{
glyphname = E;
lastChange = "2025-12-24 17:11:10 +0000";
layers = (
{
anchors = (
{
name = bottom;
position = "{445, 0}";
},
{
name = ogonek;
position = "{493, 10}";
},
{
name = top;
position = "{315, 720}";
},
{
name = topleft;
position = "{40, 700}";
}
);
hints = (
{
horizontal = 1;
origin = "{0, 3}";
target = "{1, 2}";
type = Stem;
},
{
horizontal = 1;
origin = "{2, 3}";
target = "{2, 2}";
type = Stem;
},
{
horizontal = 1;
origin = "{0, 2}";
target = "{3, 3}";
type = Stem;
},
{
origin = "{0, 3}";
target = "{0, 0}";
type = Stem;
}
);
layerId = "05246BF3-0764-4143-87C4-5D2B296D3790";
paths = (
{
closed = 1;
nodes = (
"180 0 LINE",
"180 720 LINE",
"90 720 LINE",
"90 0 LINE"
);
},
{
closed = 1;
nodes = (
"535 0 LINE",
"535 80 LINE",
"145 80 LINE",
"145 0 LINE"
);
},
{
closed = 1;
nodes = (
"485 340 LINE",
"485 420 LINE",
"145 420 LINE",
"145 340 LINE"
);
},
{
closed = 1;
nodes = (
"535 640 LINE",
"535 720 LINE",
"145 720 LINE",
"145 640 LINE"
);
}
);
width = 605;
},
{
anchors = (
{
name = bottom;
position = "{395, 0}";
},
{
name = ogonek;
position = "{503, 10}";
},
{
name = top;
position = "{305, 720}";
},
{
name = topleft;
position = "{50, 700}";
}
);
hints = (
{
horizontal = 1;
origin = "{0, 3}";
target = "{1, 2}";
type = Stem;
},
{
horizontal = 1;
origin = "{2, 3}";
target = "{2, 2}";
type = Stem;
},
{
horizontal = 1;
origin = "{0, 2}";
target = "{3, 3}";
type = Stem;
},
{
origin = "{0, 3}";
target = "{0, 0}";
type = Stem;
}
);
layerId = "B51EB05F-9FBB-4087-814F-400611B2D4B0";
paths = (
{
closed = 1;
nodes = (
"220 0 LINE",
"220 720 LINE",
"70 720 LINE",
"70 0 LINE"
);
},
{
closed = 1;
nodes = (
"545 0 LINE",
"545 120 LINE",
"155 120 LINE",
"155 0 LINE"
);
},
{
closed = 1;
nodes = (
"495 320 LINE",
"495 440 LINE",
"155 440 LINE",
"155 320 LINE"
);
},
{
closed = 1;
nodes = (
"545 600 LINE",
"545 720 LINE",
"155 720 LINE",
"155 600 LINE"
);
}
);
width = 595;
}
);
leftKerningGroup = I;
rightKerningGroup = E;
unicode = 0045;
},
{
glyphname = F;
lastChange = "2025-12-24 17:11:10 +0000";
layers = (
{
anchors = (
{
name = bottom;
position = "{270, 0}";
},
{
name = top;
position = "{270, 700}";
}
);
hints = (
{
horizontal = 1;
origin = "{0, 3}";
target = up;
type = BottomGhost;
},
{
horizontal = 1;
origin = "{1, 3}";
target = "{1, 2}";
type = Stem;
},
{
horizontal = 1;
origin = "{0, 2}";
target = "{2, 3}";
type = Stem;
},
{
origin = "{0, 3}";
target = "{0, 0}";
type = Stem;
}
);
layerId = "05246BF3-0764-4143-87C4-5D2B296D3790";
paths = (
{
closed = 1;
nodes = (
"180 0 LINE",
"180 720 LINE",
"90 720 LINE",
"90 0 LINE"
);
},
{
closed = 1;
nodes = (
"485 340 LINE",
"485 420 LINE",
"145 420 LINE",
"145 340 LINE"
);
},
{
closed = 1;
nodes = (
"535 640 LINE",
"535 720 LINE",
"145 720 LINE",
"145 640 LINE"
);
}
);
width = 595;
},
{
anchors = (
{
name = bottom;
position = "{280, 0}";
},
{
name = top;
position = "{280, 700}";
}
);
hints = (
{
horizontal = 1;
origin = "{0, 3}";
target = up;
type = BottomGhost;
},
{
horizontal = 1;
origin = "{1, 3}";
target = "{1, 2}";
type = Stem;
},
{
horizontal = 1;
origin = "{0, 2}";
target = "{2, 3}";
type = Stem;
},
{
origin = "{0, 3}";
target = "{0, 0}";
type = Stem;
}
);
layerId = "B51EB05F-9FBB-4087-814F-400611B2D4B0";
paths = (
{
closed = 1;
nodes = (
"220 0 LINE",
"220 720 LINE",
"70 720 LINE",
"70 0 LINE"
);
},
{
closed = 1;
nodes = (
"495 320 LINE",
"495 440 LINE",
"155 440 LINE",
"155 320 LINE"
);
},
{
closed = 1;
nodes = (
"545 600 LINE",
"545 720 LINE",
"155 720 LINE",
"155 600 LINE"
);
}
);
width = 585;
}
);
leftKerningGroup = I;
rightKerningGroup = F;
unicode = 0046;
},
{
glyphname = G;
lastChange = "2025-12-24 17:11:10 +0000";
layers = (
{
anchors = (
{
name = bottom;
position = "{375, 0}";
},
{
name = top;
position = "{375, 730}";
}
);
hints = (
{
horizontal = 1;
origin = "{0, 6}";
target = "{0, 25}";
type = Stem;
},
{
horizontal = 1;
origin = "{1, 2}";
target = "{1, 3}";
type = Stem;
},
{
horizontal = 1;
origin = "{0, 19}";
target = "{0, 12}";
type = Stem;
},
{
origin = "{0, 22}";
target = "{0, 9}";
type = Stem;
},
{
origin = "{0, 3}";
target = "{0, 2}";
type = Stem;
}
);
layerId = "05246BF3-0764-4143-87C4-5D2B296D3790";
paths = (
{
closed = 1;
nodes = (
"585 -10 OFFCURVE",
"666 105 OFFCURVE",
"670 275 CURVE",
"580 275 LINE",
"576 125 OFFCURVE",
"525 70 OFFCURVE",
"375 70 CURVE SMOOTH",
"215 70 OFFCURVE",
"150 200 OFFCURVE",
"150 360 CURVE SMOOTH",
"150 520 OFFCURVE",
"215 650 OFFCURVE",
"375 650 CURVE SMOOTH",
"476 650 OFFCURVE",
"539 600 OFFCURVE",
"568 515 CURVE",
"660 515 LINE",
"624 641 OFFCURVE",
"535 730 OFFCURVE",
"375 730 CURVE SMOOTH",
"155 730 OFFCURVE",
"60 560 OFFCURVE",
"60 360 CURVE SMOOTH",
"60 160 OFFCURVE",
"155 -10 OFFCURVE",
"375 -10 CURVE SMOOTH"
);
},
{
closed = 1;
nodes = (
"670 275 LINE",
"670 355 LINE",
"400 355 LINE",
"400 275 LINE"
);
}
);
width = 730;
},
{
anchors = (
{
name = bottom;
position = "{365, 0}";
},
{
name = top;
position = "{365, 730}";
}
);
hints = (
{
horizontal = 1;
origin = "{0, 6}";
target = "{0, 25}";
type = Stem;
},
{
horizontal = 1;
origin = "{1, 2}";
target = "{1, 3}";
type = Stem;
},
{
horizontal = 1;
origin = "{0, 19}";
target = "{0, 12}";
type = Stem;
},
{
origin = "{0, 22}";
target = "{0, 9}";
type = Stem;
},
{
origin = "{0, 3}";
target = "{0, 2}";
type = Stem;
}
);
layerId = "B51EB05F-9FBB-4087-814F-400611B2D4B0";
paths = (
{
closed = 1;
nodes = (
"575 -10 OFFCURVE",
"670 75 OFFCURVE",
"670 265 CURVE",
"520 265 LINE",
"520 145 OFFCURVE",
"485 110 OFFCURVE",
"365 110 CURVE SMOOTH",
"225 110 OFFCURVE",
"190 230 OFFCURVE",
"190 360 CURVE SMOOTH",
"190 490 OFFCURVE",
"225 610 OFFCURVE",
"365 610 CURVE SMOOTH",
"454 610 OFFCURVE",
"492 567 OFFCURVE",
"513 495 CURVE",
"665 495 LINE",
"630 637 OFFCURVE",
"539 730 OFFCURVE",
"365 730 CURVE SMOOTH",
"140 730 OFFCURVE",
"40 575 OFFCURVE",
"40 360 CURVE SMOOTH",
"40 145 OFFCURVE",
"140 -10 OFFCURVE",
"365 -10 CURVE SMOOTH"
);
},
{
closed = 1;
nodes = (
"670 265 LINE",
"670 375 LINE",
"360 375 LINE",
"360 265 LINE"
);
}
);
width = 710;
}
);
leftKerningGroup = C;
rightKerningGroup = G;
unicode = 0047;
},
{
glyphname = H;
lastChange = "2025-12-24 17:11:11 +0000";
layers = (
{
anchors = (
{
name = bottom;
position = "{358, 0}";
},
{
name = center;
position = "{358, 350}";
},
{
name = top;
position = "{358, 700}";
},
{
name = topleft;
position = "{40, 700}";
}
);
hints = (
{
horizontal = 1;
origin = "{1, 3}";
target = up;
type = BottomGhost;
},
{
horizontal = 1;
origin = "{2, 3}";
target = "{2, 2}";
type = Stem;
},
{
horizontal = 1;
origin = "{1, 2}";
target = down;
type = TopGhost;
},
{
origin = "{1, 3}";
target = "{1, 0}";
type = Stem;
},
{
origin = "{0, 3}";
target = "{0, 0}";
type = Stem;
}
);
layerId = "05246BF3-0764-4143-87C4-5D2B296D3790";
paths = (
{
closed = 1;
nodes = (
"625 0 LINE",
"625 720 LINE",
"535 720 LINE",
"535 0 LINE"
);
},
{
closed = 1;
nodes = (
"180 0 LINE",
"180 720 LINE",
"90 720 LINE",
"90 0 LINE"
);
},
{
closed = 1;
nodes = (
"565 330 LINE",
"565 410 LINE",
"145 410 LINE",
"145 330 LINE"
);
}
);
width = 715;
},
{
anchors = (
{
name = bottom;
position = "{368, 0}";
},
{
name = center;
position = "{368, 350}";
},
{
name = top;
position = "{368, 700}";
},
{
name = topleft;
position = "{50, 700}";
}
);
hints = (
{
horizontal = 1;
origin = "{1, 3}";
target = up;
type = BottomGhost;
},
{
horizontal = 1;
origin = "{2, 3}";
target = "{2, 2}";
type = Stem;
},
{
horizontal = 1;
origin = "{1, 2}";
target = down;
type = TopGhost;
},
{
origin = "{1, 3}";
target = "{1, 0}";
type = Stem;
},
{
origin = "{0, 3}";
target = "{0, 0}";
type = Stem;
}
);
layerId = "B51EB05F-9FBB-4087-814F-400611B2D4B0";
paths = (
{
closed = 1;
nodes = (
"665 0 LINE",
"665 720 LINE",
"515 720 LINE",
"515 0 LINE"
);
},
{
closed = 1;
nodes = (
"220 0 LINE",
"220 720 LINE",
"70 720 LINE",
"70 0 LINE"
);
},
{
closed = 1;
nodes = (
"575 310 LINE",
"575 430 LINE",
"155 430 LINE",
"155 310 LINE"
);
}
);
width = 735;
}
);
leftKerningGroup = I;
rightKerningGroup = I;
unicode = 0048;
},
{
glyphname = Hbar;
lastChange = "2025-12-24 17:11:11 +0000";
layers = (
{
hints = (
{
horizontal = 1;
origin = "{1, 3}";
target = up;
type = BottomGhost;
},
{
horizontal = 1;
origin = "{2, 3}";
target = "{2, 2}";
type = Stem;
},
{
horizontal = 1;
origin = "{3, 3}";
target = "{3, 2}";
type = Stem;
},
{
horizontal = 1;
origin = "{3, 3}";
target = "{1, 2}";
type = Stem;
},
{
origin = "{1, 3}";
target = "{1, 0}";
type = Stem;
},
{
origin = "{0, 3}";
target = "{0, 0}";
type = Stem;
}
);
layerId = "05246BF3-0764-4143-87C4-5D2B296D3790";
paths = (
{
closed = 1;
nodes = (
"625 0 LINE",
"625 720 LINE",
"535 720 LINE",
"535 0 LINE"
);
},
{
closed = 1;
nodes = (
"180 0 LINE",
"180 720 LINE",
"90 720 LINE",
"90 0 LINE"
);
},
{
closed = 1;
nodes = (
"565 330 LINE",
"565 410 LINE",
"145 410 LINE",
"145 330 LINE"
);
},
{
closed = 1;
nodes = (
"695 520 LINE",
"695 600 LINE",
"20 600 LINE",
"20 520 LINE"
);
}
);
width = 715;
},
{
hints = (
{
horizontal = 1;
origin = "{1, 3}";
target = up;
type = BottomGhost;
},
{
horizontal = 1;
origin = "{2, 3}";
target = "{2, 2}";
type = Stem;
},
{
horizontal = 1;
origin = "{3, 3}";
target = "{3, 2}";
type = Stem;
},
{
horizontal = 1;
origin = "{1, 2}";
target = "{3, 3}";
type = Stem;
},
{
origin = "{1, 3}";
target = "{1, 0}";
type = Stem;
},
{
origin = "{0, 3}";
target = "{0, 0}";
type = Stem;
}
);
layerId = "B51EB05F-9FBB-4087-814F-400611B2D4B0";
paths = (
{
closed = 1;
nodes = (
"665 0 LINE",
"665 720 LINE",
"515 720 LINE",
"515 0 LINE"
);
},
{
closed = 1;
nodes = (
"220 0 LINE",
"220 720 LINE",
"70 720 LINE",
"70 0 LINE"
);
},
{
closed = 1;
nodes = (
"575 310 LINE",
"575 430 LINE",
"155 430 LINE",
"155 310 LINE"
);
},
{
closed = 1;
nodes = (
"735 505 LINE",
"735 615 LINE",
"0 615 LINE",
"0 505 LINE"
);
}
);
width = 735;
}
);
unicode = 0126;
},
{
glyphname = I;
lastChange = "2025-12-24 17:11:11 +0000";
layers = (
{
anchors = (
{
name = bottom;
position = "{90, 0}";
},
{
name = ogonek;
position = "{223, 10}";
},
{
name = top;
position = "{135, 720}";
},
{
name = topleft;
position = "{40, 700}";
}
);
hints = (
{
horizontal = 1;
origin = "{0, 3}";
target = up;
type = BottomGhost;
},
{
horizontal = 1;
origin = "{0, 2}";
target = down;
type = TopGhost;
},
{
origin = "{0, 3}";
target = "{0, 0}";
type = Stem;
}
);
layerId = "05246BF3-0764-4143-87C4-5D2B296D3790";
paths = (
{
closed = 1;
nodes = (
"180 0 LINE",
"180 720 LINE",
"90 720 LINE",
"90 0 LINE"
);
}
);
width = 270;
},
{
anchors = (
{
name = bottom;
position = "{70, 0}";
},
{
name = ogonek;
position = "{220, 0}";
},
{
name = top;
position = "{145, 720}";
},
{
name = topleft;
position = "{70, 720}";
}
);
hints = (
{
horizontal = 1;
origin = "{0, 3}";
target = up;
type = BottomGhost;
},
{
horizontal = 1;
origin = "{0, 2}";
target = down;
type = TopGhost;
},
{
origin = "{0, 3}";
target = "{0, 0}";
type = Stem;
}
);
layerId = "B51EB05F-9FBB-4087-814F-400611B2D4B0";
paths = (
{
closed = 1;
nodes = (
"220 0 LINE",
"220 720 LINE",
"70 720 LINE",
"70 0 LINE"
);
}
);
width = 290;
}
);
leftKerningGroup = I;
rightKerningGroup = I;
unicode = 0049;
},
{
glyphname = J;
lastChange = "2025-12-24 17:11:11 +0000";
layers = (
{
anchors = (
{
name = bottom;
position = "{271, 0}";
},
{
name = top;
position = "{271, 700}";
}
);
hints = (
{
horizontal = 1;
origin = "{0, 15}";
target = "{0, 8}";
type = Stem;
},
{
horizontal = 1;
origin = "{0, 4}";
target = down;
type = TopGhost;
},
{
origin = "{0, 12}";
target = "{0, 11}";
type = Stem;
},
{
origin = "{0, 5}";
target = "{0, 2}";
type = Stem;
}
);
layerId = "05246BF3-0764-4143-87C4-5D2B296D3790";
paths = (
{
closed = 1;
nodes = (
"367 -10 OFFCURVE",
"463 60 OFFCURVE",
"463 200 CURVE",
"463 720 LINE",
"373 720 LINE",
"373 200 LINE",
"373 110 OFFCURVE",
"327 70 OFFCURVE",
"247 70 CURVE SMOOTH",
"167 70 OFFCURVE",
"120 110 OFFCURVE",
"120 200 CURVE",
"30 200 LINE",
"30 60 OFFCURVE",
"127 -10 OFFCURVE",
"247 -10 CURVE SMOOTH"
);
}
);
width = 543;
},
{
anchors = (
{
name = bottom;
position = "{286, 0}";
},
{
name = top;
position = "{286, 700}";
}
);
hints = (
{
horizontal = 1;
origin = "{0, 15}";
target = "{0, 8}";
type = Stem;
},
{
horizontal = 1;
origin = "{0, 4}";
target = down;
type = TopGhost;
},
{
origin = "{0, 12}";
target = "{0, 11}";
type = Stem;
},
{
origin = "{0, 5}";
target = "{0, 2}";
type = Stem;
}
);
layerId = "B51EB05F-9FBB-4087-814F-400611B2D4B0";
paths = (
{
closed = 1;
nodes = (
"402 -10 OFFCURVE",
"508 40 OFFCURVE",
"508 200 CURVE",
"508 720 LINE",
"358 720 LINE",
"358 200 LINE",
"358 135 OFFCURVE",
"317 110 OFFCURVE",
"262 110 CURVE SMOOTH",
"197 110 OFFCURVE",
"165 140 OFFCURVE",
"165 225 CURVE",
"15 225 LINE",
"15 55 OFFCURVE",
"112 -10 OFFCURVE",
"262 -10 CURVE SMOOTH"
);
}
);
width = 568;
}
);
leftKerningGroup = J;
rightKerningGroup = J;
unicode = 004A;
},
{
glyphname = K;
lastChange = "2025-12-24 17:11:11 +0000";
layers = (
{
anchors = (
{
name = bottom;
position = "{320, 0}";
},
{
name = top;
position = "{320, 700}";
}
);
hints = (
{
horizontal = 1;
origin = "{1, 3}";
target = up;
type = BottomGhost;
},
{
horizontal = 1;
origin = "{1, 2}";
target = down;
type = TopGhost;
},
{
origin = "{1, 3}";
target = "{1, 0}";
type = Stem;
}
);
layerId = "05246BF3-0764-4143-87C4-5D2B296D3790";
paths = (
{
closed = 1;
nodes = (
"580 720 LINE",
"475 720 LINE",
"110 305 LINE",
"180 253 LINE"
);
},
{
closed = 1;
nodes = (
"180 0 LINE",
"180 720 LINE",
"90 720 LINE",
"90 0 LINE"
);
},
{
closed = 1;
nodes = (
"620 0 LINE",
"289 410 LINE",
"227 357 LINE",
"515 0 LINE"
);
}
);
width = 650;
},
{
anchors = (
{
name = bottom;
position = "{335, 0}";
},
{
name = top;
position = "{335, 700}";
}
);
hints = (
{
horizontal = 1;
origin = "{1, 3}";
target = up;
type = BottomGhost;
},
{
horizontal = 1;
origin = "{1, 2}";
target = down;
type = TopGhost;
},
{
origin = "{1, 3}";
target = "{1, 0}";
type = Stem;
}
);
layerId = "B51EB05F-9FBB-4087-814F-400611B2D4B0";
paths = (
{
closed = 1;
nodes = (
"655 720 LINE",
"480 720 LINE",
"115 305 LINE",
"215 223 LINE"
);
},
{
closed = 1;
nodes = (
"225 0 LINE",
"225 720 LINE",
"75 720 LINE",
"75 0 LINE"
);
},
{
closed = 1;
nodes = (
"695 0 LINE",
"364 410 LINE",
"232 357 LINE",
"520 0 LINE"
);
}
);
width = 710;
}
);
leftKerningGroup = I;
rightKerningGroup = K;
unicode = 004B;
},
{
glyphname = L;
lastChange = "2025-12-24 17:11:11 +0000";
layers = (
{
anchors = (
{
name = bottom;
position = "{270, 0}";
},
{
name = center;
position = "{270, 350}";
},
{
name = top;
position = "{270, 700}";
},
{
name = topright;
position = "{500, 700}";
}
);
hints = (
{
horizontal = 1;
origin = "{0, 3}";
target = "{1, 2}";
type = Stem;
},
{
horizontal = 1;
origin = "{0, 2}";
target = down;
type = TopGhost;
},
{
origin = "{0, 3}";
target = "{0, 0}";
type = Stem;
}
);
layerId = "05246BF3-0764-4143-87C4-5D2B296D3790";
paths = (
{
closed = 1;
nodes = (
"180 0 LINE",
"180 720 LINE",
"90 720 LINE",
"90 0 LINE"
);
},
{
closed = 1;
nodes = (
"495 0 LINE",
"495 80 LINE",
"145 80 LINE",
"145 0 LINE"
);
}
);
width = 535;
},
{
anchors = (
{
name = bottom;
position = "{280, 0}";
},
{
name = center;
position = "{280, 350}";
},
{
name = top;
position = "{280, 700}";
},
{
name = topright;
position = "{510, 700}";
}
);
hints = (
{
horizontal = 1;
origin = "{0, 3}";
target = "{1, 2}";
type = Stem;
},
{
horizontal = 1;
origin = "{0, 2}";
target = down;
type = TopGhost;
},
{
origin = "{0, 3}";
target = "{0, 0}";
type = Stem;
}
);
layerId = "B51EB05F-9FBB-4087-814F-400611B2D4B0";
paths = (
{
closed = 1;
nodes = (
"230 0 LINE",
"230 720 LINE",
"70 720 LINE",
"70 0 LINE"
);
},
{
closed = 1;
nodes = (
"545 0 LINE",
"545 120 LINE",
"155 120 LINE",
"155 0 LINE"
);
}
);
width = 555;
}
);
leftKerningGroup = I;
rightKerningGroup = L;
unicode = 004C;
},
{
glyphname = Lcaron;
lastChange = "2025-12-24 17:11:11 +0000";
layers = (
{
components = (
{
name = L;
}
);
hints = (
{
horizontal = 1;
origin = "{0, 6}";
target = "{0, 7}";
type = Stem;
},
{
horizontal = 1;
origin = "{1, 2}";
target = "{1, 3}";
type = Stem;
},
{
origin = "{1, 3}";
target = "{0, 2}";
type = Stem;
},
{
origin = "{0, 3}";
target = "{0, 2}";
type = Stem;
}
);
layerId = "05246BF3-0764-4143-87C4-5D2B296D3790";
paths = (
{
closed = 1;
nodes = (
"270 500 OFFCURVE",
"310 556 OFFCURVE",
"310 626 CURVE",
"260 626 LINE",
"260 586 OFFCURVE",
"250 540 OFFCURVE",
"210 530 CURVE",
"210 500 LINE"
);
},
{
closed = 1;
nodes = (
"310 626 LINE",
"310 720 LINE",
"220 720 LINE",
"220 626 LINE"
);
}
);
width = 535;
},
{
components = (
{
name = L;
}
);
layerId = "B51EB05F-9FBB-4087-814F-400611B2D4B0";
paths = (
{
closed = 1;
nodes = (
"320 500 OFFCURVE",
"360 556 OFFCURVE",
"360 626 CURVE",
"310 626 LINE",
"310 586 OFFCURVE",
"300 540 OFFCURVE",
"260 530 CURVE",
"260 500 LINE"
);
},
{
closed = 1;
nodes = (
"360 626 LINE",
"360 720 LINE",
"270 720 LINE",
"270 626 LINE"
);
}
);
width = 555;
}
);
unicode = 013D;
},
{
glyphname = Lslash;
lastChange = "2025-12-24 17:11:11 +0000";
layers = (
{
components = (
{
name = L;
transform = "{1, 0, 0, 1, 7, 0}";
}
);
hints = (
{
horizontal = 1;
origin = "{0, 1}";
target = down;
type = TopGhost;
}
);
layerId = "05246BF3-0764-4143-87C4-5D2B296D3790";
paths = (
{
closed = 1;
nodes = (
"340 450 LINE",
"340 520 LINE",
"30 381 LINE",
"30 311 LINE"
);
}
);
width = 535;
},
{
components = (
{
name = L;
transform = "{1, 0, 0, 1, 12, 0}";
}
);
hints = (
{
horizontal = 1;
origin = "{0, 1}";
target = down;
type = TopGhost;
},
{
origin = "{0, 3}";
target = "{0, 0}";
type = Stem;
}
);
layerId = "B51EB05F-9FBB-4087-814F-400611B2D4B0";
paths = (
{
closed = 1;
nodes = (
"395 420 LINE",
"395 530 LINE",
"15 381 LINE",
"15 271 LINE"
);
}
);
width = 575;
}
);
leftKerningGroup = B;
rightKerningGroup = L;
unicode = 0141;
},
{
glyphname = M;
lastChange = "2025-12-24 17:11:11 +0000";
layers = (
{
anchors = (
{
name = bottom;
position = "{455, 0}";
},
{
name = top;
position = "{455, 700}";
}
);
hints = (
{
horizontal = 1;
origin = "{1, 3}";
target = up;
type = BottomGhost;
},
{
horizontal = 1;
origin = "{1, 2}";
target = "{2, 5}";
type = Stem;
},
{
horizontal = 1;
origin = "{1, 3}";
target = "{0, 6}";
type = Stem;
},
{
origin = "{1, 3}";
target = "{1, 0}";
type = Stem;
},
{
origin = "{3, 3}";
target = "{3, 0}";
type = Stem;
}
);
layerId = "05246BF3-0764-4143-87C4-5D2B296D3790";
paths = (
{
closed = 1;
nodes = (
"505 0 LINE",
"720 568 LINE",
"730 568 LINE",
"780 720 LINE",
"690 720 LINE",
"457 131 LINE",
"453 131 LINE",
"405 0 LINE"
);
},
{
closed = 1;
nodes = (
"180 0 LINE",
"180 720 LINE",
"90 720 LINE",
"90 0 LINE"
);
},
{
closed = 1;
nodes = (
"505 0 LINE",
"457 131 LINE",
"453 131 LINE",
"220 720 LINE",
"130 720 LINE",
"180 568 LINE",
"190 568 LINE",
"405 0 LINE"
);
},
{
closed = 1;
nodes = (
"820 0 LINE",
"820 720 LINE",
"730 720 LINE",
"730 0 LINE"
);
}
);
width = 910;
},
{
anchors = (
{
name = bottom;
position = "{455, 0}";
},
{
name = top;
position = "{455, 700}";
}
);
hints = (
{
horizontal = 1;
origin = "{1, 3}";
target = up;
type = BottomGhost;
},
{
horizontal = 1;
origin = "{1, 2}";
target = down;
type = TopGhost;
},
{
horizontal = 1;
origin = "{1, 2}";
target = "{2, 5}";
type = Stem;
},
{
origin = "{1, 3}";
target = "{1, 0}";
type = Stem;
},
{
origin = "{3, 3}";
target = "{3, 0}";
type = Stem;
}
);
layerId = "B51EB05F-9FBB-4087-814F-400611B2D4B0";
paths = (
{
closed = 1;
nodes = (
"500 0 LINE",
"680 462 LINE",
"690 462 LINE",
"820 720 LINE",
"650 720 LINE",
"460 227 LINE",
"450 227 LINE",
"410 0 LINE"
);
},
{
closed = 1;
nodes = (
"220 0 LINE",
"220 720 LINE",
"70 720 LINE",
"70 0 LINE"
);
},
{
closed = 1;
nodes = (
"500 0 LINE",
"460 227 LINE",
"450 227 LINE",
"260 720 LINE",
"90 720 LINE",
"220 462 LINE",
"230 462 LINE",
"410 0 LINE"
);
},
{
closed = 1;
nodes = (
"840 0 LINE",
"840 720 LINE",
"690 720 LINE",
"690 0 LINE"
);
}
);
width = 910;
}
);
leftKerningGroup = I;
rightKerningGroup = I;
unicode = 004D;
},
{
glyphname = N;
lastChange = "2025-12-24 17:11:11 +0000";
layers = (
{
anchors = (
{
name = bottom;
position = "{380, 0}";
},
{
name = top;
position = "{380, 720}";
}
);
hints = (
{
horizontal = 1;
origin = "{1, 3}";
target = "{0, 2}";
type = Stem;
},
{
horizontal = 1;
origin = "{1, 2}";
target = "{0, 5}";
type = Stem;
},
{
origin = "{1, 3}";
target = "{1, 0}";
type = Stem;
},
{
place = "{590, 85}";
type = Stem;
}
);
layerId = "05246BF3-0764-4143-87C4-5D2B296D3790";
paths = (
{
closed = 1;
nodes = (
"655 0 LINE",
"590 121 LINE",
"580 121 LINE",
"210 720 LINE",
"115 720 LINE",
"180 599 LINE",
"190 599 LINE",
"560 0 LINE"
);
},
{
closed = 1;
nodes = (
"180 0 LINE",
"180 720 LINE",
"90 720 LINE",
"90 0 LINE"
);
},
{
closed = 1;
nodes = (
"680 0 LINE",
"670 720 LINE",
"590 720 LINE",
"590 0 LINE"
);
}
);
width = 770;
},
{
anchors = (
{
name = bottom;
position = "{380, 0}";
},
{
name = top;
position = "{380, 720}";
}
);
hints = (
{
horizontal = 1;
origin = "{1, 3}";
target = up;
type = BottomGhost;
},
{
horizontal = 1;
origin = "{1, 2}";
target = down;
type = TopGhost;
},
{
origin = "{1, 3}";
target = "{1, 0}";
type = Stem;
},
{
origin = "{2, 3}";
target = "{2, 0}";
type = Stem;
}
);
layerId = "B51EB05F-9FBB-4087-814F-400611B2D4B0";
paths = (
{
closed = 1;
nodes = (
"675 0 LINE",
"540 234 LINE",
"530 234 LINE",
"230 720 LINE",
"85 720 LINE",
"220 486 LINE",
"230 486 LINE",
"530 0 LINE"
);
},
{
closed = 1;
nodes = (
"220 0 LINE",
"220 720 LINE",
"70 720 LINE",
"70 0 LINE"
);
},
{
closed = 1;
nodes = (
"690 0 LINE",
"690 720 LINE",
"540 720 LINE",
"540 0 LINE"
);
}
);
width = 760;
}
);
leftKerningGroup = I;
rightKerningGroup = I;
unicode = 004E;
},
{
glyphname = Eng;
lastChange = "2025-12-24 17:11:11 +0000";
layers = (
{
components = (
{
name = N;
}
);
hints = (
{
horizontal = 1;
origin = "{1, 9}";
target = "{1, 8}";
type = Stem;
},
{
origin = "{0, 3}";
target = "{0, 0}";
type = Stem;
}
);
layerId = "05246BF3-0764-4143-87C4-5D2B296D3790";
paths = (
{
closed = 1;
nodes = (
"680 -90 LINE",
"680 0 LINE",
"590 0 LINE",
"590 -90 LINE"
);
},
{
closed = 1;
nodes = (
"575 -200 LINE SMOOTH",
"625 -200 OFFCURVE",
"680 -160 OFFCURVE",
"680 -90 CURVE",
"590 -90 LINE",
"590 -120 OFFCURVE",
"566 -130 OFFCURVE",
"546 -130 CURVE SMOOTH",
"490 -130 LINE",
"490 -200 LINE"
);
}
);
width = 746;
},
{
components = (
{
name = N;
}
);
hints = (
{
horizontal = 1;
origin = "{1, 9}";
target = "{1, 8}";
type = Stem;
},
{
origin = "{0, 3}";
target = "{0, 0}";
type = Stem;
}
);
layerId = "B51EB05F-9FBB-4087-814F-400611B2D4B0";
paths = (
{
closed = 1;
nodes = (
"690 -90 LINE",
"690 0 LINE",
"540 0 LINE",
"540 -50 LINE"
);
},
{
closed = 1;
nodes = (
"575 -200 LINE SMOOTH",
"625 -200 OFFCURVE",
"690 -160 OFFCURVE",
"690 -90 CURVE",
"540 -50 LINE",
"540 -80 OFFCURVE",
"516 -90 OFFCURVE",
"496 -90 CURVE SMOOTH",
"430 -90 LINE",
"430 -200 LINE"
);
}
);
width = 766;
}
);
unicode = 014A;
},
{
glyphname = O;
lastChange = "2025-12-24 17:11:11 +0000";
layers = (
{
anchors = (
{
name = bottom;
position = "{375, 0}";
},
{
name = center;
position = "{375, 350}";
},
{
name = ogonek;
position = "{647, 10}";
},
{
name = top;
position = "{375, 730}";
},
{
name = topleft;
position = "{55, 700}";
},
{
name = topright;
position = "{695, 700}";
}
);
hints = (
{
horizontal = 1;
origin = "{0, 11}";
target = "{1, 11}";
type = Stem;
},
{
horizontal = 1;
origin = "{0, 5}";
target = "{1, 5}";
type = Stem;
},
{
origin = "{0, 8}";
target = "{1, 2}";
type = Stem;
},
{
origin = "{1, 8}";
target = "{0, 2}";
type = Stem;
}
);
layerId = "05246BF3-0764-4143-87C4-5D2B296D3790";
paths = (
{
closed = 1;
nodes = (
"595 -10 OFFCURVE",
"690 160 OFFCURVE",
"690 360 CURVE SMOOTH",
"690 560 OFFCURVE",
"595 730 OFFCURVE",
"375 730 CURVE SMOOTH",
"155 730 OFFCURVE",
"60 560 OFFCURVE",
"60 360 CURVE SMOOTH",
"60 160 OFFCURVE",
"155 -10 OFFCURVE",
"375 -10 CURVE SMOOTH"
);
},
{
closed = 1;
nodes = (
"215 70 OFFCURVE",
"150 200 OFFCURVE",
"150 360 CURVE SMOOTH",
"150 520 OFFCURVE",
"215 650 OFFCURVE",
"375 650 CURVE SMOOTH",
"535 650 OFFCURVE",
"600 520 OFFCURVE",
"600 360 CURVE SMOOTH",
"600 200 OFFCURVE",
"535 70 OFFCURVE",
"375 70 CURVE SMOOTH"
);
}
);
width = 750;
},
{
anchors = (
{
name = bottom;
position = "{365, 0}";
},
{
name = center;
position = "{365, 350}";
},
{
name = ogonek;
position = "{637, 10}";
},
{
name = top;
position = "{365, 730}";
},
{
name = topleft;
position = "{45, 700}";
},
{
name = topright;
position = "{685, 700}";
}
);
hints = (
{
horizontal = 1;
origin = "{0, 11}";
target = "{1, 11}";
type = Stem;
},
{
horizontal = 1;
origin = "{0, 5}";
target = "{1, 5}";
type = Stem;
},
{
origin = "{0, 8}";
target = "{1, 2}";
type = Stem;
},
{
origin = "{1, 8}";
target = "{0, 2}";
type = Stem;
}
);
layerId = "B51EB05F-9FBB-4087-814F-400611B2D4B0";
paths = (
{
closed = 1;
nodes = (
"590 -10 OFFCURVE",
"690 145 OFFCURVE",
"690 360 CURVE SMOOTH",
"690 575 OFFCURVE",
"590 730 OFFCURVE",
"365 730 CURVE SMOOTH",
"140 730 OFFCURVE",
"40 575 OFFCURVE",
"40 360 CURVE SMOOTH",
"40 145 OFFCURVE",
"140 -10 OFFCURVE",
"365 -10 CURVE SMOOTH"
);
},
{
closed = 1;
nodes = (
"225 110 OFFCURVE",
"190 230 OFFCURVE",
"190 360 CURVE SMOOTH",
"190 490 OFFCURVE",
"225 610 OFFCURVE",
"365 610 CURVE SMOOTH",
"505 610 OFFCURVE",
"540 490 OFFCURVE",
"540 360 CURVE SMOOTH",
"540 230 OFFCURVE",
"505 110 OFFCURVE",
"365 110 CURVE SMOOTH"
);
}
);
width = 730;
}
);
leftKerningGroup = C;
rightKerningGroup = O;
unicode = 004F;
},
{
glyphname = Oslash;
lastChange = "2025-12-24 17:11:11 +0000";
layers = (
{
components = (
{
name = O;
}
);
hints = (
{
horizontal = 1;
origin = "{0, 3}";
target = up;
type = BottomGhost;
},
{
horizontal = 1;
origin = "{0, 2}";
target = down;
type = TopGhost;
}
);
layerId = "05246BF3-0764-4143-87C4-5D2B296D3790";
paths = (
{
closed = 1;
nodes = (
"108 -10 LINE",
"688 730 LINE",
"618 730 LINE",
"38 -10 LINE"
);
}
);
width = 726;
},
{
components = (
{
name = O;
}
);
hints = (
{
horizontal = 1;
origin = "{0, 3}";
target = up;
type = BottomGhost;
},
{
horizontal = 1;
origin = "{0, 2}";
target = down;
type = TopGhost;
}
);
layerId = "B51EB05F-9FBB-4087-814F-400611B2D4B0";
paths = (
{
closed = 1;
nodes = (
"128 -10 LINE",
"728 730 LINE",
"618 730 LINE",
"18 -10 LINE"
);
}
);
width = 746;
}
);
leftKerningGroup = C;
rightKerningGroup = O;
unicode = 00D8;
},
{
glyphname = OE;
lastChange = "2025-12-24 17:11:11 +0000";
layers = (
{
hints = (
{
horizontal = 1;
origin = "{2, 3}";
target = "{3, 2}";
type = Stem;
},
{
horizontal = 1;
origin = "{4, 3}";
target = "{4, 2}";
type = Stem;
},
{
horizontal = 1;
origin = "{2, 2}";
target = "{5, 3}";
type = Stem;
},
{
horizontal = 1;
origin = "{0, 11}";
target = "{1, 11}";
type = Stem;
},
{
horizontal = 1;
origin = "{0, 5}";
target = "{1, 5}";
type = Stem;
},
{
origin = "{0, 8}";
target = "{1, 2}";
type = Stem;
},
{
origin = "{2, 3}";
target = "{2, 0}";
type = Stem;
}
);
layerId = "05246BF3-0764-4143-87C4-5D2B296D3790";
paths = (
{
closed = 1;
nodes = (
"595 -10 OFFCURVE",
"690 160 OFFCURVE",
"690 360 CURVE SMOOTH",
"690 560 OFFCURVE",
"595 730 OFFCURVE",
"375 730 CURVE SMOOTH",
"155 730 OFFCURVE",
"60 560 OFFCURVE",
"60 360 CURVE SMOOTH",
"60 160 OFFCURVE",
"155 -10 OFFCURVE",
"375 -10 CURVE SMOOTH"
);
},
{
closed = 1;
nodes = (
"215 70 OFFCURVE",
"150 200 OFFCURVE",
"150 360 CURVE SMOOTH",
"150 520 OFFCURVE",
"215 650 OFFCURVE",
"375 650 CURVE SMOOTH",
"535 650 OFFCURVE",
"600 520 OFFCURVE",
"600 360 CURVE SMOOTH",
"600 200 OFFCURVE",
"535 70 OFFCURVE",
"375 70 CURVE SMOOTH"
);
},
{
closed = 1;
nodes = (
"690 0 LINE",
"690 720 LINE",
"600 720 LINE",
"600 0 LINE"
);
},
{
closed = 1;
nodes = (
"1045 0 LINE",
"1045 80 LINE",
"655 80 LINE",
"655 0 LINE"
);
},
{
closed = 1;
nodes = (
"995 330 LINE",
"995 410 LINE",
"655 410 LINE",
"655 330 LINE"
);
},
{
closed = 1;
nodes = (
"1045 640 LINE",
"1045 720 LINE",
"655 720 LINE",
"655 640 LINE"
);
}
);
width = 1115;
},
{
hints = (
{
horizontal = 1;
origin = "{2, 3}";
target = "{3, 2}";
type = Stem;
},
{
horizontal = 1;
origin = "{4, 3}";
target = "{4, 2}";
type = Stem;
},
{
horizontal = 1;
origin = "{2, 2}";
target = "{5, 3}";
type = Stem;
},
{
horizontal = 1;
origin = "{0, 11}";
target = "{1, 11}";
type = Stem;
},
{
horizontal = 1;
origin = "{0, 5}";
target = "{1, 5}";
type = Stem;
},
{
origin = "{0, 8}";
target = "{1, 2}";
type = Stem;
},
{
origin = "{2, 3}";
target = "{2, 0}";
type = Stem;
}
);
layerId = "B51EB05F-9FBB-4087-814F-400611B2D4B0";
paths = (
{
closed = 1;
nodes = (
"590 -10 OFFCURVE",
"690 145 OFFCURVE",
"690 360 CURVE SMOOTH",
"690 575 OFFCURVE",
"590 730 OFFCURVE",
"365 730 CURVE SMOOTH",
"140 730 OFFCURVE",
"40 575 OFFCURVE",
"40 360 CURVE SMOOTH",
"40 145 OFFCURVE",
"140 -10 OFFCURVE",
"365 -10 CURVE SMOOTH"
);
},
{
closed = 1;
nodes = (
"225 110 OFFCURVE",
"190 230 OFFCURVE",
"190 360 CURVE SMOOTH",
"190 490 OFFCURVE",
"225 610 OFFCURVE",
"365 610 CURVE SMOOTH",
"505 610 OFFCURVE",
"540 490 OFFCURVE",
"540 360 CURVE SMOOTH",
"540 230 OFFCURVE",
"505 110 OFFCURVE",
"365 110 CURVE SMOOTH"
);
},
{
closed = 1;
nodes = (
"690 0 LINE",
"690 720 LINE",
"540 720 LINE",
"540 0 LINE"
);
},
{
closed = 1;
nodes = (
"1015 0 LINE",
"1015 120 LINE",
"625 120 LINE",
"625 0 LINE"
);
},
{
closed = 1;
nodes = (
"965 310 LINE",
"965 430 LINE",
"625 430 LINE",
"625 310 LINE"
);
},
{
closed = 1;
nodes = (
"1015 600 LINE",
"1015 720 LINE",
"625 720 LINE",
"625 600 LINE"
);
}
);
width = 1065;
}
);
leftKerningGroup = C;
rightKerningGroup = E;
unicode = 0152;
},
{
glyphname = P;
lastChange = "2025-12-24 17:11:11 +0000";
layers = (
{
anchors = (
{
name = bottom;
position = "{313, 0}";
},
{
name = top;
position = "{313, 700}";
}
);
hints = (
{
horizontal = 1;
origin = "{1, 3}";
target = up;
type = BottomGhost;
},
{
horizontal = 1;
origin = "{0, 17}";
target = "{0, 16}";
type = Stem;
},
{
horizontal = 1;
origin = "{1, 2}";
target = "{0, 8}";
type = Stem;
},
{
origin = "{1, 3}";
target = "{1, 0}";
type = Stem;
},
{
origin = "{0, 12}";
target = "{0, 3}";
type = Stem;
}
);
layerId = "05246BF3-0764-4143-87C4-5D2B296D3790";
paths = (
{
closed = 1;
nodes = (
"320 260 LINE",
"500 260 OFFCURVE",
"570 360 OFFCURVE",
"570 490 CURVE SMOOTH",
"570 620 OFFCURVE",
"500 720 OFFCURVE",
"320 720 CURVE",
"130 720 LINE",
"130 640 LINE",
"320 640 LINE",
"430 640 OFFCURVE",
"480 600 OFFCURVE",
"480 490 CURVE SMOOTH",
"480 380 OFFCURVE",
"430 340 OFFCURVE",
"320 340 CURVE",
"130 340 LINE",
"130 260 LINE"
);
},
{
closed = 1;
nodes = (
"180 0 LINE",
"180 720 LINE",
"90 720 LINE",
"90 0 LINE"
);
}
);
width = 620;
},
{
anchors = (
{
name = bottom;
position = "{323, 0}";
},
{
name = top;
position = "{323, 700}";
}
);
hints = (
{
horizontal = 1;
origin = "{1, 3}";
target = up;
type = BottomGhost;
},
{
horizontal = 1;
origin = "{0, 17}";
target = "{0, 16}";
type = Stem;
},
{
horizontal = 1;
origin = "{1, 2}";
target = "{0, 8}";
type = Stem;
},
{
origin = "{1, 3}";
target = "{1, 0}";
type = Stem;
},
{
origin = "{0, 12}";
target = "{0, 3}";
type = Stem;
}
);
layerId = "B51EB05F-9FBB-4087-814F-400611B2D4B0";
paths = (
{
closed = 1;
nodes = (
"330 240 LINE",
"530 240 OFFCURVE",
"610 335 OFFCURVE",
"610 480 CURVE SMOOTH",
"610 625 OFFCURVE",
"530 720 OFFCURVE",
"330 720 CURVE",
"140 720 LINE",
"140 600 LINE",
"330 600 LINE",
"415 600 OFFCURVE",
"460 565 OFFCURVE",
"460 480 CURVE SMOOTH",
"460 395 OFFCURVE",
"415 360 OFFCURVE",
"330 360 CURVE",
"140 360 LINE",
"140 240 LINE"
);
},
{
closed = 1;
nodes = (
"220 0 LINE",
"220 720 LINE",
"70 720 LINE",
"70 0 LINE"
);
}
);
width = 630;
}
);
leftKerningGroup = I;
rightKerningGroup = P;
unicode = 0050;
},
{
glyphname = Thorn;
lastChange = "2025-12-24 17:11:11 +0000";
layers = (
{
hints = (
{
horizontal = 1;
origin = "{1, 3}";
target = up;
type = BottomGhost;
},
{
horizontal = 1;
origin = "{0, 17}";
target = "{0, 16}";
type = Stem;
},
{
horizontal = 1;
origin = "{0, 8}";
target = "{0, 7}";
type = Stem;
},
{
horizontal = 1;
origin = "{1, 2}";
target = down;
type = TopGhost;
},
{
origin = "{1, 3}";
target = "{1, 0}";
type = Stem;
},
{
origin = "{0, 12}";
target = "{0, 3}";
type = Stem;
}
);
layerId = "05246BF3-0764-4143-87C4-5D2B296D3790";
paths = (
{
closed = 1;
nodes = (
"333 170 LINE",
"493 170 OFFCURVE",
"563 260 OFFCURVE",
"563 370 CURVE SMOOTH",
"563 480 OFFCURVE",
"493 570 OFFCURVE",
"333 570 CURVE",
"133 570 LINE",
"133 500 LINE",
"333 500 LINE",
"423 500 OFFCURVE",
"483 460 OFFCURVE",
"483 370 CURVE SMOOTH",
"483 280 OFFCURVE",
"423 240 OFFCURVE",
"333 240 CURVE",
"133 240 LINE",
"133 170 LINE"
);
},
{
closed = 1;
nodes = (
"173 0 LINE",
"173 720 LINE",
"93 720 LINE",
"93 0 LINE"
);
}
);
width = 603;
},
{
hints = (
{
horizontal = 1;
origin = "{1, 3}";
target = up;
type = BottomGhost;
},
{
horizontal = 1;
origin = "{0, 17}";
target = "{0, 16}";
type = Stem;
},
{
horizontal = 1;
origin = "{0, 8}";
target = "{0, 7}";
type = Stem;
},
{
horizontal = 1;
origin = "{1, 2}";
target = down;
type = TopGhost;
},
{
origin = "{1, 3}";
target = "{1, 0}";
type = Stem;
},
{
origin = "{0, 12}";
target = "{0, 3}";
type = Stem;
}
);
layerId = "B51EB05F-9FBB-4087-814F-400611B2D4B0";
paths = (
{
closed = 1;
nodes = (
"333 170 LINE",
"508 170 OFFCURVE",
"593 245 OFFCURVE",
"593 370 CURVE SMOOTH",
"593 495 OFFCURVE",
"508 570 OFFCURVE",
"333 570 CURVE",
"133 570 LINE",
"133 460 LINE",
"333 460 LINE",
"403 460 OFFCURVE",
"443 440 OFFCURVE",
"443 370 CURVE SMOOTH",
"443 300 OFFCURVE",
"403 280 OFFCURVE",
"333 280 CURVE",
"133 280 LINE",
"133 170 LINE"
);
},
{
closed = 1;
nodes = (
"203 0 LINE",
"203 720 LINE",
"73 720 LINE",
"73 0 LINE"
);
}
);
width = 613;
}
);
leftKerningGroup = B;
rightKerningGroup = Thorn;
unicode = 00DE;
},
{
glyphname = Q;
lastChange = "2025-12-24 17:11:11 +0000";
layers = (
{
anchors = (
{
name = bottom;
position = "{363, 0}";
},
{
name = top;
position = "{360, 700}";
}
);
components = (
{
name = O;
}
);
hints = (
{
horizontal = 1;
origin = "{0, 9}";
target = "{0, 2}";
type = Stem;
},
{
origin = "{1, 2}";
target = "{0, 0}";
type = Stem;
}
);
layerId = "05246BF3-0764-4143-87C4-5D2B296D3790";
paths = (
{
closed = 1;
nodes = (
"544 -160 LINE",
"544 -80 LINE",
"488 -80 LINE SMOOTH",
"472 -80 OFFCURVE",
"453 -72 OFFCURVE",
"446 -54 CURVE",
"361 -92 LINE",
"377 -135 OFFCURVE",
"420 -160 OFFCURVE",
"459 -160 CURVE SMOOTH"
);
},
{
closed = 1;
nodes = (
"446 -54 LINE",
"413 40 LINE",
"313 40 LINE",
"361 -92 LINE"
);
}
);
width = 750;
},
{
anchors = (
{
name = bottom;
position = "{373, 0}";
},
{
name = top;
position = "{360, 700}";
}
);
components = (
{
name = O;
}
);
hints = (
{
horizontal = 1;
origin = "{0, 9}";
target = "{0, 2}";
type = Stem;
},
{
origin = "{1, 2}";
target = "{0, 0}";
type = Stem;
}
);
layerId = "B51EB05F-9FBB-4087-814F-400611B2D4B0";
paths = (
{
closed = 1;
nodes = (
"584 -160 LINE",
"584 -50 LINE",
"528 -50 LINE SMOOTH",
"502 -50 OFFCURVE",
"487 -46 OFFCURVE",
"478 -24 CURVE",
"341 -92 LINE",
"357 -135 OFFCURVE",
"400 -160 OFFCURVE",
"439 -160 CURVE SMOOTH"
);
},
{
closed = 1;
nodes = (
"478 -24 LINE",
"453 40 LINE",
"293 40 LINE",
"341 -92 LINE"
);
}
);
width = 730;
}
);
leftKerningGroup = C;
rightKerningGroup = O;
unicode = 0051;
},
{
glyphname = R;
lastChange = "2025-12-24 17:11:11 +0000";
layers = (
{
anchors = (
{
name = bottom;
position = "{320, 0}";
},
{
name = top;
position = "{320, 700}";
}
);
hints = (
{
horizontal = 1;
origin = "{1, 3}";
target = up;
type = BottomGhost;
},
{
horizontal = 1;
origin = "{0, 17}";
target = "{0, 16}";
type = Stem;
},
{
horizontal = 1;
origin = "{1, 2}";
target = "{0, 8}";
type = Stem;
},
{
origin = "{1, 3}";
target = "{1, 0}";
type = Stem;
},
{
origin = "{0, 12}";
target = "{0, 3}";
type = Stem;
}
);
layerId = "05246BF3-0764-4143-87C4-5D2B296D3790";
paths = (
{
closed = 1;
nodes = (
"340 260 LINE",
"520 260 OFFCURVE",
"590 360 OFFCURVE",
"590 490 CURVE SMOOTH",
"590 620 OFFCURVE",
"520 720 OFFCURVE",
"340 720 CURVE",
"130 720 LINE",
"130 640 LINE",
"340 640 LINE",
"450 640 OFFCURVE",
"500 600 OFFCURVE",
"500 490 CURVE SMOOTH",
"500 380 OFFCURVE",
"450 340 OFFCURVE",
"340 340 CURVE",
"130 340 LINE",
"130 260 LINE"
);
},
{
closed = 1;
nodes = (
"180 0 LINE",
"180 720 LINE",
"90 720 LINE",
"90 0 LINE"
);
},
{
closed = 1;
nodes = (
"615 0 LINE",
"450 300 LINE",
"350 300 LINE",
"515 0 LINE"
);
}
);
width = 665;
},
{
anchors = (
{
name = bottom;
position = "{330, 0}";
},
{
name = top;
position = "{330, 720}";
}
);
hints = (
{
horizontal = 1;
origin = "{1, 3}";
target = up;
type = BottomGhost;
},
{
horizontal = 1;
origin = "{0, 17}";
target = "{0, 16}";
type = Stem;
},
{
horizontal = 1;
origin = "{1, 2}";
target = "{0, 8}";
type = Stem;
},
{
origin = "{1, 3}";
target = "{1, 0}";
type = Stem;
},
{
origin = "{0, 12}";
target = "{0, 3}";
type = Stem;
}
);
layerId = "B51EB05F-9FBB-4087-814F-400611B2D4B0";
paths = (
{
closed = 1;
nodes = (
"330 240 LINE",
"530 240 OFFCURVE",
"610 335 OFFCURVE",
"610 480 CURVE SMOOTH",
"610 625 OFFCURVE",
"530 720 OFFCURVE",
"330 720 CURVE",
"140 720 LINE",
"140 600 LINE",
"330 600 LINE",
"415 600 OFFCURVE",
"460 565 OFFCURVE",
"460 480 CURVE SMOOTH",
"460 395 OFFCURVE",
"415 360 OFFCURVE",
"330 360 CURVE",
"140 360 LINE",
"140 240 LINE"
);
},
{
closed = 1;
nodes = (
"220 0 LINE",
"220 720 LINE",
"70 720 LINE",
"70 0 LINE"
);
},
{
closed = 1;
nodes = (
"635 0 LINE",
"470 300 LINE",
"310 300 LINE",
"475 0 LINE"
);
}
);
width = 665;
}
);
leftKerningGroup = I;
rightKerningGroup = R;
unicode = 0052;
},
{
glyphname = S;
lastChange = "2025-12-24 17:11:11 +0000";
layers = (
{
anchors = (
{
name = bottom;
position = "{308, 0}";
},
{
name = top;
position = "{308, 729}";
}
);
hints = (
{
horizontal = 1;
origin = "{0, 30}";
target = "{0, 37}";
type = Stem;
},
{
horizontal = 1;
origin = "{0, 18}";
target = "{0, 11}";
type = Stem;
},
{
origin = "{0, 21}";
target = "{0, 8}";
type = Stem;
},
{
origin = "{0, 27}";
target = "{0, 2}";
type = Stem;
}
);
layerId = "05246BF3-0764-4143-87C4-5D2B296D3790";
paths = (
{
closed = 1;
nodes = (
"478 -10 OFFCURVE",
"580 63 OFFCURVE",
"580 203 CURVE SMOOTH",
"580 303 OFFCURVE",
"542 380 OFFCURVE",
"318 412 CURVE SMOOTH",
"232 424 OFFCURVE",
"160 463 OFFCURVE",
"160 523 CURVE SMOOTH",
"160 593 OFFCURVE",
"218 649 OFFCURVE",
"308 649 CURVE SMOOTH",
"397 649 OFFCURVE",
"452 611 OFFCURVE",
"471 540 CURVE",
"565 540 LINE",
"537 652 OFFCURVE",
"457 729 OFFCURVE",
"308 729 CURVE SMOOTH",
"178 729 OFFCURVE",
"70 643 OFFCURVE",
"70 523 CURVE SMOOTH",
"70 413 OFFCURVE",
"139 342 OFFCURVE",
"298 322 CURVE SMOOTH",
"405 309 OFFCURVE",
"490 283 OFFCURVE",
"490 203 CURVE SMOOTH",
"490 113 OFFCURVE",
"418 70 OFFCURVE",
"308 70 CURVE SMOOTH",
"216 70 OFFCURVE",
"141 120 OFFCURVE",
"132 185 CURVE",
"40 185 LINE",
"58 60 OFFCURVE",
"167 -10 OFFCURVE",
"308 -10 CURVE SMOOTH"
);
}
);
width = 640;
},
{
anchors = (
{
name = bottom;
position = "{320, 0}";
},
{
name = top;
position = "{320, 729}";
}
);
hints = (
{
horizontal = 1;
origin = "{0, 37}";
target = "{0, 30}";
type = Stem;
},
{
horizontal = 1;
origin = "{0, 18}";
target = "{0, 11}";
type = Stem;
},
{
origin = "{0, 21}";
target = "{0, 8}";
type = Stem;
},
{
origin = "{0, 27}";
target = "{0, 2}";
type = Stem;
}
);
layerId = "B51EB05F-9FBB-4087-814F-400611B2D4B0";
paths = (
{
closed = 1;
nodes = (
"510 -10 OFFCURVE",
"612 53 OFFCURVE",
"612 203 CURVE SMOOTH",
"612 323 OFFCURVE",
"548 403 OFFCURVE",
"330 432 CURVE SMOOTH",
"244 443 OFFCURVE",
"202 483 OFFCURVE",
"202 523 CURVE SMOOTH",
"202 588 OFFCURVE",
"255 619 OFFCURVE",
"320 619 CURVE SMOOTH",
"388 619 OFFCURVE",
"427 578 OFFCURVE",
"439 520 CURVE",
"593 520 LINE",
"573 647 OFFCURVE",
"483 729 OFFCURVE",
"320 729 CURVE SMOOTH",
"180 729 OFFCURVE",
"52 663 OFFCURVE",
"52 523 CURVE SMOOTH",
"52 393 OFFCURVE",
"137 313 OFFCURVE",
"310 292 CURVE SMOOTH",
"398 281 OFFCURVE",
"462 253 OFFCURVE",
"462 203 CURVE SMOOTH",
"462 133 OFFCURVE",
"400 110 OFFCURVE",
"320 110 CURVE SMOOTH",
"250 110 OFFCURVE",
"201 135 OFFCURVE",
"179 205 CURVE",
"25 205 LINE",
"44 74 OFFCURVE",
"144 -10 OFFCURVE",
"320 -10 CURVE SMOOTH"
);
}
);
width = 642;
}
);
leftKerningGroup = S;
rightKerningGroup = S;
unicode = 0053;
},
{
glyphname = T;
lastChange = "2025-12-24 17:11:11 +0000";
layers = (
{
anchors = (
{
name = bottom;
position = "{305, 10}";
},
{
name = center;
position = "{305, 350}";
},
{
name = top;
position = "{305, 720}";
}
);
hints = (
{
horizontal = 1;
origin = "{0, 3}";
target = up;
type = BottomGhost;
},
{
horizontal = 1;
origin = "{1, 2}";
target = "{1, 3}";
type = Stem;
},
{
origin = "{0, 3}";
target = "{0, 0}";
type = Stem;
}
);
layerId = "05246BF3-0764-4143-87C4-5D2B296D3790";
paths = (
{
closed = 1;
nodes = (
"350 0 LINE",
"350 720 LINE",
"260 720 LINE",
"260 0 LINE"
);
},
{
closed = 1;
nodes = (
"580 640 LINE",
"580 720 LINE",
"30 720 LINE",
"30 640 LINE"
);
}
);
width = 610;
},
{
anchors = (
{
name = bottom;
position = "{295, 10}";
},
{
name = center;
position = "{295, 350}";
},
{
name = top;
position = "{295, 720}";
}
);
hints = (
{
horizontal = 1;
origin = "{0, 3}";
target = up;
type = BottomGhost;
},
{
horizontal = 1;
origin = "{1, 2}";
target = "{1, 3}";
type = Stem;
},
{
origin = "{0, 3}";
target = "{0, 0}";
type = Stem;
}
);
layerId = "B51EB05F-9FBB-4087-814F-400611B2D4B0";
paths = (
{
closed = 1;
nodes = (
"370 0 LINE",
"370 720 LINE",
"220 720 LINE",
"220 0 LINE"
);
},
{
closed = 1;
nodes = (
"570 600 LINE",
"570 720 LINE",
"20 720 LINE",
"20 600 LINE"
);
}
);
width = 590;
}
);
leftKerningGroup = T;
rightKerningGroup = T;
unicode = 0054;
},
{
glyphname = Tbar;
lastChange = "2025-12-24 17:11:11 +0000";
layers = (
{
components = (
{
name = T;
}
);
hints = (
{
horizontal = 1;
origin = "{0, 3}";
target = "{0, 2}";
type = Stem;
}
);
layerId = "05246BF3-0764-4143-87C4-5D2B296D3790";
paths = (
{
closed = 1;
nodes = (
"487 315 LINE",
"487 385 LINE",
"87 385 LINE",
"87 315 LINE"
);
}
);
width = 574;
},
{
components = (
{
name = T;
}
);
hints = (
{
horizontal = 1;
origin = "{0, 3}";
target = "{0, 2}";
type = Stem;
},
{
origin = "{0, 3}";
target = "{0, 0}";
type = Stem;
}
);
layerId = "B51EB05F-9FBB-4087-814F-400611B2D4B0";
paths = (
{
closed = 1;
nodes = (
"497 296 LINE",
"497 406 LINE",
"77 406 LINE",
"77 296 LINE"
);
}
);
width = 574;
}
);
unicode = 0166;
},
{
glyphname = Tcaron;
lastChange = "2025-12-24 17:11:11 +0000";
layers = (
{
anchors = (
{
name = top;
position = "{305, 900}";
}
);
components = (
{
name = T;
}
);
hints = (
{
horizontal = 1;
origin = "{0, 4}";
target = "{0, 5}";
type = Stem;
},
{
horizontal = 1;
origin = "{0, 5}";
target = "{1, 4}";
type = Stem;
}
);
layerId = "05246BF3-0764-4143-87C4-5D2B296D3790";
paths = (
{
closed = 1;
nodes = (
"345 790 LINE",
"455 930 LINE",
"375 930 LINE",
"310 843 LINE",
"300 843 LINE",
"265 790 LINE"
);
},
{
closed = 1;
nodes = (
"345 790 LINE",
"310 843 LINE",
"300 843 LINE",
"235 930 LINE",
"155 930 LINE",
"265 790 LINE"
);
}
);
width = 610;
},
{
anchors = (
{
name = top;
position = "{295, 890}";
}
);
components = (
{
name = T;
}
);
hints = (
{
horizontal = 1;
origin = "{0, 5}";
target = "{0, 4}";
type = Stem;
},
{
horizontal = 1;
origin = "{1, 4}";
target = "{0, 5}";
type = Stem;
},
{
origin = "{1, 4}";
target = "{0, 1}";
type = Stem;
}
);
layerId = "B51EB05F-9FBB-4087-814F-400611B2D4B0";
paths = (
{
closed = 1;
nodes = (
"355 780 LINE",
"465 920 LINE",
"345 920 LINE",
"300 859 LINE",
"290 859 LINE",
"235 780 LINE"
);
},
{
closed = 1;
nodes = (
"355 780 LINE",
"300 859 LINE",
"290 859 LINE",
"245 920 LINE",
"125 920 LINE",
"235 780 LINE"
);
}
);
width = 590;
}
);
unicode = 0164;
},
{
glyphname = U;
lastChange = "2025-12-24 17:11:11 +0000";
layers = (
{
anchors = (
{
name = bottom;
position = "{305, -5}";
},
{
name = ogonek;
position = "{587, 10}";
},
{
name = top;
position = "{345, 720}";
},
{
name = topright;
position = "{630, 700}";
}
);
hints = (
{
horizontal = 1;
origin = "{0, 8}";
target = "{0, 17}";
type = Stem;
},
{
horizontal = 1;
origin = "{0, 13}";
target = down;
type = TopGhost;
},
{
origin = "{0, 14}";
target = "{0, 11}";
type = Stem;
},
{
origin = "{0, 5}";
target = "{0, 2}";
type = Stem;
}
);
layerId = "05246BF3-0764-4143-87C4-5D2B296D3790";
paths = (
{
closed = 1;
nodes = (
"545 -10 OFFCURVE",
"610 90 OFFCURVE",
"610 250 CURVE",
"610 720 LINE",
"520 720 LINE",
"520 250 LINE",
"520 120 OFFCURVE",
"465 70 OFFCURVE",
"345 70 CURVE SMOOTH",
"225 70 OFFCURVE",
"170 120 OFFCURVE",
"170 250 CURVE",
"170 720 LINE",
"80 720 LINE",
"80 250 LINE",
"80 90 OFFCURVE",
"145 -10 OFFCURVE",
"345 -10 CURVE SMOOTH"
);
}
);
width = 690;
},
{
anchors = (
{
name = bottom;
position = "{305, 1}";
},
{
name = ogonek;
position = "{587, 10}";
},
{
name = top;
position = "{345, 720}";
},
{
name = topright;
position = "{630, 700}";
}
);
hints = (
{
horizontal = 1;
origin = "{0, 17}";
target = "{0, 8}";
type = Stem;
},
{
horizontal = 1;
origin = "{0, 13}";
target = down;
type = TopGhost;
},
{
origin = "{0, 14}";
target = "{0, 11}";
type = Stem;
},
{
origin = "{0, 5}";
target = "{0, 2}";
type = Stem;
}
);
layerId = "B51EB05F-9FBB-4087-814F-400611B2D4B0";
paths = (
{
closed = 1;
nodes = (
"555 -10 OFFCURVE",
"630 80 OFFCURVE",
"630 250 CURVE",
"630 720 LINE",
"480 720 LINE",
"480 250 LINE",
"480 150 OFFCURVE",
"435 110 OFFCURVE",
"345 110 CURVE SMOOTH",
"255 110 OFFCURVE",
"210 150 OFFCURVE",
"210 250 CURVE",
"210 720 LINE",
"60 720 LINE",
"60 250 LINE",
"60 80 OFFCURVE",
"135 -10 OFFCURVE",
"345 -10 CURVE SMOOTH"
);
}
);
width = 690;
}
);
leftKerningGroup = U;
rightKerningGroup = U;
unicode = 0055;
},
{
glyphname = V;
lastChange = "2025-12-24 17:11:11 +0000";
layers = (
{
anchors = (
{
name = bottom;
position = "{304, 0}";
},
{
name = top;
position = "{304, 700}";
}
);
hints = (
{
horizontal = 1;
origin = "{0, 5}";
target = "{0, 4}";
type = Stem;
},
{
horizontal = 1;
origin = "{1, 4}";
target = down;
type = TopGhost;
}
);
layerId = "05246BF3-0764-4143-87C4-5D2B296D3790";
paths = (
{
closed = 1;
nodes = (
"369 0 LINE",
"624 720 LINE",
"530 720 LINE",
"324 130 LINE",
"320 130 LINE",
"275 0 LINE"
);
},
{
closed = 1;
nodes = (
"369 0 LINE",
"324 130 LINE",
"320 130 LINE",
"114 720 LINE",
"20 720 LINE",
"275 0 LINE"
);
}
);
width = 644;
},
{
anchors = (
{
name = bottom;
position = "{324, 0}";
},
{
name = top;
position = "{324, 700}";
}
);
hints = (
{
horizontal = 1;
origin = "{0, 5}";
target = "{0, 4}";
type = Stem;
},
{
horizontal = 1;
origin = "{1, 4}";
target = down;
type = TopGhost;
}
);
layerId = "B51EB05F-9FBB-4087-814F-400611B2D4B0";
paths = (
{
closed = 1;
nodes = (
"419 0 LINE",
"674 720 LINE",
"524 720 LINE",
"347 203 LINE",
"337 203 LINE",
"265 0 LINE"
);
},
{
closed = 1;
nodes = (
"419 0 LINE",
"347 203 LINE",
"337 203 LINE",
"160 720 LINE",
"10 720 LINE",
"265 0 LINE"
);
}
);
width = 684;
}
);
leftKerningGroup = V;
rightKerningGroup = V;
unicode = 0056;
},
{
glyphname = W;
lastChange = "2025-12-24 17:11:11 +0000";
layers = (
{
anchors = (
{
name = bottom;
position = "{487, 0}";
},
{
name = top;
position = "{487, 720}";
}
);
hints = (
{
horizontal = 1;
origin = "{1, 5}";
target = "{1, 2}";
type = Stem;
},
{
horizontal = 1;
origin = "{1, 4}";
target = down;
type = TopGhost;
},
{
horizontal = 1;
origin = "{1, 5}";
target = up;
type = BottomGhost;
},
{
horizontal = 1;
origin = "{1, 4}";
target = "{2, 1}";
type = Stem;
}
);
layerId = "05246BF3-0764-4143-87C4-5D2B296D3790";
paths = (
{
closed = 1;
nodes = (
"739 0 LINE",
"944 720 LINE",
"850 720 LINE",
"694 150 LINE",
"690 150 LINE",
"645 0 LINE"
);
},
{
closed = 1;
nodes = (
"329 0 LINE",
"284 150 LINE",
"280 150 LINE",
"124 720 LINE",
"30 720 LINE",
"235 0 LINE"
);
},
{
closed = 1;
nodes = (
"329 0 LINE",
"485 570 LINE",
"489 570 LINE",
"534 720 LINE",
"440 720 LINE",
"284 150 LINE",
"280 150 LINE",
"235 0 LINE"
);
},
{
closed = 1;
nodes = (
"739 0 LINE",
"694 150 LINE",
"690 150 LINE",
"534 720 LINE",
"440 720 LINE",
"485 570 LINE",
"489 570 LINE",
"645 0 LINE"
);
}
);
width = 974;
},
{
anchors = (
{
name = bottom;
position = "{499, 0}";
},
{
name = top;
position = "{499, 720}";
}
);
hints = (
{
horizontal = 1;
origin = "{1, 5}";
target = "{1, 2}";
type = Stem;
},
{
horizontal = 1;
origin = "{1, 4}";
target = down;
type = TopGhost;
}
);
layerId = "B51EB05F-9FBB-4087-814F-400611B2D4B0";
paths = (
{
closed = 1;
nodes = (
"783 0 LINE",
"988 720 LINE",
"838 720 LINE",
"711 237 LINE",
"701 237 LINE",
"629 0 LINE"
);
},
{
closed = 1;
nodes = (
"369 0 LINE",
"297 237 LINE",
"287 237 LINE",
"160 720 LINE",
"10 720 LINE",
"215 0 LINE"
);
},
{
closed = 1;
nodes = (
"369 0 LINE",
"494 483 LINE",
"504 483 LINE",
"574 720 LINE",
"424 720 LINE",
"297 237 LINE",
"287 237 LINE",
"215 0 LINE"
);
},
{
closed = 1;
nodes = (
"783 0 LINE",
"711 237 LINE",
"701 237 LINE",
"574 720 LINE",
"424 720 LINE",
"494 483 LINE",
"504 483 LINE",
"629 0 LINE"
);
}
);
width = 998;
}
);
leftKerningGroup = W;
rightKerningGroup = V;
unicode = 0057;
},
{
glyphname = X;
lastChange = "2025-12-24 17:11:11 +0000";
layers = (
{
anchors = (
{
name = bottom;
position = "{348, 0}";
},
{
name = top;
position = "{348, 700}";
}
);
hints = (
{
horizontal = 1;
origin = "{1, 7}";
target = up;
type = BottomGhost;
},
{
horizontal = 1;
origin = "{0, 4}";
target = down;
type = TopGhost;
}
);
layerId = "05246BF3-0764-4143-87C4-5D2B296D3790";
paths = (
{
closed = 1;
nodes = (
"664 0 LINE",
"354 469 LINE",
"350 469 LINE",
"182 720 LINE",
"80 720 LINE",
"350 311 LINE",
"354 311 LINE",
"562 0 LINE"
);
},
{
closed = 1;
nodes = (
"142 0 LINE",
"350 311 LINE",
"354 311 LINE",
"624 720 LINE",
"522 720 LINE",
"354 469 LINE",
"350 469 LINE",
"40 0 LINE"
);
}
);
width = 704;
},
{
anchors = (
{
name = bottom;
position = "{353, 0}";
},
{
name = top;
position = "{353, 700}";
}
);
hints = (
{
horizontal = 1;
origin = "{1, 7}";
target = up;
type = BottomGhost;
},
{
horizontal = 1;
origin = "{0, 4}";
target = down;
type = TopGhost;
}
);
layerId = "B51EB05F-9FBB-4087-814F-400611B2D4B0";
paths = (
{
closed = 1;
nodes = (
"695 0 LINE",
"360 511 LINE",
"350 511 LINE",
"213 720 LINE",
"55 720 LINE",
"350 269 LINE",
"360 269 LINE",
"537 0 LINE"
);
},
{
closed = 1;
nodes = (
"173 0 LINE",
"350 269 LINE",
"360 269 LINE",
"655 720 LINE",
"497 720 LINE",
"360 511 LINE",
"350 511 LINE",
"15 0 LINE"
);
}
);
width = 710;
}
);
leftKerningGroup = X;
rightKerningGroup = X;
unicode = 0058;
},
{
glyphname = Y;
lastChange = "2025-12-24 17:11:11 +0000";
layers = (
{
anchors = (
{
name = bottom;
position = "{290, 0}";
},
{
name = top;
position = "{290, 720}";
},
{
name = topleft;
position = "{20, 700}";
}
);
hints = (
{
horizontal = 1;
origin = "{1, 3}";
target = up;
type = BottomGhost;
},
{
horizontal = 1;
origin = "{2, 4}";
target = down;
type = TopGhost;
},
{
origin = "{1, 3}";
target = "{1, 0}";
type = Stem;
}
);
layerId = "05246BF3-0764-4143-87C4-5D2B296D3790";
paths = (
{
closed = 1;
nodes = (
"335 300 LINE",
"560 720 LINE",
"465 720 LINE",
"292 390 LINE",
"288 390 LINE",
"245 300 LINE"
);
},
{
closed = 1;
nodes = (
"335 0 LINE",
"335 310 LINE",
"245 310 LINE",
"245 0 LINE"
);
},
{
closed = 1;
nodes = (
"335 300 LINE",
"292 390 LINE",
"288 390 LINE",
"115 720 LINE",
"20 720 LINE",
"245 300 LINE"
);
}
);
width = 580;
},
{
anchors = (
{
name = bottom;
position = "{310, 0}";
},
{
name = top;
position = "{310, 720}";
},
{
name = topleft;
position = "{40, 700}";
}
);
hints = (
{
horizontal = 1;
origin = "{1, 3}";
target = up;
type = BottomGhost;
},
{
horizontal = 1;
origin = "{2, 4}";
target = down;
type = TopGhost;
},
{
origin = "{1, 3}";
target = "{1, 0}";
type = Stem;
}
);
layerId = "B51EB05F-9FBB-4087-814F-400611B2D4B0";
paths = (
{
closed = 1;
nodes = (
"385 300 LINE",
"610 720 LINE",
"460 720 LINE",
"315 444 LINE",
"305 444 LINE",
"235 300 LINE"
);
},
{
closed = 1;
nodes = (
"385 0 LINE",
"385 310 LINE",
"235 310 LINE",
"235 0 LINE"
);
},
{
closed = 1;
nodes = (
"385 300 LINE",
"315 444 LINE",
"305 444 LINE",
"160 720 LINE",
"10 720 LINE",
"235 300 LINE"
);
}
);
width = 620;
}
);
leftKerningGroup = Y;
rightKerningGroup = Y;
unicode = 0059;
},
{
glyphname = Z;
lastChange = "2025-12-24 17:11:11 +0000";
layers = (
{
anchors = (
{
name = bottom;
position = "{278, 0}";
},
{
name = center;
position = "{278, 350}";
},
{
name = top;
position = "{278, 700}";
}
);
hints = (
{
horizontal = 1;
origin = "{1, 3}";
target = "{0, 3}";
type = Stem;
},
{
horizontal = 1;
origin = "{2, 2}";
target = "{2, 3}";
type = Stem;
}
);
layerId = "05246BF3-0764-4143-87C4-5D2B296D3790";
paths = (
{
closed = 1;
nodes = (
"140 80 LINE",
"515 640 LINE",
"415 640 LINE",
"40 80 LINE"
);
},
{
closed = 1;
nodes = (
"515 0 LINE",
"515 80 LINE",
"40 80 LINE",
"40 0 LINE"
);
},
{
closed = 1;
nodes = (
"515 640 LINE",
"515 720 LINE",
"45 720 LINE",
"45 640 LINE"
);
}
);
width = 555;
},
{
anchors = (
{
name = bottom;
position = "{298, 0}";
},
{
name = center;
position = "{298, 350}";
},
{
name = top;
position = "{300, 720}";
}
);
hints = (
{
horizontal = 1;
origin = "{1, 3}";
target = "{0, 3}";
type = Stem;
},
{
horizontal = 1;
origin = "{2, 2}";
target = "{2, 3}";
type = Stem;
}
);
layerId = "B51EB05F-9FBB-4087-814F-400611B2D4B0";
paths = (
{
closed = 1;
nodes = (
"200 120 LINE",
"565 600 LINE",
"395 600 LINE",
"30 120 LINE"
);
},
{
closed = 1;
nodes = (
"565 0 LINE",
"565 120 LINE",
"30 120 LINE",
"30 0 LINE"
);
},
{
closed = 1;
nodes = (
"565 600 LINE",
"565 720 LINE",
"35 720 LINE",
"35 600 LINE"
);
}
);
width = 595;
}
);
leftKerningGroup = Z;
rightKerningGroup = Z;
unicode = 005A;
},
{
glyphname = a;
lastChange = "2025-12-24 17:11:11 +0000";
layers = (
{
anchors = (
{
name = bottom;
position = "{420, 13}";
},
{
name = top;
position = "{255, 530}";
}
);
hints = (
{
horizontal = 1;
origin = "{2, 9}";
target = "{2, 2}";
type = Stem;
},
{
horizontal = 1;
origin = "{1, 16}";
target = "{1, 13}";
type = Stem;
},
{
horizontal = 1;
origin = "{0, 4}";
target = "{0, 11}";
type = Stem;
},
{
horizontal = 1;
origin = "{1, 7}";
target = "{1, 22}";
type = Stem;
},
{
origin = "{1, 19}";
target = "{1, 10}";
type = Stem;
},
{
origin = "{0, 15}";
target = "{0, 0}";
type = Stem;
}
);
layerId = "05246BF3-0764-4143-87C4-5D2B296D3790";
paths = (
{
closed = 1;
nodes = (
"464 90 LINE",
"464 300 LINE SMOOTH",
"464 450 OFFCURVE",
"414 530 OFFCURVE",
"255 530 CURVE SMOOTH",
"148 530 OFFCURVE",
"73 475 OFFCURVE",
"53 385 CURVE",
"148 385 LINE",
"158 425 OFFCURVE",
"202 450 OFFCURVE",
"255 450 CURVE SMOOTH",
"365 450 OFFCURVE",
"380 400 OFFCURVE",
"380 310 CURVE SMOOTH",
"380 90 LINE"
);
},
{
closed = 1;
nodes = (
"285 -10 OFFCURVE",
"340 30 OFFCURVE",
"370 90 CURVE",
"380 90 LINE",
"380 210 LINE",
"380 120 OFFCURVE",
"305 70 OFFCURVE",
"215 70 CURVE SMOOTH",
"165 70 OFFCURVE",
"120 100 OFFCURVE",
"120 150 CURVE SMOOTH",
"120 200 OFFCURVE",
"155 230 OFFCURVE",
"245 230 CURVE SMOOTH",
"380 230 LINE",
"380 300 LINE",
"235 300 LINE SMOOTH",
"85 300 OFFCURVE",
"30 230 OFFCURVE",
"30 150 CURVE SMOOTH",
"30 70 OFFCURVE",
"85 -10 OFFCURVE",
"195 -10 CURVE SMOOTH"
);
},
{
closed = 1;
nodes = (
"510 0 LINE",
"510 80 LINE",
"494 80 LINE SMOOTH",
"474 80 OFFCURVE",
"464 90 OFFCURVE",
"464 120 CURVE",
"380 90 LINE",
"380 20 OFFCURVE",
"430 0 OFFCURVE",
"480 0 CURVE SMOOTH"
);
}
);
width = 530;
},
{
anchors = (
{
name = bottom;
position = "{399, 20}";
},
{
name = top;
position = "{265, 540}";
}
);
hints = (
{
horizontal = 1;
origin = "{2, 9}";
target = "{2, 2}";
type = Stem;
},
{
horizontal = 1;
origin = "{1, 13}";
target = "{1, 16}";
type = Stem;
},
{
horizontal = 1;
origin = "{0, 4}";
target = "{0, 11}";
type = Stem;
},
{
horizontal = 1;
origin = "{1, 22}";
target = "{1, 7}";
type = Stem;
},
{
horizontal = 1;
origin = "{0, 4}";
target = "{0, 7}";
type = Stem;
},
{
origin = "{0, 15}";
target = "{0, 0}";
type = Stem;
},
{
origin = "{1, 19}";
target = "{1, 10}";
type = Stem;
}
);
layerId = "B51EB05F-9FBB-4087-814F-400611B2D4B0";
paths = (
{
closed = 1;
nodes = (
"504 120 LINE",
"504 300 LINE SMOOTH",
"504 449 OFFCURVE",
"424 540 OFFCURVE",
"265 540 CURVE SMOOTH",
"138 540 OFFCURVE",
"58 475 OFFCURVE",
"38 365 CURVE",
"183 365 LINE",
"191 395 OFFCURVE",
"212 427 OFFCURVE",
"265 430 CURVE SMOOTH",
"345 434 OFFCURVE",
"370 390 OFFCURVE",
"370 310 CURVE SMOOTH",
"370 70 LINE"
);
},
{
closed = 1;
nodes = (
"285 -10 OFFCURVE",
"330 20 OFFCURVE",
"360 70 CURVE",
"370 70 LINE",
"370 220 LINE",
"370 130 OFFCURVE",
"305 100 OFFCURVE",
"225 100 CURVE SMOOTH",
"185 100 OFFCURVE",
"160 125 OFFCURVE",
"160 155 CURVE SMOOTH",
"160 185 OFFCURVE",
"175 220 OFFCURVE",
"255 220 CURVE SMOOTH",
"370 220 LINE",
"370 310 LINE",
"245 310 LINE SMOOTH",
"85 310 OFFCURVE",
"20 240 OFFCURVE",
"20 150 CURVE SMOOTH",
"20 60 OFFCURVE",
"75 -10 OFFCURVE",
"205 -10 CURVE SMOOTH"
);
},
{
closed = 1;
nodes = (
"550 0 LINE",
"550 110 LINE",
"534 110 LINE",
"514 110 OFFCURVE",
"504 120 OFFCURVE",
"504 150 CURVE",
"370 70 LINE",
"370 30 OFFCURVE",
"410 0 OFFCURVE",
"460 0 CURVE"
);
}
);
width = 560;
}
);
leftKerningGroup = a;
rightKerningGroup = a;
unicode = 0061;
},
{
glyphname = ae;
lastChange = "2025-12-24 17:11:11 +0000";
layers = (
{
hints = (
{
horizontal = 1;
origin = "{1, 22}";
target = "{1, 7}";
type = Stem;
},
{
horizontal = 1;
origin = "{1, 13}";
target = "{1, 16}";
type = Stem;
},
{
horizontal = 1;
origin = "{0, 4}";
target = "{0, 11}";
type = Stem;
},
{
origin = "{1, 19}";
target = "{1, 10}";
type = Stem;
},
{
place = "{395, 92}";
type = Stem;
},
{
origin = "{2, 18}";
target = "{2, 22}";
type = Stem;
},
{
place = "{395, 91}";
type = Stem;
}
);
layerId = "05246BF3-0764-4143-87C4-5D2B296D3790";
paths = (
{
closed = 1;
nodes = (
"479 90 LINE",
"479 300 LINE SMOOTH",
"479 450 OFFCURVE",
"429 530 OFFCURVE",
"270 530 CURVE SMOOTH",
"163 530 OFFCURVE",
"88 475 OFFCURVE",
"68 385 CURVE",
"163 385 LINE",
"173 425 OFFCURVE",
"217 450 OFFCURVE",
"270 450 CURVE SMOOTH",
"380 450 OFFCURVE",
"395 390 OFFCURVE",
"395 300 CURVE SMOOTH",
"395 90 LINE"
);
},
{
closed = 1;
nodes = (
"300 -10 OFFCURVE",
"400 30 OFFCURVE",
"430 90 CURVE",
"440 90 LINE",
"395 210 LINE",
"395 120 OFFCURVE",
"320 70 OFFCURVE",
"230 70 CURVE SMOOTH",
"180 70 OFFCURVE",
"135 100 OFFCURVE",
"135 150 CURVE SMOOTH",
"135 200 OFFCURVE",
"170 230 OFFCURVE",
"260 230 CURVE SMOOTH",
"395 230 LINE",
"395 300 LINE",
"250 300 LINE SMOOTH",
"100 300 OFFCURVE",
"45 230 OFFCURVE",
"45 150 CURVE SMOOTH",
"45 70 OFFCURVE",
"100 -10 OFFCURVE",
"210 -10 CURVE SMOOTH"
);
},
{
closed = 1;
nodes = (
"738 -10 OFFCURVE",
"802 51 OFFCURVE",
"839 135 CURVE",
"743 135 LINE",
"717 94 OFFCURVE",
"695 70 OFFCURVE",
"635 70 CURVE SMOOTH",
"525 70 OFFCURVE",
"485 160 OFFCURVE",
"485 260 CURVE SMOOTH",
"485 360 OFFCURVE",
"525 450 OFFCURVE",
"635 450 CURVE SMOOTH",
"745 450 OFFCURVE",
"770 360 OFFCURVE",
"770 260 CURVE SMOOTH",
"770 248 OFFCURVE",
"769 241 OFFCURVE",
"768 230 CURVE",
"859 230 LINE",
"860 242 OFFCURVE",
"860 248 OFFCURVE",
"860 260 CURVE SMOOTH",
"860 420 OFFCURVE",
"785 530 OFFCURVE",
"635 530 CURVE SMOOTH",
"485 530 OFFCURVE",
"395 420 OFFCURVE",
"395 260 CURVE SMOOTH",
"395 100 OFFCURVE",
"485 -10 OFFCURVE",
"635 -10 CURVE SMOOTH"
);
},
{
closed = 1;
nodes = (
"810 230 LINE",
"810 300 LINE",
"440 300 LINE",
"440 230 LINE"
);
}
);
width = 916;
},
{
hints = (
{
horizontal = 1;
origin = "{1, 22}";
target = "{1, 7}";
type = Stem;
},
{
horizontal = 1;
origin = "{1, 13}";
target = "{1, 16}";
type = Stem;
},
{
horizontal = 1;
origin = "{0, 4}";
target = "{0, 11}";
type = Stem;
},
{
origin = "{1, 19}";
target = "{1, 10}";
type = Stem;
},
{
place = "{380, 152}";
type = Stem;
},
{
place = "{739, 151}";
type = Stem;
}
);
layerId = "B51EB05F-9FBB-4087-814F-400611B2D4B0";
paths = (
{
closed = 1;
nodes = (
"514 120 LINE",
"514 300 LINE SMOOTH",
"514 449 OFFCURVE",
"434 540 OFFCURVE",
"275 540 CURVE SMOOTH",
"148 540 OFFCURVE",
"68 475 OFFCURVE",
"48 365 CURVE",
"193 365 LINE",
"203 395 OFFCURVE",
"222 430 OFFCURVE",
"275 430 CURVE SMOOTH",
"365 430 OFFCURVE",
"380 380 OFFCURVE",
"380 310 CURVE SMOOTH",
"380 110 LINE"
);
},
{
closed = 1;
nodes = (
"295 -10 OFFCURVE",
"405 20 OFFCURVE",
"435 70 CURVE",
"445 70 LINE",
"380 220 LINE",
"380 130 OFFCURVE",
"315 100 OFFCURVE",
"235 100 CURVE SMOOTH",
"195 100 OFFCURVE",
"170 125 OFFCURVE",
"170 155 CURVE SMOOTH",
"170 185 OFFCURVE",
"185 220 OFFCURVE",
"265 220 CURVE SMOOTH",
"380 220 LINE",
"380 310 LINE",
"255 310 LINE SMOOTH",
"95 310 OFFCURVE",
"30 240 OFFCURVE",
"30 150 CURVE SMOOTH",
"30 60 OFFCURVE",
"85 -10 OFFCURVE",
"215 -10 CURVE SMOOTH"
);
},
{
closed = 1;
nodes = (
"763 -10 OFFCURVE",
"851 61 OFFCURVE",
"878 145 CURVE",
"728 145 LINE",
"702 114 OFFCURVE",
"690 100 OFFCURVE",
"640 100 CURVE SMOOTH",
"550 100 OFFCURVE",
"530 185 OFFCURVE",
"530 265 CURVE SMOOTH",
"530 345 OFFCURVE",
"550 430 OFFCURVE",
"640 430 CURVE SMOOTH",
"730 430 OFFCURVE",
"740 355 OFFCURVE",
"740 265 CURVE SMOOTH",
"740 253 OFFCURVE",
"739 231 OFFCURVE",
"738 220 CURVE",
"889 220 LINE",
"889 231 OFFCURVE",
"890 253 OFFCURVE",
"890 265 CURVE SMOOTH",
"890 435 OFFCURVE",
"800 540 OFFCURVE",
"640 540 CURVE SMOOTH",
"480 540 OFFCURVE",
"380 435 OFFCURVE",
"380 265 CURVE SMOOTH",
"380 95 OFFCURVE",
"480 -10 OFFCURVE",
"640 -10 CURVE SMOOTH"
);
},
{
closed = 1;
nodes = (
"820 220 LINE",
"820 310 LINE",
"445 310 LINE",
"445 220 LINE"
);
}
);
width = 916;
}
);
leftKerningGroup = a;
rightKerningGroup = e;
unicode = 00E6;
},
{
glyphname = b;
lastChange = "2025-12-24 17:11:11 +0000";
layers = (
{
anchors = (
{
name = bottom;
position = "{325, 0}";
},
{
name = top;
position = "{325, 780}";
}
);
hints = (
{
horizontal = 1;
origin = "{1, 11}";
target = "{0, 18}";
type = Stem;
},
{
horizontal = 1;
origin = "{0, 5}";
target = "{1, 5}";
type = Stem;
},
{
horizontal = 1;
origin = "{0, 11}";
target = down;
type = TopGhost;
},
{
horizontal = 1;
origin = "{0, 12}";
target = up;
type = BottomGhost;
},
{
origin = "{0, 12}";
target = "{0, 13}";
type = Stem;
},
{
origin = "{1, 8}";
target = "{0, 2}";
type = Stem;
},
{
origin = "{0, 12}";
target = "{1, 2}";
type = Stem;
}
);
layerId = "05246BF3-0764-4143-87C4-5D2B296D3790";
paths = (
{
closed = 1;
nodes = (
"480 -10 OFFCURVE",
"570 100 OFFCURVE",
"570 260 CURVE SMOOTH",
"570 420 OFFCURVE",
"480 530 OFFCURVE",
"350 530 CURVE SMOOTH",
"270 530 OFFCURVE",
"205 490 OFFCURVE",
"175 420 CURVE",
"165 420 LINE",
"165 720 LINE",
"75 720 LINE",
"75 0 LINE",
"165 0 LINE",
"165 100 LINE",
"175 100 LINE",
"205 30 OFFCURVE",
"270 -10 OFFCURVE",
"350 -10 CURVE SMOOTH"
);
},
{
closed = 1;
nodes = (
"240 70 OFFCURVE",
"170 130 OFFCURVE",
"170 260 CURVE SMOOTH",
"170 390 OFFCURVE",
"240 450 OFFCURVE",
"330 450 CURVE SMOOTH",
"420 450 OFFCURVE",
"480 390 OFFCURVE",
"480 260 CURVE SMOOTH",
"480 130 OFFCURVE",
"420 70 OFFCURVE",
"330 70 CURVE SMOOTH"
);
}
);
width = 615;
},
{
anchors = (
{
name = bottom;
position = "{325, 0}";
},
{
name = top;
position = "{325, 780}";
}
);
hints = (
{
horizontal = 1;
origin = "{0, 18}";
target = "{1, 11}";
type = Stem;
},
{
horizontal = 1;
origin = "{0, 5}";
target = "{1, 5}";
type = Stem;
},
{
horizontal = 1;
origin = "{0, 11}";
target = down;
type = TopGhost;
},
{
horizontal = 1;
origin = "{0, 12}";
target = "{1, 11}";
type = Stem;
},
{
origin = "{0, 12}";
target = "{0, 13}";
type = Stem;
},
{
origin = "{1, 8}";
target = "{0, 2}";
type = Stem;
},
{
origin = "{0, 12}";
target = "{1, 2}";
type = Stem;
}
);
layerId = "B51EB05F-9FBB-4087-814F-400611B2D4B0";
paths = (
{
closed = 1;
nodes = (
"515 -10 OFFCURVE",
"605 95 OFFCURVE",
"605 265 CURVE SMOOTH",
"605 435 OFFCURVE",
"515 540 OFFCURVE",
"375 540 CURVE SMOOTH",
"295 540 OFFCURVE",
"250 500 OFFCURVE",
"220 450 CURVE",
"210 450 LINE",
"210 720 LINE",
"60 720 LINE",
"60 0 LINE",
"210 0 LINE",
"210 80 LINE",
"220 80 LINE",
"250 30 OFFCURVE",
"295 -10 OFFCURVE",
"375 -10 CURVE SMOOTH"
);
},
{
closed = 1;
nodes = (
"255 100 OFFCURVE",
"215 165 OFFCURVE",
"215 265 CURVE SMOOTH",
"215 365 OFFCURVE",
"255 430 OFFCURVE",
"335 430 CURVE SMOOTH",
"415 430 OFFCURVE",
"455 365 OFFCURVE",
"455 265 CURVE SMOOTH",
"455 165 OFFCURVE",
"415 100 OFFCURVE",
"335 100 CURVE SMOOTH"
);
}
);
width = 635;
}
);
leftKerningGroup = I;
rightKerningGroup = o;
unicode = 0062;
},
{
glyphname = c;
lastChange = "2025-12-24 17:11:11 +0000";
layers = (
{
anchors = (
{
name = bottom;
position = "{285, 0}";
},
{
name = top;
position = "{285, 530}";
}
);
hints = (
{
horizontal = 1;
origin = "{0, 6}";
target = "{0, 25}";
type = Stem;
},
{
horizontal = 1;
origin = "{0, 19}";
target = "{0, 12}";
type = Stem;
},
{
origin = "{0, 22}";
target = "{0, 9}";
type = Stem;
}
);
layerId = "05246BF3-0764-4143-87C4-5D2B296D3790";
paths = (
{
closed = 1;
nodes = (
"395 -10 OFFCURVE",
"475 50 OFFCURVE",
"505 160 CURVE",
"415 160 LINE",
"395 100 OFFCURVE",
"355 70 OFFCURVE",
"285 70 CURVE SMOOTH",
"175 70 OFFCURVE",
"135 160 OFFCURVE",
"135 260 CURVE SMOOTH",
"135 360 OFFCURVE",
"175 450 OFFCURVE",
"285 450 CURVE SMOOTH",
"355 450 OFFCURVE",
"395 420 OFFCURVE",
"415 360 CURVE",
"505 360 LINE",
"475 470 OFFCURVE",
"395 530 OFFCURVE",
"285 530 CURVE SMOOTH",
"135 530 OFFCURVE",
"45 420 OFFCURVE",
"45 260 CURVE SMOOTH",
"45 100 OFFCURVE",
"135 -10 OFFCURVE",
"285 -10 CURVE SMOOTH"
);
}
);
width = 550;
},
{
anchors = (
{
name = bottom;
position = "{290, 0}";
},
{
name = top;
position = "{290, 540}";
}
);
hints = (
{
horizontal = 1;
origin = "{0, 25}";
target = "{0, 6}";
type = Stem;
},
{
horizontal = 1;
origin = "{0, 19}";
target = "{0, 12}";
type = Stem;
},
{
origin = "{0, 22}";
target = "{0, 9}";
type = Stem;
}
);
layerId = "B51EB05F-9FBB-4087-814F-400611B2D4B0";
paths = (
{
closed = 1;
nodes = (
"420 -10 OFFCURVE",
"510 60 OFFCURVE",
"540 180 CURVE",
"390 180 LINE",
"380 140 OFFCURVE",
"360 100 OFFCURVE",
"290 100 CURVE SMOOTH",
"200 100 OFFCURVE",
"180 185 OFFCURVE",
"180 265 CURVE SMOOTH",
"180 345 OFFCURVE",
"200 430 OFFCURVE",
"290 430 CURVE SMOOTH",
"360 430 OFFCURVE",
"380 390 OFFCURVE",
"390 350 CURVE",
"540 350 LINE",
"510 470 OFFCURVE",
"420 540 OFFCURVE",
"290 540 CURVE SMOOTH",
"130 540 OFFCURVE",
"30 435 OFFCURVE",
"30 265 CURVE SMOOTH",
"30 95 OFFCURVE",
"130 -10 OFFCURVE",
"290 -10 CURVE SMOOTH"
);
}
);
width = 570;
}
);
leftKerningGroup = o;
rightKerningGroup = c;
unicode = 0063;
},
{
glyphname = d;
lastChange = "2025-12-24 17:11:12 +0000";
layers = (
{
anchors = (
{
name = bottom;
position = "{265, 0}";
},
{
name = center;
position = "{270, 260}";
},
{
name = top;
position = "{265, 520}";
},
{
name = topright;
position = "{550, 520}";
}
);
hints = (
{
horizontal = 1;
origin = "{1, 11}";
target = "{0, 18}";
type = Stem;
},
{
horizontal = 1;
origin = "{0, 12}";
target = "{1, 5}";
type = Stem;
},
{
horizontal = 1;
origin = "{0, 7}";
target = down;
type = TopGhost;
},
{
horizontal = 1;
origin = "{0, 4}";
target = up;
type = BottomGhost;
},
{
origin = "{0, 15}";
target = "{1, 2}";
type = Stem;
},
{
origin = "{0, 4}";
target = "{0, 5}";
type = Stem;
},
{
origin = "{1, 8}";
target = "{0, 5}";
type = Stem;
}
);
layerId = "05246BF3-0764-4143-87C4-5D2B296D3790";
paths = (
{
closed = 1;
nodes = (
"345 -10 OFFCURVE",
"410 30 OFFCURVE",
"440 100 CURVE",
"450 100 LINE",
"450 0 LINE",
"540 0 LINE",
"540 720 LINE",
"450 720 LINE",
"450 420 LINE",
"440 420 LINE",
"410 490 OFFCURVE",
"345 530 OFFCURVE",
"265 530 CURVE SMOOTH",
"135 530 OFFCURVE",
"45 420 OFFCURVE",
"45 260 CURVE SMOOTH",
"45 100 OFFCURVE",
"135 -10 OFFCURVE",
"265 -10 CURVE SMOOTH"
);
},
{
closed = 1;
nodes = (
"195 70 OFFCURVE",
"135 130 OFFCURVE",
"135 260 CURVE SMOOTH",
"135 390 OFFCURVE",
"195 450 OFFCURVE",
"285 450 CURVE SMOOTH",
"375 450 OFFCURVE",
"445 390 OFFCURVE",
"445 260 CURVE SMOOTH",
"445 130 OFFCURVE",
"375 70 OFFCURVE",
"285 70 CURVE SMOOTH"
);
}
);
width = 615;
},
{
anchors = (
{
name = bottom;
position = "{285, 0}";
},
{
name = center;
position = "{285, 260}";
},
{
name = top;
position = "{235, 530}";
},
{
name = topright;
position = "{565, 520}";
}
);
hints = (
{
horizontal = 1;
origin = "{0, 18}";
target = "{1, 11}";
type = Stem;
},
{
horizontal = 1;
origin = "{0, 12}";
target = "{1, 5}";
type = Stem;
},
{
horizontal = 1;
origin = "{0, 7}";
target = down;
type = TopGhost;
},
{
horizontal = 1;
origin = "{0, 4}";
target = "{1, 11}";
type = Stem;
},
{
origin = "{0, 15}";
target = "{1, 2}";
type = Stem;
},
{
origin = "{0, 4}";
target = "{0, 5}";
type = Stem;
},
{
origin = "{1, 8}";
target = "{0, 5}";
type = Stem;
}
);
layerId = "B51EB05F-9FBB-4087-814F-400611B2D4B0";
paths = (
{
closed = 1;
nodes = (
"340 -10 OFFCURVE",
"385 30 OFFCURVE",
"415 80 CURVE",
"425 80 LINE",
"425 0 LINE",
"575 0 LINE",
"575 720 LINE",
"425 720 LINE",
"425 450 LINE",
"415 450 LINE",
"385 500 OFFCURVE",
"340 540 OFFCURVE",
"260 540 CURVE SMOOTH",
"120 540 OFFCURVE",
"30 435 OFFCURVE",
"30 265 CURVE SMOOTH",
"30 95 OFFCURVE",
"120 -10 OFFCURVE",
"260 -10 CURVE SMOOTH"
);
},
{
closed = 1;
nodes = (
"220 100 OFFCURVE",
"180 165 OFFCURVE",
"180 265 CURVE SMOOTH",
"180 365 OFFCURVE",
"220 430 OFFCURVE",
"300 430 CURVE SMOOTH",
"380 430 OFFCURVE",
"420 365 OFFCURVE",
"420 265 CURVE SMOOTH",
"420 165 OFFCURVE",
"380 100 OFFCURVE",
"300 100 CURVE SMOOTH"
);
}
);
width = 635;
}
);
leftKerningGroup = o;
rightKerningGroup = I;
unicode = 0064;
},
{
glyphname = eth;
lastChange = "2025-12-24 17:11:12 +0000";
layers = (
{
hints = (
{
horizontal = 1;
origin = "{0, 14}";
target = "{1, 11}";
type = Stem;
},
{
horizontal = 1;
origin = "{1, 5}";
target = "{0, 8}";
type = Stem;
},
{
horizontal = 1;
origin = "{2, 3}";
target = down;
type = TopGhost;
},
{
origin = "{0, 11}";
target = "{1, 2}";
type = Stem;
},
{
origin = "{1, 8}";
target = "{0, 2}";
type = Stem;
}
);
layerId = "05246BF3-0764-4143-87C4-5D2B296D3790";
paths = (
{
closed = 1;
nodes = (
"445 -10 OFFCURVE",
"530 80 OFFCURVE",
"530 300 CURVE",
"495 355 LINE",
"450 380 LINE",
"440 380 LINE",
"410 450 OFFCURVE",
"345 490 OFFCURVE",
"265 490 CURVE SMOOTH",
"135 490 OFFCURVE",
"50 390 OFFCURVE",
"50 240 CURVE SMOOTH",
"50 90 OFFCURVE",
"135 -10 OFFCURVE",
"265 -10 CURVE SMOOTH"
);
},
{
closed = 1;
nodes = (
"195 70 OFFCURVE",
"140 140 OFFCURVE",
"140 240 CURVE SMOOTH",
"140 340 OFFCURVE",
"195 410 OFFCURVE",
"285 410 CURVE SMOOTH",
"365 410 OFFCURVE",
"435 340 OFFCURVE",
"435 240 CURVE SMOOTH",
"435 140 OFFCURVE",
"365 70 OFFCURVE",
"285 70 CURVE SMOOTH"
);
},
{
closed = 1;
nodes = (
"530 300 LINE",
"530 680 OFFCURVE",
"130 730 OFFCURVE",
"130 730 CURVE",
"130 650 LINE",
"130 650 OFFCURVE",
"390 620 OFFCURVE",
"450 380 CURVE",
"450 240 LINE"
);
},
{
closed = 1;
nodes = (
"445 670 LINE",
"445 740 LINE",
"150 590 LINE",
"150 520 LINE"
);
}
);
width = 580;
},
{
hints = (
{
horizontal = 1;
origin = "{0, 14}";
target = "{1, 11}";
type = Stem;
},
{
horizontal = 1;
origin = "{1, 5}";
target = "{0, 8}";
type = Stem;
},
{
horizontal = 1;
origin = "{2, 4}";
target = "{2, 3}";
type = Stem;
},
{
origin = "{0, 11}";
target = "{1, 2}";
type = Stem;
},
{
origin = "{1, 8}";
target = "{0, 2}";
type = Stem;
}
);
layerId = "B51EB05F-9FBB-4087-814F-400611B2D4B0";
paths = (
{
closed = 1;
nodes = (
"455 -10 OFFCURVE",
"550 80 OFFCURVE",
"550 300 CURVE",
"495 355 LINE",
"440 390 LINE",
"430 390 LINE",
"400 460 OFFCURVE",
"335 490 OFFCURVE",
"265 490 CURVE SMOOTH",
"125 490 OFFCURVE",
"30 400 OFFCURVE",
"30 240 CURVE SMOOTH",
"30 80 OFFCURVE",
"125 -10 OFFCURVE",
"265 -10 CURVE SMOOTH"
);
},
{
closed = 1;
nodes = (
"215 100 OFFCURVE",
"180 150 OFFCURVE",
"180 240 CURVE SMOOTH",
"180 330 OFFCURVE",
"215 380 OFFCURVE",
"285 380 CURVE SMOOTH",
"345 380 OFFCURVE",
"395 330 OFFCURVE",
"395 240 CURVE SMOOTH",
"395 150 OFFCURVE",
"345 100 OFFCURVE",
"285 100 CURVE SMOOTH"
);
},
{
closed = 1;
nodes = (
"550 300 LINE",
"550 710 OFFCURVE",
"130 740 OFFCURVE",
"130 740 CURVE",
"130 630 LINE",
"130 630 OFFCURVE",
"380 600 OFFCURVE",
"440 390 CURVE",
"440 240 LINE"
);
},
{
closed = 1;
nodes = (
"455 660 LINE",
"455 740 LINE",
"140 580 LINE",
"140 500 LINE"
);
}
);
width = 580;
}
);
leftKerningGroup = a.alt01;
rightKerningGroup = o;
unicode = 00F0;
},
{
glyphname = dcaron;
lastChange = "2025-12-24 17:11:12 +0000";
layers = (
{
anchors = (
{
name = bottom;
position = "{265, 0}";
},
{
name = center;
position = "{270, 260}";
},
{
name = top;
position = "{265, 520}";
},
{
name = topright;
position = "{550, 520}";
}
);
hints = (
{
horizontal = 1;
origin = "{1, 11}";
target = "{0, 18}";
type = Stem;
},
{
horizontal = 1;
origin = "{0, 12}";
target = "{1, 5}";
type = Stem;
},
{
horizontal = 1;
origin = "{0, 7}";
target = "{3, 3}";
type = Stem;
},
{
horizontal = 1;
origin = "{0, 4}";
target = up;
type = BottomGhost;
},
{
horizontal = 1;
origin = "{0, 12}";
target = "{2, 7}";
type = Stem;
},
{
origin = "{0, 15}";
target = "{1, 2}";
type = Stem;
},
{
origin = "{0, 4}";
target = "{0, 5}";
type = Stem;
},
{
origin = "{3, 3}";
target = "{2, 2}";
type = Stem;
},
{
origin = "{2, 3}";
target = "{2, 2}";
type = Stem;
},
{
origin = "{1, 8}";
target = "{0, 5}";
type = Stem;
}
);
layerId = "05246BF3-0764-4143-87C4-5D2B296D3790";
paths = (
{
closed = 1;
nodes = (
"345 -10 OFFCURVE",
"410 30 OFFCURVE",
"440 100 CURVE",
"450 100 LINE",
"450 0 LINE",
"540 0 LINE",
"540 720 LINE",
"450 720 LINE",
"450 420 LINE",
"440 420 LINE",
"410 490 OFFCURVE",
"345 530 OFFCURVE",
"265 530 CURVE SMOOTH",
"135 530 OFFCURVE",
"45 420 OFFCURVE",
"45 260 CURVE SMOOTH",
"45 100 OFFCURVE",
"135 -10 OFFCURVE",
"265 -10 CURVE SMOOTH"
);
},
{
closed = 1;
nodes = (
"195 70 OFFCURVE",
"135 130 OFFCURVE",
"135 260 CURVE SMOOTH",
"135 390 OFFCURVE",
"195 450 OFFCURVE",
"285 450 CURVE SMOOTH",
"375 450 OFFCURVE",
"445 390 OFFCURVE",
"445 260 CURVE SMOOTH",
"445 130 OFFCURVE",
"375 70 OFFCURVE",
"285 70 CURVE SMOOTH"
);
},
{
closed = 1;
nodes = (
"630 500 OFFCURVE",
"670 556 OFFCURVE",
"670 626 CURVE",
"620 626 LINE",
"620 586 OFFCURVE",
"610 540 OFFCURVE",
"570 530 CURVE",
"570 500 LINE"
);
},
{
closed = 1;
nodes = (
"670 626 LINE",
"670 720 LINE",
"580 720 LINE",
"580 626 LINE"
);
}
);
width = 630;
},
{
anchors = (
{
name = bottom;
position = "{285, 0}";
},
{
name = center;
position = "{285, 260}";
},
{
name = top;
position = "{235, 530}";
},
{
name = topright;
position = "{565, 520}";
}
);
hints = (
{
horizontal = 1;
origin = "{2, 6}";
target = "{2, 7}";
type = Stem;
},
{
horizontal = 1;
origin = "{3, 2}";
target = "{3, 3}";
type = Stem;
},
{
origin = "{2, 7}";
target = "{2, 2}";
type = Stem;
},
{
origin = "{2, 3}";
target = "{2, 2}";
type = Stem;
},
{
horizontal = 1;
origin = "{0, 18}";
target = "{1, 11}";
type = Stem;
},
{
horizontal = 1;
origin = "{0, 12}";
target = "{1, 5}";
type = Stem;
},
{
horizontal = 1;
origin = "{0, 7}";
target = down;
type = TopGhost;
},
{
horizontal = 1;
origin = "{0, 4}";
target = "{1, 11}";
type = Stem;
},
{
origin = "{0, 15}";
target = "{1, 2}";
type = Stem;
},
{
origin = "{0, 4}";
target = "{0, 5}";
type = Stem;
},
{
origin = "{1, 8}";
target = "{0, 5}";
type = Stem;
}
);
layerId = "B51EB05F-9FBB-4087-814F-400611B2D4B0";
paths = (
{
closed = 1;
nodes = (
"340 -10 OFFCURVE",
"385 30 OFFCURVE",
"415 80 CURVE",
"425 80 LINE",
"425 0 LINE",
"575 0 LINE",
"575 720 LINE",
"425 720 LINE",
"425 450 LINE",
"415 450 LINE",
"385 500 OFFCURVE",
"340 540 OFFCURVE",
"260 540 CURVE SMOOTH",
"120 540 OFFCURVE",
"30 435 OFFCURVE",
"30 265 CURVE SMOOTH",
"30 95 OFFCURVE",
"120 -10 OFFCURVE",
"260 -10 CURVE SMOOTH"
);
},
{
closed = 1;
nodes = (
"220 100 OFFCURVE",
"180 165 OFFCURVE",
"180 265 CURVE SMOOTH",
"180 365 OFFCURVE",
"220 430 OFFCURVE",
"300 430 CURVE SMOOTH",
"380 430 OFFCURVE",
"420 365 OFFCURVE",
"420 265 CURVE SMOOTH",
"420 165 OFFCURVE",
"380 100 OFFCURVE",
"300 100 CURVE SMOOTH"
);
},
{
closed = 1;
nodes = (
"665 500 OFFCURVE",
"705 556 OFFCURVE",
"705 626 CURVE",
"645 626 LINE",
"645 586 OFFCURVE",
"645 540 OFFCURVE",
"605 530 CURVE",
"605 500 LINE"
);
},
{
closed = 1;
nodes = (
"705 626 LINE",
"705 720 LINE",
"605 720 LINE",
"605 626 LINE"
);
}
);
width = 675;
}
);
unicode = 010F;
},
{
glyphname = dcroat;
lastChange = "2025-12-24 17:11:12 +0000";
layers = (
{
components = (
{
name = d;
}
);
hints = (
{
horizontal = 1;
origin = "{0, 3}";
target = "{0, 2}";
type = Stem;
},
{
origin = "{0, 3}";
target = "{0, 0}";
type = Stem;
}
);
layerId = "05246BF3-0764-4143-87C4-5D2B296D3790";
paths = (
{
closed = 1;
nodes = (
"599 600 LINE",
"599 660 LINE",
"329 660 LINE",
"329 600 LINE"
);
}
);
width = 615;
},
{
components = (
{
name = d;
}
);
hints = (
{
horizontal = 1;
origin = "{0, 3}";
target = "{0, 2}";
type = Stem;
},
{
origin = "{0, 3}";
target = "{0, 0}";
type = Stem;
}
);
layerId = "B51EB05F-9FBB-4087-814F-400611B2D4B0";
paths = (
{
closed = 1;
nodes = (
"639 570 LINE",
"639 670 LINE",
"299 670 LINE",
"299 570 LINE"
);
}
);
width = 600;
}
);
unicode = 0111;
},
{
glyphname = e;
lastChange = "2025-12-24 17:11:12 +0000";
layers = (
{
anchors = (
{
name = bottom;
position = "{285, 9}";
},
{
name = ogonek;
position = "{508, 10}";
},
{
name = top;
position = "{285, 530}";
}
);
hints = (
{
horizontal = 1;
origin = "{0, 6}";
target = "{0, 31}";
type = Stem;
},
{
horizontal = 1;
origin = "{1, 2}";
target = "{1, 3}";
type = Stem;
},
{
horizontal = 1;
origin = "{0, 25}";
target = "{0, 12}";
type = Stem;
},
{
place = "{45, 92}";
type = Stem;
},
{
place = "{419, 91}";
type = Stem;
}
);
layerId = "05246BF3-0764-4143-87C4-5D2B296D3790";
paths = (
{
closed = 1;
nodes = (
"388 -10 OFFCURVE",
"462 41 OFFCURVE",
"499 135 CURVE",
"403 135 LINE",
"377 89 OFFCURVE",
"345 70 OFFCURVE",
"285 70 CURVE SMOOTH",
"175 70 OFFCURVE",
"135 160 OFFCURVE",
"135 260 CURVE SMOOTH",
"135 360 OFFCURVE",
"175 450 OFFCURVE",
"285 450 CURVE SMOOTH",
"395 450 OFFCURVE",
"420 360 OFFCURVE",
"420 260 CURVE SMOOTH",
"420 248 OFFCURVE",
"419 236 OFFCURVE",
"418 225 CURVE",
"509 225 LINE",
"509 236 OFFCURVE",
"510 248 OFFCURVE",
"510 260 CURVE SMOOTH",
"510 420 OFFCURVE",
"435 530 OFFCURVE",
"285 530 CURVE SMOOTH",
"135 530 OFFCURVE",
"45 420 OFFCURVE",
"45 260 CURVE SMOOTH",
"45 100 OFFCURVE",
"135 -10 OFFCURVE",
"285 -10 CURVE SMOOTH"
);
},
{
closed = 1;
nodes = (
"460 225 LINE",
"460 295 LINE",
"90 295 LINE",
"90 225 LINE"
);
}
);
width = 555;
},
{
anchors = (
{
name = bottom;
position = "{221, 1}";
},
{
name = ogonek;
position = "{513, 10}";
},
{
name = top;
position = "{290, 550}";
}
);
hints = (
{
horizontal = 1;
origin = "{0, 31}";
target = "{0, 6}";
type = Stem;
},
{
horizontal = 1;
origin = "{1, 3}";
target = "{1, 2}";
type = Stem;
},
{
horizontal = 1;
origin = "{0, 25}";
target = "{0, 12}";
type = Stem;
},
{
place = "{30, 152}";
type = Stem;
},
{
place = "{389, 151}";
type = Stem;
}
);
layerId = "B51EB05F-9FBB-4087-814F-400611B2D4B0";
paths = (
{
closed = 1;
nodes = (
"413 -10 OFFCURVE",
"501 61 OFFCURVE",
"528 145 CURVE",
"378 145 LINE",
"352 114 OFFCURVE",
"340 100 OFFCURVE",
"290 100 CURVE SMOOTH",
"200 100 OFFCURVE",
"180 185 OFFCURVE",
"180 265 CURVE SMOOTH",
"180 345 OFFCURVE",
"200 430 OFFCURVE",
"290 430 CURVE SMOOTH",
"380 430 OFFCURVE",
"390 355 OFFCURVE",
"390 265 CURVE SMOOTH",
"390 253 OFFCURVE",
"389 231 OFFCURVE",
"388 220 CURVE",
"539 220 LINE",
"539 231 OFFCURVE",
"540 253 OFFCURVE",
"540 265 CURVE SMOOTH",
"540 435 OFFCURVE",
"450 540 OFFCURVE",
"290 540 CURVE SMOOTH",
"130 540 OFFCURVE",
"30 435 OFFCURVE",
"30 265 CURVE SMOOTH",
"30 95 OFFCURVE",
"130 -10 OFFCURVE",
"290 -10 CURVE SMOOTH"
);
},
{
closed = 1;
nodes = (
"470 220 LINE",
"470 310 LINE",
"95 310 LINE",
"95 220 LINE"
);
}
);
width = 570;
}
);
leftKerningGroup = o;
rightKerningGroup = o;
unicode = 0065;
},
{
glyphname = f;
lastChange = "2025-12-24 17:11:12 +0000";
layers = (
{
anchors = (
{
name = bottom;
position = "{183, 0}";
},
{
name = top;
position = "{183, 780}";
}
);
hints = (
{
horizontal = 1;
origin = "{0, 3}";
target = up;
type = BottomGhost;
},
{
horizontal = 1;
origin = "{1, 2}";
target = "{1, 3}";
type = Stem;
},
{
horizontal = 1;
origin = "{2, 6}";
target = "{2, 3}";
type = Stem;
},
{
origin = "{0, 3}";
target = "{0, 0}";
type = Stem;
}
);
layerId = "05246BF3-0764-4143-87C4-5D2B296D3790";
paths = (
{
closed = 1;
nodes = (
"195 0 LINE",
"195 600 LINE",
"105 610 LINE",
"105 0 LINE"
);
},
{
closed = 1;
nodes = (
"320 440 LINE",
"320 520 LINE",
"30 520 LINE",
"30 440 LINE"
);
},
{
closed = 1;
nodes = (
"195 600 LINE",
"195 630 OFFCURVE",
"215 640 OFFCURVE",
"235 640 CURVE SMOOTH",
"320 640 LINE",
"320 720 LINE",
"205 720 LINE SMOOTH",
"155 720 OFFCURVE",
"105 680 OFFCURVE",
"105 610 CURVE"
);
}
);
width = 330;
},
{
anchors = (
{
name = bottom;
position = "{154, 0}";
},
{
name = top;
position = "{154, 780}";
}
);
hints = (
{
horizontal = 1;
origin = "{0, 3}";
target = up;
type = BottomGhost;
},
{
horizontal = 1;
origin = "{1, 2}";
target = "{1, 3}";
type = Stem;
},
{
horizontal = 1;
origin = "{2, 6}";
target = "{2, 3}";
type = Stem;
},
{
origin = "{0, 3}";
target = "{0, 0}";
type = Stem;
}
);
layerId = "B51EB05F-9FBB-4087-814F-400611B2D4B0";
paths = (
{
closed = 1;
nodes = (
"250 0 LINE",
"250 570 LINE",
"100 580 LINE",
"100 0 LINE"
);
},
{
closed = 1;
nodes = (
"380 420 LINE",
"380 530 LINE",
"20 530 LINE",
"20 420 LINE"
);
},
{
closed = 1;
nodes = (
"250 570 LINE",
"250 600 OFFCURVE",
"260 610 OFFCURVE",
"290 610 CURVE SMOOTH",
"380 610 LINE",
"380 720 LINE",
"250 720 LINE SMOOTH",
"170 720 OFFCURVE",
"100 670 OFFCURVE",
"100 580 CURVE"
);
}
);
width = 380;
}
);
leftKerningGroup = f;
rightKerningGroup = f;
unicode = 0066;
},
{
glyphname = g;
lastChange = "2025-12-24 17:11:12 +0000";
layers = (
{
anchors = (
{
name = bottom;
position = "{305, -210}";
},
{
name = top;
position = "{295, 530}";
}
);
hints = (
{
horizontal = 1;
origin = "{1, 6}";
target = "{1, 13}";
type = Stem;
},
{
horizontal = 1;
origin = "{2, 11}";
target = "{0, 18}";
type = Stem;
},
{
horizontal = 1;
origin = "{0, 12}";
target = "{2, 5}";
type = Stem;
},
{
horizontal = 1;
origin = "{0, 7}";
target = down;
type = TopGhost;
},
{
origin = "{0, 15}";
target = "{2, 2}";
type = Stem;
},
{
origin = "{0, 4}";
target = "{0, 5}";
type = Stem;
},
{
origin = "{2, 8}";
target = "{0, 5}";
type = Stem;
}
);
layerId = "05246BF3-0764-4143-87C4-5D2B296D3790";
paths = (
{
closed = 1;
nodes = (
"345 -10 OFFCURVE",
"410 30 OFFCURVE",
"440 100 CURVE",
"450 100 LINE",
"450 0 LINE",
"540 0 LINE",
"540 520 LINE",
"450 520 LINE",
"450 420 LINE",
"440 420 LINE",
"410 490 OFFCURVE",
"345 530 OFFCURVE",
"265 530 CURVE SMOOTH",
"125 530 OFFCURVE",
"45 430 OFFCURVE",
"45 260 CURVE SMOOTH",
"45 90 OFFCURVE",
"125 -10 OFFCURVE",
"265 -10 CURVE SMOOTH"
);
},
{
closed = 1;
nodes = (
"448 -220 OFFCURVE",
"540 -143 OFFCURVE",
"540 0 CURVE",
"450 0 LINE",
"450 -94 OFFCURVE",
"397 -140 OFFCURVE",
"305 -140 CURVE SMOOTH",
"239 -140 OFFCURVE",
"189 -110 OFFCURVE",
"169 -70 CURVE",
"74 -70 LINE",
"104 -160 OFFCURVE",
"185 -220 OFFCURVE",
"305 -220 CURVE SMOOTH"
);
},
{
closed = 1;
nodes = (
"195 70 OFFCURVE",
"135 130 OFFCURVE",
"135 260 CURVE SMOOTH",
"135 390 OFFCURVE",
"195 450 OFFCURVE",
"285 450 CURVE SMOOTH",
"375 450 OFFCURVE",
"445 390 OFFCURVE",
"445 260 CURVE SMOOTH",
"445 130 OFFCURVE",
"375 70 OFFCURVE",
"285 70 CURVE SMOOTH"
);
}
);
width = 615;
},
{
anchors = (
{
name = bottom;
position = "{295, -210}";
},
{
name = top;
position = "{290, 540}";
}
);
hints = (
{
horizontal = 1;
origin = "{1, 6}";
target = "{1, 13}";
type = Stem;
},
{
horizontal = 1;
origin = "{2, 11}";
target = "{0, 18}";
type = Stem;
},
{
horizontal = 1;
origin = "{0, 12}";
target = "{2, 5}";
type = Stem;
},
{
horizontal = 1;
origin = "{0, 7}";
target = "{2, 5}";
type = Stem;
},
{
origin = "{0, 15}";
target = "{2, 2}";
type = Stem;
},
{
origin = "{0, 4}";
target = "{0, 5}";
type = Stem;
},
{
origin = "{2, 8}";
target = "{0, 5}";
type = Stem;
}
);
layerId = "B51EB05F-9FBB-4087-814F-400611B2D4B0";
paths = (
{
closed = 1;
nodes = (
"340 -10 OFFCURVE",
"385 30 OFFCURVE",
"415 80 CURVE",
"425 80 LINE",
"425 0 LINE",
"575 0 LINE",
"575 530 LINE",
"425 530 LINE",
"425 450 LINE",
"415 450 LINE",
"385 500 OFFCURVE",
"340 540 OFFCURVE",
"260 540 CURVE SMOOTH",
"120 540 OFFCURVE",
"30 435 OFFCURVE",
"30 265 CURVE SMOOTH",
"30 95 OFFCURVE",
"120 -10 OFFCURVE",
"260 -10 CURVE SMOOTH"
);
},
{
closed = 1;
nodes = (
"435 -220 OFFCURVE",
"575 -153 OFFCURVE",
"575 0 CURVE",
"425 0 LINE",
"425 -74 OFFCURVE",
"377 -110 OFFCURVE",
"295 -110 CURVE SMOOTH",
"249 -110 OFFCURVE",
"224 -89 OFFCURVE",
"194 -50 CURVE",
"39 -50 LINE",
"65 -131 OFFCURVE",
"155 -220 OFFCURVE",
"295 -220 CURVE SMOOTH"
);
},
{
closed = 1;
nodes = (
"220 100 OFFCURVE",
"180 165 OFFCURVE",
"180 265 CURVE SMOOTH",
"180 365 OFFCURVE",
"220 430 OFFCURVE",
"300 430 CURVE SMOOTH",
"380 430 OFFCURVE",
"420 365 OFFCURVE",
"420 265 CURVE SMOOTH",
"420 165 OFFCURVE",
"380 100 OFFCURVE",
"300 100 CURVE SMOOTH"
);
}
);
width = 635;
}
);
leftKerningGroup = g;
rightKerningGroup = g;
unicode = 0067;
},
{
glyphname = h;
lastChange = "2025-12-24 17:11:12 +0000";
layers = (
{
anchors = (
{
name = bottom;
position = "{308, 0}";
},
{
name = center;
position = "{308, 390}";
},
{
name = top;
position = "{308, 780}";
}
);
hints = (
{
horizontal = 1;
origin = "{0, 20}";
target = up;
type = BottomGhost;
},
{
horizontal = 1;
origin = "{0, 13}";
target = "{0, 4}";
type = Stem;
},
{
horizontal = 1;
origin = "{0, 19}";
target = down;
type = TopGhost;
},
{
origin = "{0, 20}";
target = "{0, 0}";
type = Stem;
},
{
origin = "{0, 8}";
target = "{0, 9}";
type = Stem;
}
);
layerId = "05246BF3-0764-4143-87C4-5D2B296D3790";
paths = (
{
closed = 1;
nodes = (
"165 0 LINE",
"165 280 LINE SMOOTH",
"165 390 OFFCURVE",
"230 450 OFFCURVE",
"300 450 CURVE SMOOTH",
"370 450 OFFCURVE",
"415 420 OFFCURVE",
"415 330 CURVE",
"415 0 LINE",
"505 0 LINE",
"505 330 LINE",
"505 470 OFFCURVE",
"430 530 OFFCURVE",
"330 530 CURVE SMOOTH",
"250 530 OFFCURVE",
"205 490 OFFCURVE",
"175 420 CURVE",
"165 420 LINE",
"165 720 LINE",
"75 720 LINE",
"75 0 LINE"
);
}
);
width = 570;
},
{
anchors = (
{
name = bottom;
position = "{322, 0}";
},
{
name = center;
position = "{322, 390}";
},
{
name = top;
position = "{322, 780}";
}
);
hints = (
{
horizontal = 1;
origin = "{0, 20}";
target = up;
type = BottomGhost;
},
{
horizontal = 1;
origin = "{0, 13}";
target = "{0, 4}";
type = Stem;
},
{
horizontal = 1;
origin = "{0, 19}";
target = down;
type = TopGhost;
},
{
origin = "{0, 20}";
target = "{0, 0}";
type = Stem;
},
{
origin = "{0, 8}";
target = "{0, 9}";
type = Stem;
}
);
layerId = "B51EB05F-9FBB-4087-814F-400611B2D4B0";
paths = (
{
closed = 1;
nodes = (
"210 0 LINE",
"210 280 LINE SMOOTH",
"210 370 OFFCURVE",
"245 430 OFFCURVE",
"305 430 CURVE SMOOTH",
"365 430 OFFCURVE",
"390 400 OFFCURVE",
"390 330 CURVE",
"390 0 LINE",
"540 0 LINE",
"540 330 LINE",
"540 470 OFFCURVE",
"465 540 OFFCURVE",
"365 540 CURVE SMOOTH",
"295 540 OFFCURVE",
"250 510 OFFCURVE",
"220 450 CURVE",
"210 450 LINE",
"210 720 LINE",
"60 720 LINE",
"60 0 LINE"
);
}
);
width = 590;
}
);
leftKerningGroup = I;
rightKerningGroup = n;
unicode = 0068;
},
{
glyphname = hbar;
lastChange = "2025-12-24 17:11:12 +0000";
layers = (
{
hints = (
{
horizontal = 1;
origin = "{0, 20}";
target = up;
type = BottomGhost;
},
{
horizontal = 1;
origin = "{0, 13}";
target = "{0, 4}";
type = Stem;
},
{
horizontal = 1;
origin = "{0, 19}";
target = "{1, 3}";
type = Stem;
},
{
horizontal = 1;
origin = "{1, 3}";
target = "{1, 2}";
type = Stem;
},
{
origin = "{0, 20}";
target = "{0, 0}";
type = Stem;
},
{
origin = "{0, 8}";
target = "{0, 9}";
type = Stem;
}
);
layerId = "05246BF3-0764-4143-87C4-5D2B296D3790";
paths = (
{
closed = 1;
nodes = (
"165 0 LINE",
"165 280 LINE SMOOTH",
"165 390 OFFCURVE",
"230 450 OFFCURVE",
"300 450 CURVE SMOOTH",
"370 450 OFFCURVE",
"415 420 OFFCURVE",
"415 330 CURVE",
"415 0 LINE",
"505 0 LINE",
"505 330 LINE",
"505 470 OFFCURVE",
"430 530 OFFCURVE",
"330 530 CURVE SMOOTH",
"250 530 OFFCURVE",
"205 490 OFFCURVE",
"175 420 CURVE",
"165 420 LINE",
"165 720 LINE",
"75 720 LINE",
"75 0 LINE"
);
},
{
closed = 1;
nodes = (
"295 601 LINE",
"295 671 LINE",
"25 671 LINE",
"25 601 LINE"
);
}
);
width = 600;
},
{
hints = (
{
horizontal = 1;
origin = "{0, 20}";
target = up;
type = BottomGhost;
},
{
horizontal = 1;
origin = "{0, 13}";
target = "{0, 4}";
type = Stem;
},
{
horizontal = 1;
origin = "{0, 19}";
target = "{1, 3}";
type = Stem;
},
{
horizontal = 1;
origin = "{1, 3}";
target = "{1, 2}";
type = Stem;
},
{
origin = "{0, 20}";
target = "{0, 0}";
type = Stem;
},
{
origin = "{0, 8}";
target = "{0, 9}";
type = Stem;
}
);
layerId = "B51EB05F-9FBB-4087-814F-400611B2D4B0";
paths = (
{
closed = 1;
nodes = (
"210 0 LINE",
"210 280 LINE SMOOTH",
"210 370 OFFCURVE",
"245 430 OFFCURVE",
"305 430 CURVE SMOOTH",
"365 430 OFFCURVE",
"390 400 OFFCURVE",
"390 330 CURVE",
"390 0 LINE",
"540 0 LINE",
"540 330 LINE",
"540 470 OFFCURVE",
"465 540 OFFCURVE",
"365 540 CURVE SMOOTH",
"295 540 OFFCURVE",
"250 510 OFFCURVE",
"220 450 CURVE",
"210 450 LINE",
"210 720 LINE",
"60 720 LINE",
"60 0 LINE"
);
},
{
closed = 1;
nodes = (
"345 581 LINE",
"345 671 LINE",
"5 671 LINE",
"5 581 LINE"
);
}
);
width = 600;
}
);
unicode = 0127;
},
{
glyphname = i;
lastChange = "2025-12-24 17:11:12 +0000";
layers = (
{
anchors = (
{
name = bottom;
position = "{120, 0}";
}
);
hints = (
{
horizontal = 1;
origin = "{0, 3}";
target = up;
type = BottomGhost;
},
{
horizontal = 1;
origin = "{0, 2}";
target = down;
type = TopGhost;
},
{
horizontal = 1;
origin = "{1, 5}";
target = "{1, 11}";
type = Stem;
},
{
origin = "{1, 8}";
target = "{1, 2}";
type = Stem;
},
{
origin = "{0, 3}";
target = "{0, 0}";
type = Stem;
}
);
layerId = "05246BF3-0764-4143-87C4-5D2B296D3790";
paths = (
{
closed = 1;
nodes = (
"165 0 LINE",
"165 520 LINE",
"75 520 LINE",
"75 0 LINE"
);
},
{
closed = 1;
nodes = (
"151 620 OFFCURVE",
"175 644 OFFCURVE",
"175 675 CURVE SMOOTH",
"175 706 OFFCURVE",
"151 730 OFFCURVE",
"120 730 CURVE SMOOTH",
"89 730 OFFCURVE",
"65 706 OFFCURVE",
"65 675 CURVE SMOOTH",
"65 644 OFFCURVE",
"89 620 OFFCURVE",
"120 620 CURVE SMOOTH"
);
}
);
width = 240;
},
{
anchors = (
{
name = bottom;
position = "{140, 0}";
}
);
hints = (
{
horizontal = 1;
origin = "{0, 3}";
target = up;
type = BottomGhost;
},
{
horizontal = 1;
origin = "{0, 2}";
target = down;
type = TopGhost;
},
{
horizontal = 1;
origin = "{1, 11}";
target = "{1, 5}";
type = Stem;
},
{
origin = "{1, 8}";
target = "{1, 2}";
type = Stem;
},
{
origin = "{0, 3}";
target = "{0, 0}";
type = Stem;
}
);
layerId = "B51EB05F-9FBB-4087-814F-400611B2D4B0";
paths = (
{
closed = 1;
nodes = (
"215 0 LINE",
"215 530 LINE",
"65 530 LINE",
"65 0 LINE"
);
},
{
closed = 1;
nodes = (
"188 580 OFFCURVE",
"225 617 OFFCURVE",
"225 665 CURVE SMOOTH",
"225 713 OFFCURVE",
"188 750 OFFCURVE",
"140 750 CURVE SMOOTH",
"92 750 OFFCURVE",
"55 713 OFFCURVE",
"55 665 CURVE SMOOTH",
"55 617 OFFCURVE",
"92 580 OFFCURVE",
"140 580 CURVE SMOOTH"
);
}
);
width = 280;
}
);
leftKerningGroup = i;
rightKerningGroup = i;
unicode = 0069;
},
{
glyphname = idotless;
lastChange = "2025-12-24 17:11:12 +0000";
layers = (
{
anchors = (
{
name = bottom;
position = "{86, 0}";
},
{
name = top;
position = "{131, 520}";
}
);
hints = (
{
horizontal = 1;
origin = "{0, 3}";
target = up;
type = BottomGhost;
},
{
horizontal = 1;
origin = "{0, 2}";
target = down;
type = TopGhost;
},
{
origin = "{0, 3}";
target = "{0, 0}";
type = Stem;
}
);
layerId = "05246BF3-0764-4143-87C4-5D2B296D3790";
paths = (
{
closed = 1;
nodes = (
"176 0 LINE",
"176 520 LINE",
"86 520 LINE",
"86 0 LINE"
);
}
);
width = 262;
},
{
anchors = (
{
name = bottom;
position = "{56, 0}";
},
{
name = top;
position = "{131, 530}";
}
);
hints = (
{
horizontal = 1;
origin = "{0, 3}";
target = up;
type = BottomGhost;
},
{
horizontal = 1;
origin = "{0, 2}";
target = down;
type = TopGhost;
},
{
origin = "{0, 3}";
target = "{0, 0}";
type = Stem;
}
);
layerId = "B51EB05F-9FBB-4087-814F-400611B2D4B0";
paths = (
{
closed = 1;
nodes = (
"206 0 LINE",
"206 530 LINE",
"56 530 LINE",
"56 0 LINE"
);
}
);
width = 262;
}
);
unicode = 0131;
},
{
glyphname = j;
lastChange = "2025-12-24 17:11:12 +0000";
layers = (
{
hints = (
{
horizontal = 1;
origin = "{1, 8}";
target = "{1, 9}";
type = Stem;
},
{
horizontal = 1;
origin = "{0, 2}";
target = down;
type = TopGhost;
},
{
horizontal = 1;
origin = "{2, 5}";
target = "{2, 11}";
type = Stem;
},
{
origin = "{1, 0}";
target = "{2, 2}";
type = Stem;
},
{
origin = "{0, 3}";
target = "{0, 0}";
type = Stem;
}
);
layerId = "05246BF3-0764-4143-87C4-5D2B296D3790";
paths = (
{
closed = 1;
nodes = (
"180 -110 LINE",
"180 520 LINE",
"90 520 LINE",
"90 -100 LINE"
);
},
{
closed = 1;
nodes = (
"80 -220 LINE SMOOTH",
"130 -220 OFFCURVE",
"180 -180 OFFCURVE",
"180 -110 CURVE",
"90 -100 LINE",
"90 -130 OFFCURVE",
"70 -140 OFFCURVE",
"50 -140 CURVE SMOOTH",
"-10 -140 LINE",
"-10 -220 LINE"
);
},
{
closed = 1;
nodes = (
"166 620 OFFCURVE",
"190 644 OFFCURVE",
"190 675 CURVE SMOOTH",
"190 706 OFFCURVE",
"166 730 OFFCURVE",
"135 730 CURVE SMOOTH",
"104 730 OFFCURVE",
"80 706 OFFCURVE",
"80 675 CURVE SMOOTH",
"80 644 OFFCURVE",
"104 620 OFFCURVE",
"135 620 CURVE SMOOTH"
);
}
);
width = 255;
},
{
hints = (
{
horizontal = 1;
origin = "{1, 8}";
target = "{1, 9}";
type = Stem;
},
{
horizontal = 1;
origin = "{0, 2}";
target = down;
type = TopGhost;
},
{
horizontal = 1;
origin = "{2, 11}";
target = "{2, 5}";
type = Stem;
},
{
origin = "{2, 8}";
target = "{2, 2}";
type = Stem;
},
{
origin = "{1, 0}";
target = "{0, 0}";
type = Stem;
}
);
layerId = "B51EB05F-9FBB-4087-814F-400611B2D4B0";
paths = (
{
closed = 1;
nodes = (
"240 -80 LINE",
"240 530 LINE",
"90 530 LINE",
"90 -70 LINE"
);
},
{
closed = 1;
nodes = (
"90 -220 LINE SMOOTH",
"170 -220 OFFCURVE",
"240 -170 OFFCURVE",
"240 -80 CURVE",
"90 -70 LINE",
"90 -100 OFFCURVE",
"70 -110 OFFCURVE",
"50 -110 CURVE SMOOTH",
"-20 -110 LINE",
"-20 -220 LINE"
);
},
{
closed = 1;
nodes = (
"213 580 OFFCURVE",
"250 617 OFFCURVE",
"250 665 CURVE SMOOTH",
"250 713 OFFCURVE",
"213 750 OFFCURVE",
"165 750 CURVE SMOOTH",
"117 750 OFFCURVE",
"80 713 OFFCURVE",
"80 665 CURVE SMOOTH",
"80 617 OFFCURVE",
"117 580 OFFCURVE",
"165 580 CURVE SMOOTH"
);
}
);
width = 305;
}
);
leftKerningGroup = j;
rightKerningGroup = j;
unicode = 006A;
},
{
glyphname = jdotless;
lastChange = "2025-12-24 17:11:12 +0000";
layers = (
{
anchors = (
{
name = top;
position = "{135, 520}";
}
);
hints = (
{
horizontal = 1;
origin = "{1, 9}";
target = "{1, 8}";
type = Stem;
},
{
horizontal = 1;
origin = "{0, 1}";
target = down;
type = TopGhost;
},
{
origin = "{0, 2}";
target = "{0, 3}";
type = Stem;
}
);
layerId = "05246BF3-0764-4143-87C4-5D2B296D3790";
paths = (
{
closed = 1;
nodes = (
"180 520 LINE",
"90 520 LINE",
"90 -100 LINE",
"180 -110 LINE"
);
},
{
closed = 1;
nodes = (
"80 -220 LINE SMOOTH",
"130 -220 OFFCURVE",
"180 -180 OFFCURVE",
"180 -110 CURVE",
"90 -100 LINE",
"90 -130 OFFCURVE",
"70 -140 OFFCURVE",
"50 -140 CURVE SMOOTH",
"-10 -140 LINE",
"-10 -220 LINE"
);
}
);
width = 245;
},
{
anchors = (
{
name = top;
position = "{165, 530}";
}
);
hints = (
{
horizontal = 1;
origin = "{1, 9}";
target = "{1, 8}";
type = Stem;
},
{
horizontal = 1;
origin = "{0, 1}";
target = down;
type = TopGhost;
},
{
origin = "{1, 0}";
target = "{0, 3}";
type = Stem;
}
);
layerId = "B51EB05F-9FBB-4087-814F-400611B2D4B0";
paths = (
{
closed = 1;
nodes = (
"240 530 LINE",
"90 530 LINE",
"90 -70 LINE",
"240 -80 LINE"
);
},
{
closed = 1;
nodes = (
"90 -220 LINE SMOOTH",
"170 -220 OFFCURVE",
"240 -170 OFFCURVE",
"240 -80 CURVE",
"90 -70 LINE",
"90 -100 OFFCURVE",
"70 -110 OFFCURVE",
"50 -110 CURVE SMOOTH",
"-20 -110 LINE",
"-20 -220 LINE"
);
}
);
width = 295;
}
);
unicode = 0237;
},
{
glyphname = k;
lastChange = "2025-12-24 17:11:12 +0000";
layers = (
{
anchors = (
{
name = bottom;
position = "{285, 0}";
},
{
name = top;
position = "{263, 780}";
}
);
hints = (
{
horizontal = 1;
origin = "{1, 3}";
target = up;
type = BottomGhost;
},
{
horizontal = 1;
origin = "{0, 1}";
target = down;
type = TopGhost;
},
{
horizontal = 1;
origin = "{1, 2}";
target = down;
type = TopGhost;
},
{
origin = "{1, 3}";
target = "{1, 0}";
type = Stem;
}
);
layerId = "05246BF3-0764-4143-87C4-5D2B296D3790";
paths = (
{
closed = 1;
nodes = (
"470 520 LINE",
"370 520 LINE",
"175 290 LINE",
"165 290 LINE",
"165 170 LINE"
);
},
{
closed = 1;
nodes = (
"165 0 LINE",
"165 720 LINE",
"75 720 LINE",
"75 0 LINE"
);
},
{
closed = 1;
nodes = (
"505 0 LINE",
"275 306 LINE",
"210 263 LINE",
"410 0 LINE"
);
}
);
width = 515;
},
{
anchors = (
{
name = bottom;
position = "{295, 0}";
},
{
name = top;
position = "{273, 780}";
}
);
hints = (
{
horizontal = 1;
origin = "{1, 3}";
target = up;
type = BottomGhost;
},
{
horizontal = 1;
origin = "{0, 1}";
target = down;
type = TopGhost;
},
{
horizontal = 1;
origin = "{1, 2}";
target = down;
type = TopGhost;
},
{
origin = "{1, 3}";
target = "{1, 0}";
type = Stem;
}
);
layerId = "B51EB05F-9FBB-4087-814F-400611B2D4B0";
paths = (
{
closed = 1;
nodes = (
"535 530 LINE",
"375 530 LINE",
"220 340 LINE",
"210 340 LINE",
"210 145 LINE"
);
},
{
closed = 1;
nodes = (
"210 0 LINE",
"210 720 LINE",
"60 720 LINE",
"60 0 LINE"
);
},
{
closed = 1;
nodes = (
"575 0 LINE",
"345 306 LINE",
"217 263 LINE",
"415 0 LINE"
);
}
);
width = 585;
}
);
leftKerningGroup = I;
rightKerningGroup = k;
unicode = 006B;
},
{
glyphname = l;
lastChange = "2025-12-24 17:11:12 +0000";
layers = (
{
anchors = (
{
name = bottom;
position = "{158, 0}";
},
{
name = center;
position = "{158, 390}";
},
{
name = top;
position = "{125, 740}";
}
);
hints = (
{
horizontal = 1;
origin = "{1, 9}";
target = "{1, 2}";
type = Stem;
},
{
origin = "{0, 3}";
target = "{0, 0}";
type = Stem;
}
);
layerId = "05246BF3-0764-4143-87C4-5D2B296D3790";
paths = (
{
closed = 1;
nodes = (
"165 120 LINE",
"165 740 LINE",
"75 740 LINE",
"75 110 LINE"
);
},
{
closed = 1;
nodes = (
"240 0 LINE",
"240 80 LINE",
"205 80 LINE",
"185 80 OFFCURVE",
"165 90 OFFCURVE",
"165 120 CURVE",
"75 110 LINE",
"75 40 OFFCURVE",
"125 0 OFFCURVE",
"175 0 CURVE"
);
}
);
width = 260;
},
{
anchors = (
{
name = bottom;
position = "{168, 0}";
},
{
name = center;
position = "{168, 390}";
},
{
name = top;
position = "{135, 740}";
}
);
hints = (
{
horizontal = 1;
origin = "{1, 9}";
target = "{1, 2}";
type = Stem;
},
{
origin = "{0, 3}";
target = "{1, 9}";
type = Stem;
}
);
layerId = "B51EB05F-9FBB-4087-814F-400611B2D4B0";
paths = (
{
closed = 1;
nodes = (
"210 150 LINE",
"210 740 LINE",
"60 740 LINE",
"60 140 LINE"
);
},
{
closed = 1;
nodes = (
"305 0 LINE",
"305 110 LINE",
"250 110 LINE",
"230 110 OFFCURVE",
"210 120 OFFCURVE",
"210 150 CURVE",
"60 140 LINE",
"60 50 OFFCURVE",
"130 0 OFFCURVE",
"210 0 CURVE"
);
}
);
width = 315;
}
);
leftKerningGroup = I;
rightKerningGroup = l;
unicode = 006C;
},
{
glyphname = lcaron;
lastChange = "2025-12-24 17:11:12 +0000";
layers = (
{
anchors = (
{
name = bottom;
position = "{158, 0}";
},
{
name = center;
position = "{158, 390}";
},
{
name = top;
position = "{125, 740}";
}
);
hints = (
{
horizontal = 1;
origin = "{1, 9}";
target = "{1, 2}";
type = Stem;
},
{
horizontal = 1;
origin = "{3, 3}";
target = "{0, 2}";
type = Stem;
},
{
horizontal = 1;
origin = "{2, 6}";
target = "{2, 7}";
type = Stem;
},
{
origin = "{0, 3}";
target = "{0, 0}";
type = Stem;
},
{
origin = "{1, 2}";
target = "{2, 2}";
type = Stem;
},
{
origin = "{2, 3}";
target = "{2, 2}";
type = Stem;
}
);
layerId = "05246BF3-0764-4143-87C4-5D2B296D3790";
paths = (
{
closed = 1;
nodes = (
"165 120 LINE",
"165 740 LINE",
"75 740 LINE",
"75 110 LINE"
);
},
{
closed = 1;
nodes = (
"240 0 LINE",
"240 80 LINE",
"205 80 LINE",
"185 80 OFFCURVE",
"165 90 OFFCURVE",
"165 120 CURVE",
"75 110 LINE",
"75 40 OFFCURVE",
"125 0 OFFCURVE",
"175 0 CURVE"
);
},
{
closed = 1;
nodes = (
"255 520 OFFCURVE",
"295 576 OFFCURVE",
"295 646 CURVE",
"245 646 LINE",
"245 606 OFFCURVE",
"235 560 OFFCURVE",
"195 550 CURVE",
"195 520 LINE"
);
},
{
closed = 1;
nodes = (
"295 646 LINE",
"295 740 LINE",
"205 740 LINE",
"205 646 LINE"
);
}
);
width = 260;
},
{
anchors = (
{
name = bottom;
position = "{168, 0}";
},
{
name = center;
position = "{168, 390}";
},
{
name = top;
position = "{135, 740}";
}
);
hints = (
{
horizontal = 1;
origin = "{2, 7}";
target = "{2, 6}";
type = Stem;
},
{
horizontal = 1;
origin = "{3, 3}";
target = "{3, 2}";
type = Stem;
},
{
origin = "{2, 7}";
target = "{2, 2}";
type = Stem;
},
{
origin = "{2, 3}";
target = "{2, 2}";
type = Stem;
},
{
horizontal = 1;
origin = "{1, 9}";
target = "{1, 2}";
type = Stem;
},
{
origin = "{0, 3}";
target = "{1, 9}";
type = Stem;
}
);
layerId = "B51EB05F-9FBB-4087-814F-400611B2D4B0";
paths = (
{
closed = 1;
nodes = (
"210 150 LINE",
"210 740 LINE",
"60 740 LINE",
"60 140 LINE"
);
},
{
closed = 1;
nodes = (
"305 0 LINE",
"305 110 LINE",
"250 110 LINE",
"230 110 OFFCURVE",
"210 120 OFFCURVE",
"210 150 CURVE",
"60 140 LINE",
"60 50 OFFCURVE",
"130 0 OFFCURVE",
"210 0 CURVE"
);
},
{
closed = 1;
nodes = (
"300 520 OFFCURVE",
"340 576 OFFCURVE",
"340 646 CURVE",
"280 646 LINE",
"280 606 OFFCURVE",
"280 560 OFFCURVE",
"240 550 CURVE",
"240 520 LINE"
);
},
{
closed = 1;
nodes = (
"340 646 LINE",
"340 740 LINE",
"240 740 LINE",
"240 646 LINE"
);
}
);
width = 315;
}
);
unicode = 013E;
},
{
glyphname = lslash;
lastChange = "2025-12-24 17:11:12 +0000";
layers = (
{
components = (
{
name = l;
transform = "{1, 0, 0, 1, 10, 0}";
}
);
hints = (
{
horizontal = 1;
origin = "{0, 3}";
target = "{0, 1}";
type = Stem;
},
{
origin = "{0, 3}";
target = "{0, 0}";
type = Stem;
}
);
layerId = "05246BF3-0764-4143-87C4-5D2B296D3790";
paths = (
{
closed = 1;
nodes = (
"235 397 LINE",
"235 467 LINE",
"35 367 LINE",
"35 297 LINE"
);
}
);
width = 281;
},
{
components = (
{
name = l;
transform = "{1, 0, 0, 1, 10, 0}";
}
);
hints = (
{
horizontal = 1;
origin = "{0, 3}";
target = "{0, 1}";
type = Stem;
},
{
origin = "{0, 3}";
target = "{0, 0}";
type = Stem;
}
);
layerId = "B51EB05F-9FBB-4087-814F-400611B2D4B0";
paths = (
{
closed = 1;
nodes = (
"285 397 LINE",
"285 497 LINE",
"15 357 LINE",
"15 257 LINE"
);
}
);
width = 335;
}
);
leftKerningGroup = l;
rightKerningGroup = l;
unicode = 0142;
},
{
glyphname = m;
lastChange = "2025-12-24 17:11:12 +0000";
layers = (
{
anchors = (
{
name = bottom;
position = "{443, 0}";
},
{
name = top;
position = "{443, 520}";
}
);
hints = (
{
horizontal = 1;
origin = "{0, 20}";
target = up;
type = BottomGhost;
},
{
horizontal = 1;
origin = "{0, 13}";
target = "{0, 4}";
type = Stem;
},
{
horizontal = 1;
origin = "{0, 19}";
target = down;
type = TopGhost;
},
{
origin = "{0, 20}";
target = "{0, 0}";
type = Stem;
},
{
origin = "{0, 8}";
target = "{0, 9}";
type = Stem;
},
{
origin = "{1, 16}";
target = "{1, 0}";
type = Stem;
}
);
layerId = "05246BF3-0764-4143-87C4-5D2B296D3790";
paths = (
{
closed = 1;
nodes = (
"165 0 LINE",
"165 280 LINE SMOOTH",
"165 390 OFFCURVE",
"220 450 OFFCURVE",
"290 450 CURVE SMOOTH",
"350 450 OFFCURVE",
"395 410 OFFCURVE",
"395 330 CURVE",
"395 0 LINE",
"485 0 LINE",
"485 330 LINE",
"485 470 OFFCURVE",
"410 530 OFFCURVE",
"320 530 CURVE SMOOTH",
"240 530 OFFCURVE",
"205 490 OFFCURVE",
"175 420 CURVE",
"165 420 LINE",
"165 520 LINE",
"75 520 LINE",
"75 0 LINE"
);
},
{
closed = 1;
nodes = (
"805 0 LINE",
"805 330 LINE",
"805 470 OFFCURVE",
"730 530 OFFCURVE",
"640 530 CURVE SMOOTH",
"560 530 OFFCURVE",
"513 490 OFFCURVE",
"483 420 CURVE",
"471 420 LINE",
"485 280 LINE",
"485 390 OFFCURVE",
"540 450 OFFCURVE",
"610 450 CURVE SMOOTH",
"670 450 OFFCURVE",
"715 410 OFFCURVE",
"715 330 CURVE",
"715 0 LINE"
);
}
);
width = 870;
},
{
anchors = (
{
name = bottom;
position = "{438, 0}";
},
{
name = top;
position = "{438, 520}";
}
);
hints = (
{
horizontal = 1;
origin = "{0, 20}";
target = up;
type = BottomGhost;
},
{
horizontal = 1;
origin = "{0, 13}";
target = "{0, 4}";
type = Stem;
},
{
horizontal = 1;
origin = "{0, 19}";
target = "{0, 4}";
type = Stem;
},
{
origin = "{0, 20}";
target = "{0, 0}";
type = Stem;
},
{
origin = "{0, 8}";
target = "{0, 9}";
type = Stem;
},
{
origin = "{1, 16}";
target = "{1, 0}";
type = Stem;
}
);
layerId = "B51EB05F-9FBB-4087-814F-400611B2D4B0";
paths = (
{
closed = 1;
nodes = (
"210 0 LINE",
"210 280 LINE SMOOTH",
"210 380 OFFCURVE",
"235 430 OFFCURVE",
"295 430 CURVE SMOOTH",
"345 430 OFFCURVE",
"370 390 OFFCURVE",
"370 330 CURVE",
"370 0 LINE",
"520 0 LINE",
"520 330 LINE",
"520 470 OFFCURVE",
"455 540 OFFCURVE",
"355 540 CURVE SMOOTH",
"285 540 OFFCURVE",
"250 510 OFFCURVE",
"220 450 CURVE",
"210 450 LINE",
"210 530 LINE",
"60 530 LINE",
"60 0 LINE"
);
},
{
closed = 1;
nodes = (
"830 0 LINE",
"830 330 LINE",
"830 470 OFFCURVE",
"755 540 OFFCURVE",
"655 540 CURVE SMOOTH",
"585 540 OFFCURVE",
"540 510 OFFCURVE",
"510 450 CURVE",
"490 450 LINE",
"520 280 LINE",
"520 380 OFFCURVE",
"545 430 OFFCURVE",
"605 430 CURVE SMOOTH",
"655 430 OFFCURVE",
"680 390 OFFCURVE",
"680 330 CURVE",
"680 0 LINE"
);
}
);
width = 880;
}
);
leftKerningGroup = n;
rightKerningGroup = n;
unicode = 006D;
},
{
glyphname = n;
lastChange = "2025-12-24 17:11:12 +0000";
layers = (
{
anchors = (
{
name = bottom;
position = "{300, 0}";
},
{
name = top;
position = "{300, 530}";
}
);
hints = (
{
horizontal = 1;
origin = "{0, 20}";
target = up;
type = BottomGhost;
},
{
horizontal = 1;
origin = "{0, 13}";
target = "{0, 4}";
type = Stem;
},
{
horizontal = 1;
origin = "{0, 19}";
target = down;
type = TopGhost;
},
{
origin = "{0, 20}";
target = "{0, 0}";
type = Stem;
},
{
origin = "{0, 8}";
target = "{0, 9}";
type = Stem;
}
);
layerId = "05246BF3-0764-4143-87C4-5D2B296D3790";
paths = (
{
closed = 1;
nodes = (
"165 0 LINE",
"165 280 LINE SMOOTH",
"165 390 OFFCURVE",
"230 450 OFFCURVE",
"300 450 CURVE SMOOTH",
"370 450 OFFCURVE",
"415 420 OFFCURVE",
"415 330 CURVE",
"415 0 LINE",
"505 0 LINE",
"505 330 LINE",
"505 470 OFFCURVE",
"430 530 OFFCURVE",
"330 530 CURVE SMOOTH",
"250 530 OFFCURVE",
"205 500 OFFCURVE",
"175 430 CURVE",
"165 430 LINE",
"165 520 LINE",
"75 520 LINE",
"75 0 LINE"
);
}
);
width = 570;
},
{
anchors = (
{
name = bottom;
position = "{305, 0}";
},
{
name = top;
position = "{305, 540}";
}
);
hints = (
{
horizontal = 1;
origin = "{0, 20}";
target = up;
type = BottomGhost;
},
{
horizontal = 1;
origin = "{0, 13}";
target = "{0, 4}";
type = Stem;
},
{
horizontal = 1;
origin = "{0, 19}";
target = "{0, 4}";
type = Stem;
},
{
origin = "{0, 20}";
target = "{0, 0}";
type = Stem;
},
{
origin = "{0, 8}";
target = "{0, 9}";
type = Stem;
}
);
layerId = "B51EB05F-9FBB-4087-814F-400611B2D4B0";
paths = (
{
closed = 1;
nodes = (
"210 0 LINE",
"210 280 LINE SMOOTH",
"210 370 OFFCURVE",
"245 430 OFFCURVE",
"305 430 CURVE SMOOTH",
"365 430 OFFCURVE",
"390 400 OFFCURVE",
"390 330 CURVE",
"390 0 LINE",
"540 0 LINE",
"540 330 LINE",
"540 470 OFFCURVE",
"465 540 OFFCURVE",
"365 540 CURVE SMOOTH",
"295 540 OFFCURVE",
"250 510 OFFCURVE",
"220 450 CURVE",
"210 450 LINE",
"210 530 LINE",
"60 530 LINE",
"60 0 LINE"
);
}
);
width = 590;
}
);
leftKerningGroup = n;
rightKerningGroup = n;
unicode = 006E;
},
{
glyphname = eng;
lastChange = "2025-12-24 17:11:12 +0000";
layers = (
{
components = (
{
name = n;
}
);
hints = (
{
horizontal = 1;
origin = "{0, 9}";
target = "{0, 8}";
type = Stem;
},
{
origin = "{0, 4}";
target = "{0, 3}";
type = Stem;
}
);
layerId = "05246BF3-0764-4143-87C4-5D2B296D3790";
paths = (
{
closed = 1;
nodes = (
"400 -200 LINE SMOOTH",
"450 -200 OFFCURVE",
"505 -160 OFFCURVE",
"505 -90 CURVE",
"415 -90 LINE",
"415 -120 OFFCURVE",
"391 -130 OFFCURVE",
"371 -130 CURVE SMOOTH",
"315 -130 LINE",
"315 -200 LINE"
);
},
{
closed = 1;
nodes = (
"505 -90 LINE",
"505 0 LINE",
"415 0 LINE",
"415 -90 LINE"
);
}
);
width = 580;
},
{
components = (
{
name = n;
}
);
hints = (
{
horizontal = 1;
origin = "{0, 9}";
target = "{0, 8}";
type = Stem;
},
{
origin = "{0, 4}";
target = "{0, 3}";
type = Stem;
}
);
layerId = "B51EB05F-9FBB-4087-814F-400611B2D4B0";
paths = (
{
closed = 1;
nodes = (
"425 -200 LINE SMOOTH",
"475 -200 OFFCURVE",
"540 -160 OFFCURVE",
"540 -90 CURVE",
"390 -50 LINE",
"390 -80 OFFCURVE",
"366 -90 OFFCURVE",
"346 -90 CURVE SMOOTH",
"280 -90 LINE",
"280 -200 LINE"
);
},
{
closed = 1;
nodes = (
"540 -90 LINE",
"540 0 LINE",
"390 0 LINE",
"390 -50 LINE"
);
}
);
width = 600;
}
);
unicode = 014B;
},
{
glyphname = o;
lastChange = "2025-12-24 17:11:12 +0000";
layers = (
{
anchors = (
{
name = bottom;
position = "{285, 0}";
},
{
name = center;
position = "{285, 260}";
},
{
name = ogonek;
position = "{517, 10}";
},
{
name = top;
position = "{285, 520}";
},
{
name = topright;
position = "{555, 520}";
}
);
hints = (
{
horizontal = 1;
origin = "{1, 11}";
target = "{0, 11}";
type = Stem;
},
{
horizontal = 1;
origin = "{0, 5}";
target = "{1, 5}";
type = Stem;
},
{
origin = "{0, 8}";
target = "{1, 2}";
type = Stem;
},
{
origin = "{1, 8}";
target = "{0, 2}";
type = Stem;
}
);
layerId = "05246BF3-0764-4143-87C4-5D2B296D3790";
paths = (
{
closed = 1;
nodes = (
"435 -10 OFFCURVE",
"525 100 OFFCURVE",
"525 260 CURVE SMOOTH",
"525 420 OFFCURVE",
"435 530 OFFCURVE",
"285 530 CURVE SMOOTH",
"135 530 OFFCURVE",
"45 420 OFFCURVE",
"45 260 CURVE SMOOTH",
"45 100 OFFCURVE",
"135 -10 OFFCURVE",
"285 -10 CURVE SMOOTH"
);
},
{
closed = 1;
nodes = (
"175 70 OFFCURVE",
"135 160 OFFCURVE",
"135 260 CURVE SMOOTH",
"135 360 OFFCURVE",
"175 450 OFFCURVE",
"285 450 CURVE SMOOTH",
"395 450 OFFCURVE",
"435 360 OFFCURVE",
"435 260 CURVE SMOOTH",
"435 160 OFFCURVE",
"395 70 OFFCURVE",
"285 70 CURVE SMOOTH"
);
}
);
width = 570;
},
{
anchors = (
{
name = bottom;
position = "{290, 0}";
},
{
name = center;
position = "{292, 260}";
},
{
name = ogonek;
position = "{524, 10}";
},
{
name = top;
position = "{290, 540}";
},
{
name = topright;
position = "{562, 520}";
}
);
hints = (
{
horizontal = 1;
origin = "{0, 11}";
target = "{1, 11}";
type = Stem;
},
{
horizontal = 1;
origin = "{0, 5}";
target = "{1, 5}";
type = Stem;
},
{
origin = "{0, 8}";
target = "{1, 2}";
type = Stem;
},
{
origin = "{1, 8}";
target = "{0, 2}";
type = Stem;
}
);
layerId = "B51EB05F-9FBB-4087-814F-400611B2D4B0";
paths = (
{
closed = 1;
nodes = (
"450 -10 OFFCURVE",
"550 95 OFFCURVE",
"550 265 CURVE SMOOTH",
"550 435 OFFCURVE",
"450 540 OFFCURVE",
"290 540 CURVE SMOOTH",
"130 540 OFFCURVE",
"30 435 OFFCURVE",
"30 265 CURVE SMOOTH",
"30 95 OFFCURVE",
"130 -10 OFFCURVE",
"290 -10 CURVE SMOOTH"
);
},
{
closed = 1;
nodes = (
"200 100 OFFCURVE",
"180 185 OFFCURVE",
"180 265 CURVE SMOOTH",
"180 345 OFFCURVE",
"200 430 OFFCURVE",
"290 430 CURVE SMOOTH",
"380 430 OFFCURVE",
"400 345 OFFCURVE",
"400 265 CURVE SMOOTH",
"400 185 OFFCURVE",
"380 100 OFFCURVE",
"290 100 CURVE SMOOTH"
);
}
);
width = 580;
}
);
leftKerningGroup = o;
rightKerningGroup = o;
unicode = 006F;
},
{
glyphname = oslash;
lastChange = "2025-12-24 17:11:12 +0000";
layers = (
{
components = (
{
name = o;
}
);
hints = (
{
horizontal = 1;
origin = "{0, 3}";
target = up;
type = BottomGhost;
},
{
horizontal = 1;
origin = "{0, 2}";
target = down;
type = TopGhost;
}
);
layerId = "05246BF3-0764-4143-87C4-5D2B296D3790";
paths = (
{
closed = 1;
nodes = (
"97 -10 LINE",
"547 530 LINE",
"477 530 LINE",
"27 -10 LINE"
);
}
);
width = 574;
},
{
components = (
{
name = o;
}
);
hints = (
{
horizontal = 1;
origin = "{0, 3}";
target = up;
type = BottomGhost;
},
{
horizontal = 1;
origin = "{0, 2}";
target = down;
type = TopGhost;
}
);
layerId = "B51EB05F-9FBB-4087-814F-400611B2D4B0";
paths = (
{
closed = 1;
nodes = (
"117 -10 LINE",
"587 530 LINE",
"477 530 LINE",
"7 -10 LINE"
);
}
);
width = 594;
}
);
leftKerningGroup = c;
rightKerningGroup = o;
unicode = 00F8;
},
{
glyphname = oe;
lastChange = "2025-12-24 17:11:12 +0000";
layers = (
{
hints = (
{
horizontal = 1;
origin = "{0, 11}";
target = "{1, 11}";
type = Stem;
},
{
horizontal = 1;
origin = "{3, 3}";
target = "{3, 2}";
type = Stem;
},
{
horizontal = 1;
origin = "{0, 5}";
target = "{1, 5}";
type = Stem;
},
{
origin = "{0, 8}";
target = "{1, 2}";
type = Stem;
},
{
place = "{435, 102}";
type = Stem;
},
{
place = "{819, 91}";
type = Stem;
}
);
layerId = "05246BF3-0764-4143-87C4-5D2B296D3790";
paths = (
{
closed = 1;
nodes = (
"435 -10 OFFCURVE",
"525 100 OFFCURVE",
"525 260 CURVE SMOOTH",
"525 420 OFFCURVE",
"435 530 OFFCURVE",
"285 530 CURVE SMOOTH",
"135 530 OFFCURVE",
"45 420 OFFCURVE",
"45 260 CURVE SMOOTH",
"45 100 OFFCURVE",
"135 -10 OFFCURVE",
"285 -10 CURVE SMOOTH"
);
},
{
closed = 1;
nodes = (
"175 70 OFFCURVE",
"135 160 OFFCURVE",
"135 260 CURVE SMOOTH",
"135 360 OFFCURVE",
"175 450 OFFCURVE",
"285 450 CURVE SMOOTH",
"395 450 OFFCURVE",
"435 360 OFFCURVE",
"435 260 CURVE SMOOTH",
"435 160 OFFCURVE",
"395 70 OFFCURVE",
"285 70 CURVE SMOOTH"
);
},
{
closed = 1;
nodes = (
"788 -10 OFFCURVE",
"852 51 OFFCURVE",
"889 135 CURVE",
"793 135 LINE",
"767 94 OFFCURVE",
"745 70 OFFCURVE",
"685 70 CURVE SMOOTH",
"575 70 OFFCURVE",
"535 160 OFFCURVE",
"535 260 CURVE SMOOTH",
"535 360 OFFCURVE",
"575 450 OFFCURVE",
"685 450 CURVE SMOOTH",
"795 450 OFFCURVE",
"820 360 OFFCURVE",
"820 260 CURVE SMOOTH",
"820 248 OFFCURVE",
"819 236 OFFCURVE",
"818 225 CURVE",
"909 225 LINE",
"909 236 OFFCURVE",
"910 248 OFFCURVE",
"910 260 CURVE SMOOTH",
"910 420 OFFCURVE",
"835 530 OFFCURVE",
"685 530 CURVE SMOOTH",
"535 530 OFFCURVE",
"445 420 OFFCURVE",
"445 260 CURVE SMOOTH",
"445 100 OFFCURVE",
"535 -10 OFFCURVE",
"685 -10 CURVE SMOOTH"
);
},
{
closed = 1;
nodes = (
"860 225 LINE",
"860 295 LINE",
"490 295 LINE",
"490 225 LINE"
);
}
);
width = 964;
},
{
hints = (
{
horizontal = 1;
origin = "{0, 11}";
target = "{1, 11}";
type = Stem;
},
{
horizontal = 1;
origin = "{3, 3}";
target = "{3, 2}";
type = Stem;
},
{
horizontal = 1;
origin = "{0, 5}";
target = "{1, 5}";
type = Stem;
},
{
origin = "{0, 8}";
target = "{1, 2}";
type = Stem;
},
{
place = "{400, 172}";
type = Stem;
},
{
place = "{779, 151}";
type = Stem;
}
);
layerId = "B51EB05F-9FBB-4087-814F-400611B2D4B0";
paths = (
{
closed = 1;
nodes = (
"450 -10 OFFCURVE",
"550 95 OFFCURVE",
"550 265 CURVE SMOOTH",
"550 435 OFFCURVE",
"450 540 OFFCURVE",
"290 540 CURVE SMOOTH",
"130 540 OFFCURVE",
"30 435 OFFCURVE",
"30 265 CURVE SMOOTH",
"30 95 OFFCURVE",
"130 -10 OFFCURVE",
"290 -10 CURVE SMOOTH"
);
},
{
closed = 1;
nodes = (
"200 100 OFFCURVE",
"180 185 OFFCURVE",
"180 265 CURVE SMOOTH",
"180 345 OFFCURVE",
"200 430 OFFCURVE",
"290 430 CURVE SMOOTH",
"380 430 OFFCURVE",
"400 345 OFFCURVE",
"400 265 CURVE SMOOTH",
"400 185 OFFCURVE",
"380 100 OFFCURVE",
"290 100 CURVE SMOOTH"
);
},
{
closed = 1;
nodes = (
"803 -10 OFFCURVE",
"891 61 OFFCURVE",
"918 145 CURVE",
"768 145 LINE",
"742 114 OFFCURVE",
"730 100 OFFCURVE",
"680 100 CURVE SMOOTH",
"590 100 OFFCURVE",
"570 185 OFFCURVE",
"570 265 CURVE SMOOTH",
"570 345 OFFCURVE",
"590 430 OFFCURVE",
"680 430 CURVE SMOOTH",
"770 430 OFFCURVE",
"780 355 OFFCURVE",
"780 265 CURVE SMOOTH",
"780 253 OFFCURVE",
"779 231 OFFCURVE",
"778 220 CURVE",
"929 220 LINE",
"929 231 OFFCURVE",
"930 253 OFFCURVE",
"930 265 CURVE SMOOTH",
"930 435 OFFCURVE",
"840 540 OFFCURVE",
"680 540 CURVE SMOOTH",
"520 540 OFFCURVE",
"420 435 OFFCURVE",
"420 265 CURVE SMOOTH",
"420 95 OFFCURVE",
"520 -10 OFFCURVE",
"680 -10 CURVE SMOOTH"
);
},
{
closed = 1;
nodes = (
"860 220 LINE",
"860 310 LINE",
"485 310 LINE",
"485 220 LINE"
);
}
);
width = 964;
}
);
leftKerningGroup = c;
rightKerningGroup = e;
unicode = 0153;
},
{
glyphname = p;
lastChange = "2025-12-24 17:11:12 +0000";
layers = (
{
anchors = (
{
name = bottom;
position = "{310, 0}";
},
{
name = top;
position = "{310, 520}";
}
);
hints = (
{
horizontal = 1;
origin = "{1, 11}";
target = "{0, 5}";
type = Stem;
},
{
horizontal = 1;
origin = "{0, 11}";
target = "{1, 5}";
type = Stem;
},
{
horizontal = 1;
origin = "{0, 17}";
target = down;
type = TopGhost;
},
{
origin = "{0, 18}";
target = "{0, 0}";
type = Stem;
},
{
origin = "{1, 8}";
target = "{0, 8}";
type = Stem;
},
{
origin = "{0, 18}";
target = "{1, 2}";
type = Stem;
}
);
layerId = "05246BF3-0764-4143-87C4-5D2B296D3790";
paths = (
{
closed = 1;
nodes = (
"165 -220 LINE",
"165 100 LINE",
"175 100 LINE",
"205 30 OFFCURVE",
"270 -10 OFFCURVE",
"350 -10 CURVE SMOOTH",
"480 -10 OFFCURVE",
"570 100 OFFCURVE",
"570 260 CURVE SMOOTH",
"570 420 OFFCURVE",
"480 530 OFFCURVE",
"350 530 CURVE SMOOTH",
"270 530 OFFCURVE",
"205 490 OFFCURVE",
"175 420 CURVE",
"165 420 LINE",
"165 520 LINE",
"75 520 LINE",
"75 -220 LINE"
);
},
{
closed = 1;
nodes = (
"240 70 OFFCURVE",
"170 130 OFFCURVE",
"170 260 CURVE SMOOTH",
"170 390 OFFCURVE",
"240 450 OFFCURVE",
"330 450 CURVE SMOOTH",
"420 450 OFFCURVE",
"480 390 OFFCURVE",
"480 260 CURVE SMOOTH",
"480 130 OFFCURVE",
"420 70 OFFCURVE",
"330 70 CURVE SMOOTH"
);
}
);
width = 615;
},
{
anchors = (
{
name = bottom;
position = "{325, 0}";
},
{
name = top;
position = "{325, 520}";
}
);
hints = (
{
horizontal = 1;
origin = "{0, 5}";
target = "{1, 11}";
type = Stem;
},
{
horizontal = 1;
origin = "{0, 11}";
target = "{1, 5}";
type = Stem;
},
{
horizontal = 1;
origin = "{0, 17}";
target = "{1, 5}";
type = Stem;
},
{
origin = "{0, 18}";
target = "{0, 0}";
type = Stem;
},
{
origin = "{1, 8}";
target = "{0, 8}";
type = Stem;
},
{
origin = "{0, 18}";
target = "{1, 2}";
type = Stem;
}
);
layerId = "B51EB05F-9FBB-4087-814F-400611B2D4B0";
paths = (
{
closed = 1;
nodes = (
"210 -200 LINE",
"210 80 LINE",
"220 80 LINE",
"250 30 OFFCURVE",
"295 -10 OFFCURVE",
"375 -10 CURVE SMOOTH",
"515 -10 OFFCURVE",
"605 95 OFFCURVE",
"605 265 CURVE SMOOTH",
"605 435 OFFCURVE",
"515 540 OFFCURVE",
"375 540 CURVE SMOOTH",
"295 540 OFFCURVE",
"250 500 OFFCURVE",
"220 450 CURVE",
"210 450 LINE",
"210 530 LINE",
"60 530 LINE",
"60 -200 LINE"
);
},
{
closed = 1;
nodes = (
"255 100 OFFCURVE",
"215 165 OFFCURVE",
"215 265 CURVE SMOOTH",
"215 365 OFFCURVE",
"255 430 OFFCURVE",
"335 430 CURVE SMOOTH",
"415 430 OFFCURVE",
"455 365 OFFCURVE",
"455 265 CURVE SMOOTH",
"455 165 OFFCURVE",
"415 100 OFFCURVE",
"335 100 CURVE SMOOTH"
);
}
);
width = 635;
}
);
leftKerningGroup = p;
rightKerningGroup = o;
unicode = 0070;
},
{
glyphname = thorn;
lastChange = "2025-12-24 17:11:12 +0000";
layers = (
{
hints = (
{
horizontal = 1;
origin = "{0, 5}";
target = "{1, 11}";
type = Stem;
},
{
horizontal = 1;
origin = "{0, 11}";
target = "{1, 5}";
type = Stem;
},
{
horizontal = 1;
origin = "{0, 17}";
target = down;
type = TopGhost;
},
{
origin = "{0, 18}";
target = "{0, 0}";
type = Stem;
},
{
origin = "{1, 8}";
target = "{0, 8}";
type = Stem;
},
{
origin = "{0, 18}";
target = "{1, 2}";
type = Stem;
}
);
layerId = "05246BF3-0764-4143-87C4-5D2B296D3790";
paths = (
{
closed = 1;
nodes = (
"165 -220 LINE",
"165 100 LINE",
"175 100 LINE",
"205 30 OFFCURVE",
"270 -10 OFFCURVE",
"350 -10 CURVE SMOOTH",
"480 -10 OFFCURVE",
"570 100 OFFCURVE",
"570 260 CURVE SMOOTH",
"570 420 OFFCURVE",
"480 530 OFFCURVE",
"350 530 CURVE SMOOTH",
"270 530 OFFCURVE",
"205 490 OFFCURVE",
"175 420 CURVE",
"165 420 LINE",
"165 720 LINE",
"75 720 LINE",
"75 -220 LINE"
);
},
{
closed = 1;
nodes = (
"240 70 OFFCURVE",
"170 130 OFFCURVE",
"170 260 CURVE SMOOTH",
"170 390 OFFCURVE",
"240 450 OFFCURVE",
"330 450 CURVE SMOOTH",
"420 450 OFFCURVE",
"480 390 OFFCURVE",
"480 260 CURVE SMOOTH",
"480 130 OFFCURVE",
"420 70 OFFCURVE",
"330 70 CURVE SMOOTH"
);
}
);
width = 615;
},
{
hints = (
{
horizontal = 1;
origin = "{0, 5}";
target = "{1, 11}";
type = Stem;
},
{
horizontal = 1;
origin = "{0, 11}";
target = "{1, 5}";
type = Stem;
},
{
horizontal = 1;
origin = "{0, 17}";
target = down;
type = TopGhost;
},
{
origin = "{0, 18}";
target = "{0, 0}";
type = Stem;
},
{
origin = "{1, 8}";
target = "{0, 8}";
type = Stem;
},
{
origin = "{0, 18}";
target = "{1, 2}";
type = Stem;
}
);
layerId = "B51EB05F-9FBB-4087-814F-400611B2D4B0";
paths = (
{
closed = 1;
nodes = (
"210 -200 LINE",
"210 80 LINE",
"220 80 LINE",
"250 30 OFFCURVE",
"295 -10 OFFCURVE",
"375 -10 CURVE SMOOTH",
"515 -10 OFFCURVE",
"605 95 OFFCURVE",
"605 265 CURVE SMOOTH",
"605 435 OFFCURVE",
"515 540 OFFCURVE",
"375 540 CURVE SMOOTH",
"295 540 OFFCURVE",
"250 500 OFFCURVE",
"220 450 CURVE",
"210 450 LINE",
"210 720 LINE",
"60 720 LINE",
"60 -200 LINE"
);
},
{
closed = 1;
nodes = (
"255 100 OFFCURVE",
"215 165 OFFCURVE",
"215 265 CURVE SMOOTH",
"215 365 OFFCURVE",
"255 430 OFFCURVE",
"335 430 CURVE SMOOTH",
"415 430 OFFCURVE",
"455 365 OFFCURVE",
"455 265 CURVE SMOOTH",
"455 165 OFFCURVE",
"415 100 OFFCURVE",
"335 100 CURVE SMOOTH"
);
}
);
width = 635;
}
);
rightKerningGroup = b;
unicode = 00FE;
},
{
glyphname = q;
lastChange = "2025-12-24 17:11:12 +0000";
layers = (
{
anchors = (
{
name = bottom;
position = "{295, 0}";
},
{
name = top;
position = "{295, 520}";
}
);
hints = (
{
horizontal = 1;
origin = "{1, 11}";
target = "{0, 13}";
type = Stem;
},
{
horizontal = 1;
origin = "{0, 7}";
target = "{1, 5}";
type = Stem;
},
{
horizontal = 1;
origin = "{0, 2}";
target = down;
type = TopGhost;
},
{
origin = "{0, 10}";
target = "{1, 2}";
type = Stem;
},
{
origin = "{0, 18}";
target = "{0, 0}";
type = Stem;
},
{
origin = "{1, 8}";
target = "{0, 0}";
type = Stem;
}
);
layerId = "05246BF3-0764-4143-87C4-5D2B296D3790";
paths = (
{
closed = 1;
nodes = (
"540 -220 LINE",
"540 520 LINE",
"450 520 LINE",
"450 420 LINE",
"440 420 LINE",
"410 490 OFFCURVE",
"345 530 OFFCURVE",
"265 530 CURVE SMOOTH",
"135 530 OFFCURVE",
"45 420 OFFCURVE",
"45 260 CURVE SMOOTH",
"45 100 OFFCURVE",
"135 -10 OFFCURVE",
"265 -10 CURVE SMOOTH",
"345 -10 OFFCURVE",
"410 30 OFFCURVE",
"440 100 CURVE",
"450 100 LINE",
"450 -220 LINE"
);
},
{
closed = 1;
nodes = (
"195 70 OFFCURVE",
"135 130 OFFCURVE",
"135 260 CURVE SMOOTH",
"135 390 OFFCURVE",
"195 450 OFFCURVE",
"285 450 CURVE SMOOTH",
"375 450 OFFCURVE",
"445 390 OFFCURVE",
"445 260 CURVE SMOOTH",
"445 130 OFFCURVE",
"375 70 OFFCURVE",
"285 70 CURVE SMOOTH"
);
}
);
width = 615;
},
{
anchors = (
{
name = bottom;
position = "{320, 0}";
},
{
name = top;
position = "{320, 520}";
}
);
hints = (
{
horizontal = 1;
origin = "{0, 13}";
target = "{1, 11}";
type = Stem;
},
{
horizontal = 1;
origin = "{0, 7}";
target = "{1, 5}";
type = Stem;
},
{
horizontal = 1;
origin = "{0, 2}";
target = "{1, 5}";
type = Stem;
},
{
origin = "{0, 10}";
target = "{1, 2}";
type = Stem;
},
{
origin = "{0, 18}";
target = "{0, 0}";
type = Stem;
},
{
origin = "{1, 8}";
target = "{0, 0}";
type = Stem;
}
);
layerId = "B51EB05F-9FBB-4087-814F-400611B2D4B0";
paths = (
{
closed = 1;
nodes = (
"575 -200 LINE",
"575 530 LINE",
"425 530 LINE",
"425 450 LINE",
"415 450 LINE",
"385 500 OFFCURVE",
"340 540 OFFCURVE",
"260 540 CURVE SMOOTH",
"120 540 OFFCURVE",
"30 435 OFFCURVE",
"30 265 CURVE SMOOTH",
"30 95 OFFCURVE",
"120 -10 OFFCURVE",
"260 -10 CURVE SMOOTH",
"340 -10 OFFCURVE",
"385 30 OFFCURVE",
"415 80 CURVE",
"425 80 LINE",
"425 -200 LINE"
);
},
{
closed = 1;
nodes = (
"220 100 OFFCURVE",
"180 165 OFFCURVE",
"180 265 CURVE SMOOTH",
"180 365 OFFCURVE",
"220 430 OFFCURVE",
"300 430 CURVE SMOOTH",
"380 430 OFFCURVE",
"420 365 OFFCURVE",
"420 265 CURVE SMOOTH",
"420 165 OFFCURVE",
"380 100 OFFCURVE",
"300 100 CURVE SMOOTH"
);
}
);
width = 635;
}
);
leftKerningGroup = o;
rightKerningGroup = g;
unicode = 0071;
},
{
glyphname = r;
lastChange = "2025-12-24 17:11:12 +0000";
layers = (
{
anchors = (
{
name = bottom;
position = "{120, 0}";
},
{
name = top;
position = "{225, 520}";
}
);
hints = (
{
horizontal = 1;
origin = "{0, 14}";
target = up;
type = BottomGhost;
},
{
horizontal = 1;
origin = "{0, 13}";
target = "{0, 4}";
type = Stem;
},
{
origin = "{0, 14}";
target = "{0, 0}";
type = Stem;
}
);
layerId = "05246BF3-0764-4143-87C4-5D2B296D3790";
paths = (
{
closed = 1;
nodes = (
"165 0 LINE",
"165 280 LINE SMOOTH",
"165 390 OFFCURVE",
"230 440 OFFCURVE",
"300 440 CURVE",
"355 440 LINE",
"355 520 LINE",
"330 520 LINE",
"250 520 OFFCURVE",
"205 490 OFFCURVE",
"175 420 CURVE",
"165 420 LINE",
"165 520 LINE",
"75 520 LINE",
"75 0 LINE"
);
}
);
width = 370;
},
{
anchors = (
{
name = bottom;
position = "{135, 0}";
},
{
name = top;
position = "{275, 530}";
}
);
hints = (
{
horizontal = 1;
origin = "{0, 14}";
target = up;
type = BottomGhost;
},
{
horizontal = 1;
origin = "{0, 13}";
target = "{0, 4}";
type = Stem;
},
{
origin = "{0, 14}";
target = "{0, 0}";
type = Stem;
}
);
layerId = "B51EB05F-9FBB-4087-814F-400611B2D4B0";
paths = (
{
closed = 1;
nodes = (
"210 0 LINE",
"210 280 LINE SMOOTH",
"210 370 OFFCURVE",
"265 420 OFFCURVE",
"325 420 CURVE",
"415 420 LINE",
"415 530 LINE",
"365 530 LINE",
"295 530 OFFCURVE",
"250 510 OFFCURVE",
"220 450 CURVE",
"210 450 LINE",
"210 530 LINE",
"60 530 LINE",
"60 0 LINE"
);
}
);
width = 415;
}
);
leftKerningGroup = n;
rightKerningGroup = r;
unicode = 0072;
},
{
glyphname = s;
lastChange = "2025-12-24 17:11:12 +0000";
layers = (
{
anchors = (
{
name = bottom;
position = "{235, 0}";
},
{
name = top;
position = "{235, 530}";
}
);
hints = (
{
horizontal = 1;
origin = "{0, 37}";
target = "{0, 30}";
type = Stem;
},
{
horizontal = 1;
origin = "{0, 18}";
target = "{0, 11}";
type = Stem;
},
{
origin = "{0, 21}";
target = "{0, 8}";
type = Stem;
},
{
origin = "{0, 27}";
target = "{0, 2}";
type = Stem;
},
{
origin = "{0, 14}";
target = "{0, 15}";
type = Stem;
}
);
layerId = "05246BF3-0764-4143-87C4-5D2B296D3790";
paths = (
{
closed = 1;
nodes = (
"355 -10 OFFCURVE",
"450 40 OFFCURVE",
"450 150 CURVE SMOOTH",
"450 240 OFFCURVE",
"385 280 OFFCURVE",
"255 304 CURVE SMOOTH",
"175 319 OFFCURVE",
"145 335 OFFCURVE",
"145 375 CURVE SMOOTH",
"145 425 OFFCURVE",
"185 450 OFFCURVE",
"235 450 CURVE SMOOTH",
"315 450 OFFCURVE",
"338 415 OFFCURVE",
"348 385 CURVE",
"438 385 LINE",
"427 469 OFFCURVE",
"345 530 OFFCURVE",
"235 530 CURVE SMOOTH",
"125 530 OFFCURVE",
"55 455 OFFCURVE",
"55 375 CURVE SMOOTH",
"55 275 OFFCURVE",
"115 248 OFFCURVE",
"235 226 CURVE SMOOTH",
"305 213 OFFCURVE",
"360 200 OFFCURVE",
"360 150 CURVE SMOOTH",
"360 90 OFFCURVE",
"305 70 OFFCURVE",
"235 70 CURVE SMOOTH",
"175 70 OFFCURVE",
"135 105 OFFCURVE",
"125 135 CURVE",
"35 135 LINE",
"45 65 OFFCURVE",
"115 -10 OFFCURVE",
"235 -10 CURVE SMOOTH"
);
}
);
width = 485;
},
{
anchors = (
{
name = bottom;
position = "{256, 0}";
},
{
name = top;
position = "{256, 540}";
}
);
hints = (
{
horizontal = 1;
origin = "{0, 37}";
target = "{0, 30}";
type = Stem;
},
{
horizontal = 1;
origin = "{0, 18}";
target = "{0, 11}";
type = Stem;
},
{
horizontal = 1;
origin = "{0, 18}";
target = "{0, 14}";
type = Stem;
},
{
horizontal = 1;
origin = "{0, 37}";
target = "{0, 34}";
type = Stem;
},
{
origin = "{0, 21}";
target = "{0, 8}";
type = Stem;
},
{
origin = "{0, 27}";
target = "{0, 2}";
type = Stem;
}
);
layerId = "B51EB05F-9FBB-4087-814F-400611B2D4B0";
paths = (
{
closed = 1;
nodes = (
"391 -10 OFFCURVE",
"491 35 OFFCURVE",
"491 160 CURVE SMOOTH",
"491 250 OFFCURVE",
"426 303 OFFCURVE",
"256 325 CURVE SMOOTH",
"202 332 OFFCURVE",
"196 360 OFFCURVE",
"196 385 CURVE SMOOTH",
"196 410 OFFCURVE",
"216 430 OFFCURVE",
"256 430 CURVE SMOOTH",
"301 430 OFFCURVE",
"320 416 OFFCURVE",
"329 375 CURVE",
"479 375 LINE",
"468 474 OFFCURVE",
"401 540 OFFCURVE",
"256 540 CURVE SMOOTH",
"141 540 OFFCURVE",
"46 485 OFFCURVE",
"46 365 CURVE SMOOTH",
"46 265 OFFCURVE",
"136 220 OFFCURVE",
"256 205 CURVE SMOOTH",
"318 197 OFFCURVE",
"341 180 OFFCURVE",
"341 150 CURVE SMOOTH",
"341 110 OFFCURVE",
"306 100 OFFCURVE",
"256 100 CURVE SMOOTH",
"211 100 OFFCURVE",
"190 112 OFFCURVE",
"175 150 CURVE",
"25 150 LINE",
"37 50 OFFCURVE",
"121 -10 OFFCURVE",
"256 -10 CURVE SMOOTH"
);
}
);
width = 516;
}
);
leftKerningGroup = s;
rightKerningGroup = s;
unicode = 0073;
},
{
glyphname = germandbls;
lastChange = "2025-12-24 17:11:12 +0000";
layers = (
{
hints = (
{
horizontal = 1;
origin = "{0, 35}";
target = "{0, 17}";
type = Stem;
},
{
horizontal = 1;
origin = "{0, 31}";
target = "{0, 4}";
type = Stem;
},
{
origin = "{0, 35}";
target = "{0, 0}";
type = Stem;
},
{
origin = "{0, 18}";
target = "{0, 25}";
type = Stem;
},
{
origin = "{0, 13}";
target = "{0, 22}";
type = Stem;
},
{
origin = "{0, 7}";
target = "{0, 28}";
type = Stem;
}
);
layerId = "05246BF3-0764-4143-87C4-5D2B296D3790";
paths = (
{
closed = 1;
nodes = (
"170 0 LINE",
"170 540 LINE",
"170 610 OFFCURVE",
"200 660 OFFCURVE",
"280 660 CURVE SMOOTH",
"360 660 OFFCURVE",
"390 610 OFFCURVE",
"390 540 CURVE SMOOTH",
"390 460 OFFCURVE",
"270 490 OFFCURVE",
"270 380 CURVE SMOOTH",
"270 240 OFFCURVE",
"449 320 OFFCURVE",
"449 170 CURVE SMOOTH",
"449 90 OFFCURVE",
"370 70 OFFCURVE",
"290 70 CURVE",
"270 70 LINE",
"270 0 LINE",
"290 0 LINE",
"400 0 OFFCURVE",
"529 23 OFFCURVE",
"529 170 CURVE SMOOTH",
"529 350 OFFCURVE",
"350 320 OFFCURVE",
"350 380 CURVE SMOOTH",
"350 440 OFFCURVE",
"470 420 OFFCURVE",
"470 540 CURVE SMOOTH",
"470 650 OFFCURVE",
"400 730 OFFCURVE",
"280 730 CURVE SMOOTH",
"160 730 OFFCURVE",
"90 650 OFFCURVE",
"90 540 CURVE",
"90 0 LINE"
);
}
);
width = 588;
},
{
hints = (
{
horizontal = 1;
origin = "{0, 35}";
target = "{0, 17}";
type = Stem;
},
{
horizontal = 1;
origin = "{0, 31}";
target = "{0, 4}";
type = Stem;
},
{
origin = "{0, 35}";
target = "{0, 0}";
type = Stem;
},
{
origin = "{0, 13}";
target = "{0, 22}";
type = Stem;
},
{
origin = "{0, 7}";
target = "{0, 28}";
type = Stem;
},
{
origin = "{0, 18}";
target = "{0, 25}";
type = Stem;
}
);
layerId = "B51EB05F-9FBB-4087-814F-400611B2D4B0";
paths = (
{
closed = 1;
nodes = (
"195 0 LINE",
"195 540 LINE",
"195 590 OFFCURVE",
"220 620 OFFCURVE",
"280 620 CURVE SMOOTH",
"340 620 OFFCURVE",
"360 590 OFFCURVE",
"360 540 CURVE SMOOTH",
"360 475 OFFCURVE",
"240 505 OFFCURVE",
"240 380 CURVE SMOOTH",
"240 225 OFFCURVE",
"417 305 OFFCURVE",
"417 170 CURVE SMOOTH",
"417 105 OFFCURVE",
"355 110 OFFCURVE",
"300 110 CURVE",
"240 110 LINE",
"240 0 LINE",
"300 0 LINE",
"425 0 OFFCURVE",
"567 8 OFFCURVE",
"567 170 CURVE SMOOTH",
"567 365 OFFCURVE",
"390 335 OFFCURVE",
"390 380 CURVE SMOOTH",
"390 425 OFFCURVE",
"510 405 OFFCURVE",
"510 540 CURVE SMOOTH",
"510 665 OFFCURVE",
"415 730 OFFCURVE",
"280 730 CURVE SMOOTH",
"145 730 OFFCURVE",
"45 665 OFFCURVE",
"45 540 CURVE",
"45 0 LINE"
);
}
);
width = 588;
}
);
leftKerningGroup = f;
rightKerningGroup = germandbls;
unicode = 00DF;
},
{
glyphname = t;
lastChange = "2025-12-24 17:11:12 +0000";
layers = (
{
anchors = (
{
name = bottom;
position = "{205, 10}";
},
{
name = center;
position = "{183, 260}";
},
{
name = top;
position = "{150, 680}";
},
{
name = topright;
position = "{350, 520}";
}
);
hints = (
{
horizontal = 1;
origin = "{1, 9}";
target = "{1, 2}";
type = Stem;
},
{
horizontal = 1;
origin = "{2, 2}";
target = "{2, 3}";
type = Stem;
},
{
origin = "{0, 3}";
target = "{1, 0}";
type = Stem;
},
{
origin = "{0, 3}";
target = "{0, 0}";
type = Stem;
}
);
layerId = "05246BF3-0764-4143-87C4-5D2B296D3790";
paths = (
{
closed = 1;
nodes = (
"195 120 LINE",
"195 680 LINE",
"105 680 LINE",
"105 110 LINE"
);
},
{
closed = 1;
nodes = (
"320 0 LINE",
"320 80 LINE",
"235 80 LINE SMOOTH",
"215 80 OFFCURVE",
"195 90 OFFCURVE",
"195 120 CURVE",
"105 110 LINE",
"105 40 OFFCURVE",
"155 0 OFFCURVE",
"205 0 CURVE SMOOTH"
);
},
{
closed = 1;
nodes = (
"320 440 LINE",
"320 520 LINE",
"30 520 LINE",
"30 440 LINE"
);
}
);
width = 350;
},
{
anchors = (
{
name = bottom;
position = "{240, 10}";
},
{
name = center;
position = "{170, 260}";
},
{
name = top;
position = "{165, 680}";
},
{
name = topright;
position = "{337, 525}";
}
);
hints = (
{
horizontal = 1;
origin = "{1, 9}";
target = "{1, 2}";
type = Stem;
},
{
horizontal = 1;
origin = "{2, 2}";
target = "{2, 3}";
type = Stem;
},
{
origin = "{0, 3}";
target = "{1, 9}";
type = Stem;
}
);
layerId = "B51EB05F-9FBB-4087-814F-400611B2D4B0";
paths = (
{
closed = 1;
nodes = (
"240 150 LINE",
"240 680 LINE",
"90 680 LINE",
"90 140 LINE"
);
},
{
closed = 1;
nodes = (
"360 0 LINE",
"360 110 LINE",
"280 110 LINE SMOOTH",
"260 110 OFFCURVE",
"240 120 OFFCURVE",
"240 150 CURVE",
"90 140 LINE",
"90 50 OFFCURVE",
"160 0 OFFCURVE",
"240 0 CURVE SMOOTH"
);
},
{
closed = 1;
nodes = (
"360 420 LINE",
"360 530 LINE",
"20 530 LINE",
"20 420 LINE"
);
}
);
width = 380;
}
);
leftKerningGroup = t;
rightKerningGroup = t;
unicode = 0074;
},
{
glyphname = tbar;
lastChange = "2025-12-24 17:11:12 +0000";
layers = (
{
components = (
{
name = t;
}
);
hints = (
{
horizontal = 1;
origin = "{0, 3}";
target = "{0, 2}";
type = Stem;
},
{
origin = "{0, 3}";
target = "{0, 0}";
type = Stem;
}
);
layerId = "05246BF3-0764-4143-87C4-5D2B296D3790";
paths = (
{
closed = 1;
nodes = (
"299 237 LINE",
"299 307 LINE",
"29 307 LINE",
"29 237 LINE"
);
}
);
width = 343;
},
{
components = (
{
name = t;
}
);
hints = (
{
horizontal = 1;
origin = "{0, 3}";
target = "{0, 2}";
type = Stem;
},
{
origin = "{0, 3}";
target = "{0, 0}";
type = Stem;
}
);
layerId = "B51EB05F-9FBB-4087-814F-400611B2D4B0";
paths = (
{
closed = 1;
nodes = (
"359 217 LINE",
"359 327 LINE",
"19 327 LINE",
"19 217 LINE"
);
}
);
width = 383;
}
);
unicode = 0167;
},
{
glyphname = tcaron;
lastChange = "2025-12-24 17:11:12 +0000";
layers = (
{
anchors = (
{
name = bottom;
position = "{205, 10}";
},
{
name = center;
position = "{183, 260}";
},
{
name = top;
position = "{150, 680}";
},
{
name = topright;
position = "{350, 520}";
}
);
hints = (
{
horizontal = 1;
origin = "{1, 9}";
target = "{1, 2}";
type = Stem;
},
{
horizontal = 1;
origin = "{2, 2}";
target = "{2, 3}";
type = Stem;
},
{
horizontal = 1;
origin = "{3, 6}";
target = "{3, 7}";
type = Stem;
},
{
horizontal = 1;
origin = "{4, 2}";
target = "{4, 3}";
type = Stem;
},
{
horizontal = 1;
origin = "{0, 2}";
target = "{3, 7}";
type = Stem;
},
{
origin = "{0, 3}";
target = "{0, 0}";
type = Stem;
},
{
origin = "{4, 3}";
target = "{3, 2}";
type = Stem;
},
{
origin = "{3, 3}";
target = "{3, 2}";
type = Stem;
},
{
origin = "{3, 7}";
target = "{1, 0}";
type = Stem;
},
{
origin = "{0, 3}";
target = "{1, 0}";
type = Stem;
}
);
layerId = "05246BF3-0764-4143-87C4-5D2B296D3790";
paths = (
{
closed = 1;
nodes = (
"195 120 LINE",
"195 680 LINE",
"105 680 LINE",
"105 110 LINE"
);
},
{
closed = 1;
nodes = (
"320 0 LINE",
"320 80 LINE",
"235 80 LINE SMOOTH",
"215 80 OFFCURVE",
"195 90 OFFCURVE",
"195 120 CURVE",
"105 110 LINE",
"105 40 OFFCURVE",
"155 0 OFFCURVE",
"205 0 CURVE SMOOTH"
);
},
{
closed = 1;
nodes = (
"320 440 LINE",
"320 520 LINE",
"30 520 LINE",
"30 440 LINE"
);
},
{
closed = 1;
nodes = (
"310 560 OFFCURVE",
"350 616 OFFCURVE",
"350 686 CURVE",
"300 686 LINE",
"300 646 OFFCURVE",
"290 600 OFFCURVE",
"250 590 CURVE",
"250 560 LINE"
);
},
{
closed = 1;
nodes = (
"350 686 LINE",
"350 780 LINE",
"260 780 LINE",
"260 686 LINE"
);
}
);
width = 350;
},
{
anchors = (
{
name = bottom;
position = "{240, 10}";
},
{
name = center;
position = "{170, 260}";
},
{
name = top;
position = "{165, 680}";
},
{
name = topright;
position = "{337, 525}";
}
);
hints = (
{
horizontal = 1;
origin = "{1, 9}";
target = "{1, 2}";
type = Stem;
},
{
horizontal = 1;
origin = "{2, 2}";
target = "{2, 3}";
type = Stem;
},
{
horizontal = 1;
origin = "{3, 7}";
target = "{0, 2}";
type = Stem;
},
{
horizontal = 1;
origin = "{4, 3}";
target = "{4, 2}";
type = Stem;
},
{
origin = "{0, 3}";
target = "{1, 9}";
type = Stem;
},
{
origin = "{1, 2}";
target = "{3, 2}";
type = Stem;
},
{
origin = "{3, 3}";
target = "{3, 2}";
type = Stem;
},
{
origin = "{1, 2}";
target = "{1, 0}";
type = Stem;
}
);
layerId = "B51EB05F-9FBB-4087-814F-400611B2D4B0";
paths = (
{
closed = 1;
nodes = (
"240 150 LINE",
"240 680 LINE",
"90 680 LINE",
"90 140 LINE"
);
},
{
closed = 1;
nodes = (
"360 0 LINE",
"360 110 LINE",
"280 110 LINE SMOOTH",
"260 110 OFFCURVE",
"240 120 OFFCURVE",
"240 150 CURVE",
"90 140 LINE",
"90 50 OFFCURVE",
"160 0 OFFCURVE",
"240 0 CURVE SMOOTH"
);
},
{
closed = 1;
nodes = (
"360 420 LINE",
"360 530 LINE",
"20 530 LINE",
"20 420 LINE"
);
},
{
closed = 1;
nodes = (
"340 570 OFFCURVE",
"380 626 OFFCURVE",
"380 696 CURVE",
"320 696 LINE",
"320 656 OFFCURVE",
"320 610 OFFCURVE",
"280 600 CURVE",
"280 570 LINE"
);
},
{
closed = 1;
nodes = (
"380 696 LINE",
"380 790 LINE",
"280 790 LINE",
"280 696 LINE"
);
}
);
width = 380;
}
);
unicode = 0165;
},
{
glyphname = u;
lastChange = "2025-12-24 17:11:12 +0000";
layers = (
{
anchors = (
{
name = bottom;
position = "{405, 0}";
},
{
name = ogonek;
position = "{475, 10}";
},
{
name = top;
position = "{270, 520}";
},
{
name = topright;
position = "{510, 520}";
}
);
hints = (
{
horizontal = 1;
origin = "{0, 11}";
target = "{0, 20}";
type = Stem;
},
{
horizontal = 1;
origin = "{0, 16}";
target = down;
type = TopGhost;
},
{
horizontal = 1;
origin = "{0, 4}";
target = up;
type = BottomGhost;
},
{
origin = "{0, 17}";
target = "{0, 14}";
type = Stem;
},
{
origin = "{0, 4}";
target = "{0, 5}";
type = Stem;
}
);
layerId = "05246BF3-0764-4143-87C4-5D2B296D3790";
paths = (
{
closed = 1;
nodes = (
"320 -10 OFFCURVE",
"365 30 OFFCURVE",
"395 100 CURVE",
"405 100 LINE",
"405 0 LINE",
"495 0 LINE",
"495 520 LINE",
"405 520 LINE",
"405 240 LINE SMOOTH",
"405 130 OFFCURVE",
"340 70 OFFCURVE",
"270 70 CURVE SMOOTH",
"200 70 OFFCURVE",
"155 100 OFFCURVE",
"155 190 CURVE",
"155 520 LINE",
"65 520 LINE",
"65 190 LINE",
"65 50 OFFCURVE",
"140 -10 OFFCURVE",
"240 -10 CURVE SMOOTH"
);
}
);
width = 570;
},
{
anchors = (
{
name = bottom;
position = "{380, 0}";
},
{
name = ogonek;
position = "{495, 10}";
},
{
name = top;
position = "{285, 530}";
},
{
name = topright;
position = "{530, 520}";
}
);
hints = (
{
horizontal = 1;
origin = "{0, 11}";
target = "{0, 20}";
type = Stem;
},
{
horizontal = 1;
origin = "{0, 16}";
target = down;
type = TopGhost;
},
{
horizontal = 1;
origin = "{0, 11}";
target = "{0, 4}";
type = Stem;
},
{
origin = "{0, 17}";
target = "{0, 14}";
type = Stem;
},
{
origin = "{0, 4}";
target = "{0, 5}";
type = Stem;
}
);
layerId = "B51EB05F-9FBB-4087-814F-400611B2D4B0";
paths = (
{
closed = 1;
nodes = (
"295 -10 OFFCURVE",
"340 20 OFFCURVE",
"370 80 CURVE",
"380 80 LINE",
"380 0 LINE",
"530 0 LINE",
"530 530 LINE",
"380 530 LINE",
"380 250 LINE",
"380 160 OFFCURVE",
"345 100 OFFCURVE",
"285 100 CURVE",
"225 100 OFFCURVE",
"200 130 OFFCURVE",
"200 200 CURVE SMOOTH",
"200 530 LINE",
"50 530 LINE",
"50 200 LINE SMOOTH",
"50 60 OFFCURVE",
"125 -10 OFFCURVE",
"225 -10 CURVE"
);
}
);
width = 590;
}
);
leftKerningGroup = u;
rightKerningGroup = g;
unicode = 0075;
},
{
glyphname = v;
lastChange = "2025-12-24 17:11:12 +0000";
layers = (
{
anchors = (
{
name = bottom;
position = "{240, 0}";
},
{
name = top;
position = "{240, 520}";
}
);
hints = (
{
horizontal = 1;
origin = "{0, 5}";
target = "{0, 4}";
type = Stem;
},
{
horizontal = 1;
origin = "{1, 4}";
target = down;
type = TopGhost;
}
);
layerId = "05246BF3-0764-4143-87C4-5D2B296D3790";
paths = (
{
closed = 1;
nodes = (
"314 0 LINE",
"504 520 LINE",
"410 520 LINE",
"267 110 LINE",
"257 110 LINE",
"210 0 LINE"
);
},
{
closed = 1;
nodes = (
"314 0 LINE",
"267 110 LINE",
"257 110 LINE",
"114 520 LINE",
"20 520 LINE",
"210 0 LINE"
);
}
);
width = 524;
},
{
anchors = (
{
name = bottom;
position = "{274, 0}";
},
{
name = top;
position = "{274, 520}";
}
);
hints = (
{
horizontal = 1;
origin = "{0, 5}";
target = "{0, 4}";
type = Stem;
},
{
horizontal = 1;
origin = "{1, 4}";
target = down;
type = TopGhost;
}
);
layerId = "B51EB05F-9FBB-4087-814F-400611B2D4B0";
paths = (
{
closed = 1;
nodes = (
"363 0 LINE",
"557 530 LINE",
"403 530 LINE",
"291 196 LINE",
"281 196 LINE",
"209 0 LINE"
);
},
{
closed = 1;
nodes = (
"363 0 LINE",
"291 196 LINE",
"281 196 LINE",
"169 530 LINE",
"15 530 LINE",
"209 0 LINE"
);
}
);
width = 572;
}
);
leftKerningGroup = v;
rightKerningGroup = v;
unicode = 0076;
},
{
glyphname = w;
lastChange = "2025-12-24 17:11:12 +0000";
layers = (
{
anchors = (
{
name = bottom;
position = "{417, 0}";
},
{
name = top;
position = "{417, 520}";
}
);
hints = (
{
horizontal = 1;
origin = "{1, 5}";
target = "{1, 2}";
type = Stem;
},
{
horizontal = 1;
origin = "{1, 4}";
target = "{2, 1}";
type = Stem;
}
);
layerId = "05246BF3-0764-4143-87C4-5D2B296D3790";
paths = (
{
closed = 1;
nodes = (
"639 0 LINE",
"799 520 LINE",
"705 520 LINE",
"592 110 LINE",
"582 110 LINE",
"535 0 LINE"
);
},
{
closed = 1;
nodes = (
"299 0 LINE",
"252 110 LINE",
"242 110 LINE",
"129 520 LINE",
"35 520 LINE",
"195 0 LINE"
);
},
{
closed = 1;
nodes = (
"299 0 LINE",
"412 397 LINE",
"422 397 LINE",
"469 520 LINE",
"365 520 LINE",
"252 110 LINE",
"242 110 LINE",
"195 0 LINE"
);
},
{
closed = 1;
nodes = (
"639 0 LINE",
"592 110 LINE",
"582 110 LINE",
"469 520 LINE",
"365 520 LINE",
"412 397 LINE",
"422 397 LINE",
"535 0 LINE"
);
}
);
width = 834;
},
{
anchors = (
{
name = bottom;
position = "{416, 0}";
},
{
name = top;
position = "{416, 530}";
}
);
hints = (
{
horizontal = 1;
origin = "{1, 5}";
target = "{1, 2}";
type = Stem;
},
{
horizontal = 1;
origin = "{1, 4}";
target = down;
type = TopGhost;
},
{
horizontal = 1;
origin = "{1, 5}";
target = up;
type = BottomGhost;
},
{
horizontal = 1;
origin = "{1, 4}";
target = "{2, 1}";
type = Stem;
}
);
layerId = "B51EB05F-9FBB-4087-814F-400611B2D4B0";
paths = (
{
closed = 1;
nodes = (
"654 0 LINE",
"817 530 LINE",
"667 530 LINE",
"584 210 LINE",
"574 210 LINE",
"504 0 LINE"
);
},
{
closed = 1;
nodes = (
"328 0 LINE",
"258 210 LINE",
"248 210 LINE",
"165 530 LINE",
"15 530 LINE",
"178 0 LINE"
);
},
{
closed = 1;
nodes = (
"328 0 LINE",
"411 320 LINE",
"421 320 LINE",
"491 530 LINE",
"341 530 LINE",
"258 210 LINE",
"248 210 LINE",
"178 0 LINE"
);
},
{
closed = 1;
nodes = (
"654 0 LINE",
"584 210 LINE",
"574 210 LINE",
"491 530 LINE",
"341 530 LINE",
"411 320 LINE",
"421 320 LINE",
"504 0 LINE"
);
}
);
width = 832;
}
);
leftKerningGroup = v;
rightKerningGroup = v;
unicode = 0077;
},
{
glyphname = x;
lastChange = "2025-12-24 17:11:13 +0000";
layers = (
{
anchors = (
{
name = bottom;
position = "{264, 0}";
},
{
name = top;
position = "{264, 520}";
}
);
hints = (
{
horizontal = 1;
origin = "{1, 7}";
target = up;
type = BottomGhost;
},
{
horizontal = 1;
origin = "{0, 4}";
target = down;
type = TopGhost;
}
);
layerId = "05246BF3-0764-4143-87C4-5D2B296D3790";
paths = (
{
closed = 1;
nodes = (
"505 0 LINE",
"267 360 LINE",
"263 360 LINE",
"155 520 LINE",
"55 520 LINE",
"263 205 LINE",
"267 205 LINE",
"405 0 LINE"
);
},
{
closed = 1;
nodes = (
"125 0 LINE",
"263 205 LINE",
"267 205 LINE",
"475 520 LINE",
"375 520 LINE",
"267 360 LINE",
"263 360 LINE",
"25 0 LINE"
);
}
);
width = 530;
},
{
anchors = (
{
name = bottom;
position = "{274, 0}";
},
{
name = top;
position = "{274, 520}";
}
);
hints = (
{
horizontal = 1;
origin = "{1, 7}";
target = up;
type = BottomGhost;
},
{
horizontal = 1;
origin = "{0, 4}";
target = down;
type = TopGhost;
}
);
layerId = "B51EB05F-9FBB-4087-814F-400611B2D4B0";
paths = (
{
closed = 1;
nodes = (
"540 0 LINE",
"280 401 LINE",
"270 401 LINE",
"187 530 LINE",
"27 530 LINE",
"270 155 LINE",
"280 155 LINE",
"380 0 LINE"
);
},
{
closed = 1;
nodes = (
"170 0 LINE",
"270 155 LINE",
"280 155 LINE",
"523 530 LINE",
"363 530 LINE",
"280 401 LINE",
"270 401 LINE",
"10 0 LINE"
);
}
);
width = 550;
}
);
leftKerningGroup = x;
rightKerningGroup = x;
unicode = 0078;
},
{
glyphname = y;
lastChange = "2025-12-24 17:11:13 +0000";
layers = (
{
anchors = (
{
name = bottom;
position = "{269, 0}";
},
{
name = top;
position = "{270, 520}";
}
);
hints = (
{
horizontal = 1;
origin = "{1, 8}";
target = "{1, 9}";
type = Stem;
},
{
horizontal = 1;
origin = "{3, 4}";
target = down;
type = TopGhost;
}
);
layerId = "05246BF3-0764-4143-87C4-5D2B296D3790";
paths = (
{
closed = 1;
nodes = (
"320 0 LINE",
"520 520 LINE",
"425 520 LINE",
"272 110 LINE",
"268 110 LINE",
"220 0 LINE"
);
},
{
closed = 1;
nodes = (
"168 -220 LINE SMOOTH",
"207 -220 OFFCURVE",
"250 -195 OFFCURVE",
"266 -152 CURVE",
"181 -114 LINE",
"174 -132 OFFCURVE",
"155 -140 OFFCURVE",
"139 -140 CURVE SMOOTH",
"73 -140 LINE",
"73 -220 LINE"
);
},
{
closed = 1;
nodes = (
"320 0 LINE",
"220 0 LINE",
"181 -114 LINE",
"266 -152 LINE"
);
},
{
closed = 1;
nodes = (
"320 0 LINE",
"272 110 LINE",
"268 110 LINE",
"115 520 LINE",
"20 520 LINE",
"220 0 LINE"
);
}
);
width = 540;
},
{
anchors = (
{
name = bottom;
position = "{263, 0}";
},
{
name = top;
position = "{294, 530}";
}
);
hints = (
{
horizontal = 1;
origin = "{1, 8}";
target = "{1, 9}";
type = Stem;
},
{
horizontal = 1;
origin = "{3, 4}";
target = down;
type = TopGhost;
}
);
layerId = "B51EB05F-9FBB-4087-814F-400611B2D4B0";
paths = (
{
closed = 1;
nodes = (
"374 0 LINE",
"578 530 LINE",
"423 530 LINE",
"299 188 LINE",
"289 188 LINE",
"214 0 LINE"
);
},
{
closed = 1;
nodes = (
"228 -220 LINE SMOOTH",
"267 -220 OFFCURVE",
"310 -195 OFFCURVE",
"326 -152 CURVE",
"189 -84 LINE",
"180 -106 OFFCURVE",
"165 -110 OFFCURVE",
"139 -110 CURVE SMOOTH",
"83 -110 LINE",
"83 -220 LINE"
);
},
{
closed = 1;
nodes = (
"374 0 LINE",
"214 0 LINE",
"189 -84 LINE",
"326 -152 LINE"
);
},
{
closed = 1;
nodes = (
"374 0 LINE",
"299 188 LINE",
"289 188 LINE",
"165 530 LINE",
"10 530 LINE",
"214 0 LINE"
);
}
);
width = 588;
}
);
leftKerningGroup = y;
rightKerningGroup = y;
unicode = 0079;
},
{
glyphname = z;
lastChange = "2025-12-24 17:11:13 +0000";
layers = (
{
anchors = (
{
name = bottom;
position = "{232, 0}";
},
{
name = center;
position = "{230, 260}";
},
{
name = top;
position = "{232, 520}";
}
);
hints = (
{
horizontal = 1;
origin = "{1, 3}";
target = "{0, 3}";
type = Stem;
},
{
horizontal = 1;
origin = "{2, 2}";
target = "{2, 3}";
type = Stem;
}
);
layerId = "05246BF3-0764-4143-87C4-5D2B296D3790";
paths = (
{
closed = 1;
nodes = (
"145 80 LINE",
"420 440 LINE",
"315 440 LINE",
"40 80 LINE"
);
},
{
closed = 1;
nodes = (
"420 0 LINE",
"420 80 LINE",
"40 80 LINE",
"40 0 LINE"
);
},
{
closed = 1;
nodes = (
"420 440 LINE",
"420 520 LINE",
"45 520 LINE",
"45 440 LINE"
);
}
);
width = 460;
},
{
anchors = (
{
name = bottom;
position = "{242, 0}";
},
{
name = center;
position = "{240, 260}";
},
{
name = top;
position = "{242, 530}";
}
);
hints = (
{
horizontal = 1;
origin = "{1, 3}";
target = "{0, 3}";
type = Stem;
},
{
horizontal = 1;
origin = "{2, 2}";
target = "{2, 3}";
type = Stem;
},
{
origin = "{1, 3}";
target = "{1, 0}";
type = Stem;
}
);
layerId = "B51EB05F-9FBB-4087-814F-400611B2D4B0";
paths = (
{
closed = 1;
nodes = (
"205 110 LINE",
"460 420 LINE",
"275 420 LINE",
"20 110 LINE"
);
},
{
closed = 1;
nodes = (
"460 0 LINE",
"460 110 LINE",
"20 110 LINE",
"20 0 LINE"
);
},
{
closed = 1;
nodes = (
"460 420 LINE",
"460 530 LINE",
"25 530 LINE",
"25 420 LINE"
);
}
);
width = 480;
}
);
leftKerningGroup = z;
rightKerningGroup = z;
unicode = 007A;
},
{
glyphname = fi;
lastChange = "2025-12-24 17:11:13 +0000";
layers = (
{
anchors = (
{
name = bottom;
position = "{173, 0}";
},
{
name = top;
position = "{173, 780}";
}
);
hints = (
{
horizontal = 1;
origin = "{0, 3}";
target = up;
type = BottomGhost;
},
{
horizontal = 1;
origin = "{2, 2}";
target = "{2, 3}";
type = Stem;
},
{
horizontal = 1;
origin = "{4, 5}";
target = "{4, 11}";
type = Stem;
},
{
horizontal = 1;
origin = "{3, 5}";
target = "{3, 2}";
type = Stem;
},
{
origin = "{0, 3}";
target = "{0, 0}";
type = Stem;
},
{
origin = "{4, 8}";
target = "{4, 2}";
type = Stem;
},
{
origin = "{1, 3}";
target = "{1, 0}";
type = Stem;
}
);
layerId = "05246BF3-0764-4143-87C4-5D2B296D3790";
paths = (
{
closed = 1;
nodes = (
"200 0 LINE",
"200 600 LINE",
"110 610 LINE",
"110 0 LINE"
);
},
{
closed = 1;
nodes = (
"495 0 LINE",
"495 520 LINE",
"405 520 LINE",
"405 0 LINE"
);
},
{
closed = 1;
nodes = (
"495 440 LINE",
"495 520 LINE",
"35 520 LINE",
"35 440 LINE"
);
},
{
closed = 1;
nodes = (
"200 630 OFFCURVE",
"220 640 OFFCURVE",
"240 640 CURVE SMOOTH",
"325 640 LINE",
"325 720 LINE",
"210 720 LINE SMOOTH",
"160 720 OFFCURVE",
"110 680 OFFCURVE",
"110 610 CURVE",
"200 600 LINE"
);
},
{
closed = 1;
nodes = (
"481 620 OFFCURVE",
"505 644 OFFCURVE",
"505 675 CURVE SMOOTH",
"505 706 OFFCURVE",
"481 730 OFFCURVE",
"450 730 CURVE SMOOTH",
"419 730 OFFCURVE",
"395 706 OFFCURVE",
"395 675 CURVE SMOOTH",
"395 644 OFFCURVE",
"419 620 OFFCURVE",
"450 620 CURVE SMOOTH"
);
}
);
width = 570;
},
{
anchors = (
{
name = bottom;
position = "{185, 0}";
},
{
name = top;
position = "{185, 780}";
}
);
hints = (
{
horizontal = 1;
origin = "{0, 3}";
target = up;
type = BottomGhost;
},
{
horizontal = 1;
origin = "{2, 2}";
target = "{2, 3}";
type = Stem;
},
{
horizontal = 1;
origin = "{4, 5}";
target = "{0, 2}";
type = Stem;
},
{
horizontal = 1;
origin = "{3, 5}";
target = "{3, 2}";
type = Stem;
},
{
origin = "{0, 3}";
target = "{0, 0}";
type = Stem;
},
{
origin = "{4, 8}";
target = "{4, 2}";
type = Stem;
},
{
origin = "{1, 3}";
target = "{1, 0}";
type = Stem;
}
);
layerId = "B51EB05F-9FBB-4087-814F-400611B2D4B0";
paths = (
{
closed = 1;
nodes = (
"260 0 LINE",
"260 570 LINE",
"110 580 LINE",
"110 0 LINE"
);
},
{
closed = 1;
nodes = (
"610 0 LINE",
"610 530 LINE",
"460 530 LINE",
"460 0 LINE"
);
},
{
closed = 1;
nodes = (
"610 420 LINE",
"610 530 LINE",
"30 530 LINE",
"30 420 LINE"
);
},
{
closed = 1;
nodes = (
"260 600 OFFCURVE",
"270 610 OFFCURVE",
"300 610 CURVE SMOOTH",
"390 610 LINE",
"390 720 LINE",
"260 720 LINE SMOOTH",
"180 720 OFFCURVE",
"110 670 OFFCURVE",
"110 580 CURVE",
"260 570 LINE"
);
},
{
closed = 1;
nodes = (
"583 580 OFFCURVE",
"620 617 OFFCURVE",
"620 665 CURVE SMOOTH",
"620 713 OFFCURVE",
"583 750 OFFCURVE",
"535 750 CURVE SMOOTH",
"487 750 OFFCURVE",
"450 713 OFFCURVE",
"450 665 CURVE SMOOTH",
"450 617 OFFCURVE",
"487 580 OFFCURVE",
"535 580 CURVE SMOOTH"
);
}
);
width = 675;
}
);
leftKerningGroup = f;
rightKerningGroup = i;
unicode = FB01;
},
{
glyphname = fl;
lastChange = "2025-12-24 17:11:13 +0000";
layers = (
{
anchors = (
{
name = bottom;
position = "{177, 0}";
},
{
name = top;
position = "{177, 780}";
}
);
hints = (
{
horizontal = 1;
origin = "{1, 3}";
target = "{2, 2}";
type = Stem;
},
{
horizontal = 1;
origin = "{3, 2}";
target = "{3, 3}";
type = Stem;
},
{
horizontal = 1;
origin = "{4, 5}";
target = "{4, 2}";
type = Stem;
},
{
origin = "{1, 3}";
target = "{1, 0}";
type = Stem;
},
{
origin = "{0, 3}";
target = "{0, 0}";
type = Stem;
}
);
layerId = "05246BF3-0764-4143-87C4-5D2B296D3790";
paths = (
{
closed = 1;
nodes = (
"509 121 LINE",
"509 721 LINE",
"419 721 LINE",
"419 111 LINE"
);
},
{
closed = 1;
nodes = (
"204 1 LINE",
"204 601 LINE",
"114 611 LINE",
"114 1 LINE"
);
},
{
closed = 1;
nodes = (
"584 1 LINE",
"584 81 LINE",
"549 81 LINE",
"529 81 OFFCURVE",
"509 91 OFFCURVE",
"509 121 CURVE",
"419 111 LINE",
"419 41 OFFCURVE",
"469 1 OFFCURVE",
"519 1 CURVE"
);
},
{
closed = 1;
nodes = (
"329 441 LINE",
"329 521 LINE",
"39 521 LINE",
"39 441 LINE"
);
},
{
closed = 1;
nodes = (
"204 631 OFFCURVE",
"224 641 OFFCURVE",
"244 641 CURVE SMOOTH",
"509 641 LINE",
"509 721 LINE",
"214 721 LINE SMOOTH",
"164 721 OFFCURVE",
"114 681 OFFCURVE",
"114 611 CURVE",
"204 601 LINE"
);
}
);
width = 605;
},
{
anchors = (
{
name = bottom;
position = "{230, 0}";
},
{
name = top;
position = "{230, 780}";
}
);
hints = (
{
horizontal = 1;
origin = "{1, 3}";
target = "{2, 2}";
type = Stem;
},
{
horizontal = 1;
origin = "{3, 2}";
target = "{3, 3}";
type = Stem;
},
{
horizontal = 1;
origin = "{4, 5}";
target = "{4, 2}";
type = Stem;
},
{
origin = "{1, 3}";
target = "{1, 0}";
type = Stem;
},
{
origin = "{0, 3}";
target = "{2, 9}";
type = Stem;
}
);
layerId = "B51EB05F-9FBB-4087-814F-400611B2D4B0";
paths = (
{
closed = 1;
nodes = (
"610 150 LINE",
"610 720 LINE",
"460 720 LINE",
"460 140 LINE"
);
},
{
closed = 1;
nodes = (
"260 0 LINE",
"260 570 LINE",
"110 580 LINE",
"110 0 LINE"
);
},
{
closed = 1;
nodes = (
"705 0 LINE",
"705 110 LINE",
"650 110 LINE",
"630 110 OFFCURVE",
"610 120 OFFCURVE",
"610 150 CURVE",
"460 140 LINE",
"460 50 OFFCURVE",
"530 0 OFFCURVE",
"610 0 CURVE"
);
},
{
closed = 1;
nodes = (
"390 420 LINE",
"390 530 LINE",
"30 530 LINE",
"30 420 LINE"
);
},
{
closed = 1;
nodes = (
"260 600 OFFCURVE",
"270 610 OFFCURVE",
"300 610 CURVE SMOOTH",
"609 610 LINE",
"609 720 LINE",
"260 720 LINE SMOOTH",
"180 720 OFFCURVE",
"110 670 OFFCURVE",
"110 580 CURVE",
"260 570 LINE"
);
}
);
width = 720;
}
);
leftKerningGroup = f;
rightKerningGroup = l;
unicode = FB02;
},
{
glyphname = Delta;
lastChange = "2025-12-24 17:11:13 +0000";
layers = (
{
hints = (
{
horizontal = 1;
origin = "{1, 3}";
target = "{1, 2}";
type = Stem;
},
{
horizontal = 1;
origin = "{0, 2}";
target = down;
type = TopGhost;
},
{
horizontal = 1;
origin = "{0, 2}";
target = "{0, 3}";
type = Stem;
}
);
layerId = "05246BF3-0764-4143-87C4-5D2B296D3790";
paths = (
{
closed = 1;
nodes = (
"594 90 LINE",
"359 720 LINE",
"265 720 LINE",
"310 610 LINE",
"314 610 LINE",
"500 90 LINE"
);
},
{
closed = 1;
nodes = (
"594 0 LINE",
"594 90 LINE",
"30 90 LINE",
"30 0 LINE"
);
},
{
closed = 1;
nodes = (
"124 90 LINE",
"310 610 LINE",
"314 610 LINE",
"359 720 LINE",
"265 720 LINE",
"30 90 LINE"
);
}
);
width = 624;
},
{
hints = (
{
horizontal = 1;
origin = "{1, 3}";
target = "{1, 2}";
type = Stem;
},
{
horizontal = 1;
origin = "{0, 2}";
target = "{0, 3}";
type = Stem;
},
{
origin = "{1, 3}";
target = "{2, 0}";
type = Stem;
},
{
origin = "{0, 5}";
target = "{1, 0}";
type = Stem;
}
);
layerId = "B51EB05F-9FBB-4087-814F-400611B2D4B0";
paths = (
{
closed = 1;
nodes = (
"644 130 LINE",
"409 720 LINE",
"255 720 LINE",
"327 557 LINE",
"337 557 LINE",
"494 130 LINE"
);
},
{
closed = 1;
nodes = (
"644 0 LINE",
"644 130 LINE",
"20 130 LINE",
"20 0 LINE"
);
},
{
closed = 1;
nodes = (
"170 130 LINE",
"327 557 LINE",
"337 557 LINE",
"409 720 LINE",
"255 720 LINE",
"20 130 LINE"
);
}
);
width = 664;
}
);
leftKerningGroup = Delta;
rightKerningGroup = Delta;
unicode = 0394;
},
{
glyphname = Omega;
lastChange = "2025-12-24 17:11:13 +0000";
layers = (
{
hints = (
{
horizontal = 1;
origin = "{0, 31}";
target = "{0, 30}";
type = Stem;
},
{
horizontal = 1;
origin = "{0, 23}";
target = "{0, 7}";
type = Stem;
},
{
origin = "{0, 31}";
target = "{0, 4}";
type = Stem;
},
{
origin = "{0, 10}";
target = "{0, 15}";
type = Stem;
}
);
layerId = "05246BF3-0764-4143-87C4-5D2B296D3790";
paths = (
{
closed = 1;
nodes = (
"300 0 LINE",
"300 100 LINE",
"240 150 OFFCURVE",
"140 250 OFFCURVE",
"140 400 CURVE SMOOTH",
"140 550 OFFCURVE",
"220 650 OFFCURVE",
"370 650 CURVE SMOOTH",
"520 650 OFFCURVE",
"600 550 OFFCURVE",
"600 400 CURVE SMOOTH",
"600 250 OFFCURVE",
"500 150 OFFCURVE",
"440 100 CURVE",
"440 0 LINE",
"690 0 LINE",
"690 80 LINE",
"520 80 LINE",
"580 130 OFFCURVE",
"690 220 OFFCURVE",
"690 400 CURVE SMOOTH",
"690 580 OFFCURVE",
"570 730 OFFCURVE",
"370 730 CURVE SMOOTH",
"170 730 OFFCURVE",
"50 580 OFFCURVE",
"50 400 CURVE SMOOTH",
"50 220 OFFCURVE",
"160 130 OFFCURVE",
"220 80 CURVE",
"50 80 LINE",
"50 0 LINE"
);
}
);
width = 740;
},
{
hints = (
{
horizontal = 1;
origin = "{0, 31}";
target = "{0, 30}";
type = Stem;
},
{
horizontal = 1;
origin = "{0, 23}";
target = "{0, 7}";
type = Stem;
},
{
origin = "{0, 31}";
target = "{0, 4}";
type = Stem;
},
{
origin = "{0, 29}";
target = "{0, 0}";
type = Stem;
},
{
origin = "{0, 14}";
target = "{0, 17}";
type = Stem;
},
{
origin = "{0, 10}";
target = "{0, 15}";
type = Stem;
}
);
layerId = "B51EB05F-9FBB-4087-814F-400611B2D4B0";
paths = (
{
closed = 1;
nodes = (
"320 0 LINE",
"320 130 LINE",
"260 180 OFFCURVE",
"190 260 OFFCURVE",
"190 400 CURVE SMOOTH",
"190 540 OFFCURVE",
"250 620 OFFCURVE",
"380 620 CURVE SMOOTH",
"510 620 OFFCURVE",
"570 540 OFFCURVE",
"570 400 CURVE SMOOTH",
"570 260 OFFCURVE",
"500 180 OFFCURVE",
"440 130 CURVE",
"440 0 LINE",
"720 0 LINE",
"720 110 LINE",
"520 110 LINE",
"580 160 OFFCURVE",
"720 220 OFFCURVE",
"720 400 CURVE SMOOTH",
"720 590 OFFCURVE",
"590 730 OFFCURVE",
"380 730 CURVE SMOOTH",
"170 730 OFFCURVE",
"40 590 OFFCURVE",
"40 400 CURVE SMOOTH",
"40 220 OFFCURVE",
"180 160 OFFCURVE",
"240 110 CURVE",
"40 110 LINE",
"40 0 LINE"
);
}
);
width = 760;
}
);
leftKerningGroup = Omega;
rightKerningGroup = Omega;
unicode = 03A9;
},
{
glyphname = mu;
lastChange = "2025-12-24 17:11:13 +0000";
layers = (
{
hints = (
{
horizontal = 1;
origin = "{2, 9}";
target = "{2, 2}";
type = Stem;
},
{
horizontal = 1;
origin = "{0, 16}";
target = down;
type = TopGhost;
},
{
horizontal = 1;
origin = "{0, 20}";
target = "{0, 11}";
type = Stem;
},
{
origin = "{1, 3}";
target = "{1, 0}";
type = Stem;
},
{
origin = "{0, 4}";
target = "{0, 5}";
type = Stem;
}
);
layerId = "05246BF3-0764-4143-87C4-5D2B296D3790";
paths = (
{
closed = 1;
nodes = (
"330 -10 OFFCURVE",
"375 30 OFFCURVE",
"405 100 CURVE",
"415 100 LINE",
"415 90 LINE",
"505 120 LINE",
"505 520 LINE",
"415 520 LINE",
"415 240 LINE SMOOTH",
"415 130 OFFCURVE",
"350 70 OFFCURVE",
"280 70 CURVE SMOOTH",
"210 70 OFFCURVE",
"165 100 OFFCURVE",
"165 190 CURVE",
"165 520 LINE",
"75 520 LINE",
"125 190 LINE",
"125 90 OFFCURVE",
"160 -10 OFFCURVE",
"250 -10 CURVE SMOOTH"
);
},
{
closed = 1;
nodes = (
"165 -160 LINE",
"165 520 LINE",
"75 520 LINE",
"75 -160 LINE"
);
},
{
closed = 1;
nodes = (
"551 0 LINE",
"551 80 LINE",
"535 80 LINE SMOOTH",
"515 80 OFFCURVE",
"505 90 OFFCURVE",
"505 120 CURVE",
"415 90 LINE",
"415 20 OFFCURVE",
"465 0 OFFCURVE",
"515 0 CURVE SMOOTH"
);
}
);
width = 571;
},
{
hints = (
{
horizontal = 1;
origin = "{2, 9}";
target = "{2, 2}";
type = Stem;
},
{
horizontal = 1;
origin = "{1, 2}";
target = down;
type = TopGhost;
},
{
horizontal = 1;
origin = "{0, 20}";
target = "{0, 11}";
type = Stem;
},
{
origin = "{1, 3}";
target = "{1, 0}";
type = Stem;
},
{
origin = "{0, 4}";
target = "{0, 5}";
type = Stem;
}
);
layerId = "B51EB05F-9FBB-4087-814F-400611B2D4B0";
paths = (
{
closed = 1;
nodes = (
"345 -10 OFFCURVE",
"370 20 OFFCURVE",
"400 80 CURVE",
"410 80 LINE",
"410 70 LINE",
"560 150 LINE",
"560 530 LINE",
"410 530 LINE",
"410 250 LINE",
"410 160 OFFCURVE",
"365 100 OFFCURVE",
"305 100 CURVE",
"245 100 OFFCURVE",
"210 130 OFFCURVE",
"210 200 CURVE SMOOTH",
"210 530 LINE",
"150 530 LINE",
"150 200 LINE SMOOTH",
"150 80 OFFCURVE",
"195 -10 OFFCURVE",
"275 -10 CURVE"
);
},
{
closed = 1;
nodes = (
"210 -160 LINE",
"210 530 LINE",
"60 530 LINE",
"60 -160 LINE"
);
},
{
closed = 1;
nodes = (
"606 0 LINE",
"606 110 LINE",
"590 110 LINE",
"570 110 OFFCURVE",
"560 120 OFFCURVE",
"560 150 CURVE",
"410 70 LINE",
"410 30 OFFCURVE",
"450 0 OFFCURVE",
"500 0 CURVE"
);
}
);
width = 626;
}
);
leftKerningGroup = mu;
unicode = 03BC;
},
{
glyphname = pi;
lastChange = "2025-12-24 17:11:13 +0000";
layers = (
{
hints = (
{
horizontal = 1;
origin = "{0, 3}";
target = "{1, 2}";
type = Stem;
},
{
horizontal = 1;
origin = "{3, 2}";
target = "{3, 3}";
type = Stem;
},
{
origin = "{0, 3}";
target = "{0, 0}";
type = Stem;
},
{
origin = "{1, 6}";
target = "{1, 5}";
type = Stem;
}
);
layerId = "05246BF3-0764-4143-87C4-5D2B296D3790";
paths = (
{
closed = 1;
nodes = (
"210 0 LINE",
"210 520 LINE",
"120 520 LINE",
"120 0 LINE"
);
},
{
closed = 1;
nodes = (
"560 0 LINE",
"560 80 LINE",
"520 80 LINE SMOOTH",
"500 80 OFFCURVE",
"480 90 OFFCURVE",
"480 120 CURVE",
"390 110 LINE",
"390 40 OFFCURVE",
"440 0 OFFCURVE",
"490 0 CURVE SMOOTH"
);
},
{
closed = 1;
nodes = (
"480 120 LINE",
"480 520 LINE",
"390 520 LINE",
"390 110 LINE"
);
},
{
closed = 1;
nodes = (
"580 440 LINE",
"580 520 LINE",
"20 520 LINE",
"20 440 LINE"
);
}
);
width = 600;
},
{
hints = (
{
horizontal = 1;
origin = "{0, 3}";
target = "{1, 6}";
type = Stem;
},
{
horizontal = 1;
origin = "{3, 2}";
target = "{3, 3}";
type = Stem;
},
{
origin = "{0, 3}";
target = "{0, 0}";
type = Stem;
},
{
origin = "{1, 6}";
target = "{1, 5}";
type = Stem;
}
);
layerId = "B51EB05F-9FBB-4087-814F-400611B2D4B0";
paths = (
{
closed = 1;
nodes = (
"265 0 LINE",
"265 530 LINE",
"115 530 LINE",
"115 0 LINE"
);
},
{
closed = 1;
nodes = (
"615 0 LINE",
"615 110 LINE",
"575 110 LINE SMOOTH",
"555 110 OFFCURVE",
"535 120 OFFCURVE",
"535 150 CURVE",
"385 110 LINE",
"385 40 OFFCURVE",
"435 0 OFFCURVE",
"485 0 CURVE SMOOTH"
);
},
{
closed = 1;
nodes = (
"535 150 LINE",
"535 530 LINE",
"385 530 LINE",
"385 110 LINE"
);
},
{
closed = 1;
nodes = (
"635 420 LINE",
"635 530 LINE",
"15 530 LINE",
"15 420 LINE"
);
}
);
width = 650;
}
);
leftKerningGroup = pi;
rightKerningGroup = pi;
unicode = 03C0;
},
{
glyphname = zero;
lastChange = "2025-12-24 17:11:13 +0000";
layers = (
{
hints = (
{
horizontal = 1;
origin = "{1, 11}";
target = "{0, 11}";
type = Stem;
},
{
horizontal = 1;
origin = "{0, 5}";
target = "{1, 5}";
type = Stem;
},
{
origin = "{0, 8}";
target = "{1, 2}";
type = Stem;
},
{
origin = "{1, 8}";
target = "{0, 2}";
type = Stem;
}
);
layerId = "05246BF3-0764-4143-87C4-5D2B296D3790";
paths = (
{
closed = 1;
nodes = (
"535 -10 OFFCURVE",
"610 160 OFFCURVE",
"610 360 CURVE SMOOTH",
"610 560 OFFCURVE",
"535 730 OFFCURVE",
"335 730 CURVE SMOOTH",
"135 730 OFFCURVE",
"60 560 OFFCURVE",
"60 360 CURVE SMOOTH",
"60 170 OFFCURVE",
"135 -10 OFFCURVE",
"335 -10 CURVE SMOOTH"
);
},
{
closed = 1;
nodes = (
"185 70 OFFCURVE",
"150 210 OFFCURVE",
"150 360 CURVE SMOOTH",
"150 520 OFFCURVE",
"185 650 OFFCURVE",
"335 650 CURVE SMOOTH",
"485 650 OFFCURVE",
"520 520 OFFCURVE",
"520 360 CURVE SMOOTH",
"520 200 OFFCURVE",
"485 70 OFFCURVE",
"335 70 CURVE SMOOTH"
);
}
);
width = 670;
},
{
hints = (
{
horizontal = 1;
origin = "{0, 11}";
target = "{1, 11}";
type = Stem;
},
{
horizontal = 1;
origin = "{0, 5}";
target = "{1, 5}";
type = Stem;
},
{
origin = "{0, 8}";
target = "{1, 2}";
type = Stem;
},
{
origin = "{1, 8}";
target = "{0, 2}";
type = Stem;
}
);
layerId = "B51EB05F-9FBB-4087-814F-400611B2D4B0";
paths = (
{
closed = 1;
nodes = (
"545 -10 OFFCURVE",
"630 150 OFFCURVE",
"630 360 CURVE SMOOTH",
"630 570 OFFCURVE",
"545 730 OFFCURVE",
"335 730 CURVE SMOOTH",
"125 730 OFFCURVE",
"40 570 OFFCURVE",
"40 360 CURVE SMOOTH",
"40 160 OFFCURVE",
"125 -10 OFFCURVE",
"335 -10 CURVE SMOOTH"
);
},
{
closed = 1;
nodes = (
"205 100 OFFCURVE",
"190 230 OFFCURVE",
"190 360 CURVE SMOOTH",
"190 500 OFFCURVE",
"205 620 OFFCURVE",
"335 620 CURVE SMOOTH",
"465 620 OFFCURVE",
"480 500 OFFCURVE",
"480 360 CURVE SMOOTH",
"480 220 OFFCURVE",
"465 100 OFFCURVE",
"335 100 CURVE SMOOTH"
);
}
);
width = 670;
}
);
leftKerningGroup = C;
rightKerningGroup = "0";
unicode = 0030;
},
{
glyphname = one;
lastChange = "2025-12-24 17:11:13 +0000";
layers = (
{
hints = (
{
horizontal = 1;
origin = "{0, 3}";
target = up;
type = BottomGhost;
},
{
horizontal = 1;
origin = "{0, 2}";
target = "{1, 0}";
type = Stem;
},
{
origin = "{0, 3}";
target = "{0, 0}";
type = Stem;
}
);
layerId = "05246BF3-0764-4143-87C4-5D2B296D3790";
paths = (
{
closed = 1;
nodes = (
"295 0 LINE",
"295 720 LINE",
"205 720 LINE",
"205 0 LINE"
);
},
{
closed = 1;
nodes = (
"205 630 LINE",
"205 720 LINE",
"30 620 LINE",
"30 530 LINE"
);
}
);
width = 385;
},
{
hints = (
{
horizontal = 1;
origin = "{0, 3}";
target = up;
type = BottomGhost;
},
{
horizontal = 1;
origin = "{0, 2}";
target = "{1, 0}";
type = Stem;
},
{
origin = "{0, 3}";
target = "{0, 0}";
type = Stem;
}
);
layerId = "B51EB05F-9FBB-4087-814F-400611B2D4B0";
paths = (
{
closed = 1;
nodes = (
"345 0 LINE",
"345 720 LINE",
"195 720 LINE",
"195 0 LINE"
);
},
{
closed = 1;
nodes = (
"195 600 LINE",
"195 720 LINE",
"20 620 LINE",
"20 500 LINE"
);
}
);
width = 415;
}
);
leftKerningGroup = "1";
rightKerningGroup = "1";
unicode = 0031;
},
{
glyphname = two;
lastChange = "2025-12-24 17:11:13 +0000";
layers = (
{
hints = (
{
horizontal = 1;
origin = "{0, 21}";
target = "{1, 3}";
type = Stem;
},
{
horizontal = 1;
origin = "{0, 7}";
target = "{0, 14}";
type = Stem;
},
{
origin = "{0, 10}";
target = "{0, 11}";
type = Stem;
},
{
origin = "{0, 17}";
target = "{0, 4}";
type = Stem;
}
);
layerId = "05246BF3-0764-4143-87C4-5D2B296D3790";
paths = (
{
closed = 1;
nodes = (
"160 80 LINE",
"370 300 LINE",
"450 380 OFFCURVE",
"510 450 OFFCURVE",
"510 530 CURVE SMOOTH",
"510 640 OFFCURVE",
"408 730 OFFCURVE",
"268 730 CURVE SMOOTH",
"138 730 OFFCURVE",
"40 640 OFFCURVE",
"40 520 CURVE",
"130 520 LINE",
"130 590 OFFCURVE",
"178 650 OFFCURVE",
"268 650 CURVE SMOOTH",
"358 650 OFFCURVE",
"420 600 OFFCURVE",
"420 530 CURVE SMOOTH",
"420 470 OFFCURVE",
"383 427 OFFCURVE",
"313 357 CURVE",
"50 80 LINE"
);
},
{
closed = 1;
nodes = (
"500 0 LINE",
"500 80 LINE",
"50 80 LINE",
"50 0 LINE"
);
}
);
width = 560;
},
{
hints = (
{
horizontal = 1;
origin = "{1, 3}";
target = "{0, 21}";
type = Stem;
},
{
horizontal = 1;
origin = "{0, 7}";
target = "{0, 14}";
type = Stem;
},
{
origin = "{0, 10}";
target = "{0, 11}";
type = Stem;
},
{
origin = "{0, 17}";
target = "{1, 0}";
type = Stem;
}
);
layerId = "B51EB05F-9FBB-4087-814F-400611B2D4B0";
paths = (
{
closed = 1;
nodes = (
"250 110 LINE",
"480 340 LINE SMOOTH",
"550 410 OFFCURVE",
"560 460 OFFCURVE",
"560 530 CURVE SMOOTH",
"560 650 OFFCURVE",
"438 730 OFFCURVE",
"298 730 CURVE SMOOTH",
"158 730 OFFCURVE",
"40 640 OFFCURVE",
"40 510 CURVE",
"190 510 LINE",
"190 560 OFFCURVE",
"228 620 OFFCURVE",
"298 620 CURVE SMOOTH",
"368 620 OFFCURVE",
"410 580 OFFCURVE",
"410 530 CURVE SMOOTH",
"410 490 OFFCURVE",
"400 447 OFFCURVE",
"330 380 CURVE SMOOTH",
"50 110 LINE"
);
},
{
closed = 1;
nodes = (
"560 0 LINE",
"560 110 LINE",
"50 110 LINE",
"50 0 LINE"
);
}
);
width = 600;
}
);
leftKerningGroup = "2";
rightKerningGroup = "2";
unicode = 0032;
},
{
glyphname = three;
lastChange = "2025-12-24 17:11:13 +0000";
layers = (
{
hints = (
{
horizontal = 1;
origin = "{0, 18}";
target = "{0, 25}";
type = Stem;
},
{
horizontal = 1;
origin = "{1, 24}";
target = "{0, 11}";
type = Stem;
},
{
horizontal = 1;
origin = "{1, 10}";
target = "{1, 17}";
type = Stem;
},
{
origin = "{0, 22}";
target = "{0, 21}";
type = Stem;
},
{
origin = "{0, 11}";
target = "{0, 5}";
type = Stem;
},
{
origin = "{0, 15}";
target = "{0, 2}";
type = Stem;
},
{
origin = "{1, 13}";
target = "{1, 14}";
type = Stem;
},
{
origin = "{1, 20}";
target = "{1, 7}";
type = Stem;
}
);
layerId = "05246BF3-0764-4143-87C4-5D2B296D3790";
paths = (
{
closed = 1;
nodes = (
"445 -10 OFFCURVE",
"550 75 OFFCURVE",
"550 205 CURVE SMOOTH",
"550 291 OFFCURVE",
"501 353 OFFCURVE",
"415 380 CURVE",
"415 391 LINE",
"381 401 OFFCURVE",
"338 400 OFFCURVE",
"295 400 CURVE",
"225 400 LINE",
"225 345 LINE",
"295 345 LINE",
"405 345 OFFCURVE",
"460 285 OFFCURVE",
"460 205 CURVE SMOOTH",
"460 125 OFFCURVE",
"405 70 OFFCURVE",
"295 70 CURVE SMOOTH",
"185 70 OFFCURVE",
"130 125 OFFCURVE",
"130 205 CURVE",
"40 205 LINE",
"40 75 OFFCURVE",
"145 -10 OFFCURVE",
"295 -10 CURVE SMOOTH"
);
},
{
closed = 1;
nodes = (
"295 370 LINE",
"339 370 OFFCURVE",
"381 369 OFFCURVE",
"415 380 CURVE",
"415 391 LINE",
"484 415 OFFCURVE",
"525 466 OFFCURVE",
"525 540 CURVE SMOOTH",
"525 660 OFFCURVE",
"425 730 OFFCURVE",
"295 730 CURVE SMOOTH",
"165 730 OFFCURVE",
"65 655 OFFCURVE",
"65 535 CURVE",
"155 535 LINE",
"155 605 OFFCURVE",
"205 650 OFFCURVE",
"295 650 CURVE SMOOTH",
"385 650 OFFCURVE",
"435 610 OFFCURVE",
"435 540 CURVE SMOOTH",
"435 470 OFFCURVE",
"385 425 OFFCURVE",
"295 425 CURVE",
"225 425 LINE",
"225 370 LINE"
);
}
);
width = 600;
},
{
hints = (
{
horizontal = 1;
origin = "{0, 25}";
target = "{0, 18}";
type = Stem;
},
{
horizontal = 1;
origin = "{0, 11}";
target = "{1, 24}";
type = Stem;
},
{
horizontal = 1;
origin = "{1, 10}";
target = "{1, 17}";
type = Stem;
},
{
origin = "{0, 22}";
target = "{0, 21}";
type = Stem;
},
{
origin = "{0, 15}";
target = "{0, 2}";
type = Stem;
},
{
origin = "{1, 13}";
target = "{1, 14}";
type = Stem;
},
{
origin = "{1, 20}";
target = "{1, 7}";
type = Stem;
}
);
layerId = "B51EB05F-9FBB-4087-814F-400611B2D4B0";
paths = (
{
closed = 1;
nodes = (
"475 -10 OFFCURVE",
"600 65 OFFCURVE",
"600 205 CURVE SMOOTH",
"600 301 OFFCURVE",
"531 353 OFFCURVE",
"445 380 CURVE",
"445 391 LINE",
"411 401 OFFCURVE",
"358 400 OFFCURVE",
"315 400 CURVE",
"215 400 LINE",
"215 330 LINE",
"315 330 LINE",
"425 330 OFFCURVE",
"450 275 OFFCURVE",
"450 205 CURVE SMOOTH",
"450 145 OFFCURVE",
"415 100 OFFCURVE",
"315 100 CURVE SMOOTH",
"215 100 OFFCURVE",
"180 140 OFFCURVE",
"180 220 CURVE",
"30 220 LINE",
"30 80 OFFCURVE",
"155 -10 OFFCURVE",
"315 -10 CURVE SMOOTH"
);
},
{
closed = 1;
nodes = (
"315 370 LINE",
"359 370 OFFCURVE",
"411 369 OFFCURVE",
"445 380 CURVE",
"445 391 LINE",
"514 415 OFFCURVE",
"576 446 OFFCURVE",
"576 540 CURVE SMOOTH",
"576 660 OFFCURVE",
"455 730 OFFCURVE",
"315 730 CURVE SMOOTH",
"185 730 OFFCURVE",
"55 655 OFFCURVE",
"55 515 CURVE",
"205 515 LINE",
"205 585 OFFCURVE",
"245 620 OFFCURVE",
"315 620 CURVE SMOOTH",
"385 620 OFFCURVE",
"425 590 OFFCURVE",
"425 540 CURVE SMOOTH",
"425 490 OFFCURVE",
"405 440 OFFCURVE",
"315 440 CURVE",
"215 440 LINE",
"215 370 LINE"
);
}
);
width = 640;
}
);
leftKerningGroup = "3";
rightKerningGroup = "3";
unicode = 0033;
},
{
glyphname = four;
lastChange = "2025-12-24 17:11:13 +0000";
layers = (
{
hints = (
{
horizontal = 1;
origin = "{2, 3}";
target = up;
type = BottomGhost;
},
{
horizontal = 1;
origin = "{0, 3}";
target = "{1, 3}";
type = Stem;
},
{
horizontal = 1;
origin = "{0, 2}";
target = down;
type = TopGhost;
},
{
horizontal = 1;
place = "{601, 119}";
type = Stem;
},
{
origin = "{2, 3}";
target = "{2, 0}";
type = Stem;
}
);
layerId = "05246BF3-0764-4143-87C4-5D2B296D3790";
paths = (
{
closed = 1;
nodes = (
"130 230 LINE",
"460 720 LINE",
"360 720 LINE",
"30 230 LINE"
);
},
{
closed = 1;
nodes = (
"570 150 LINE",
"570 230 LINE",
"30 230 LINE",
"30 150 LINE"
);
},
{
closed = 1;
nodes = (
"470 0 LINE",
"470 720 LINE",
"380 720 LINE",
"380 0 LINE"
);
}
);
width = 620;
},
{
hints = (
{
horizontal = 1;
origin = "{2, 3}";
target = up;
type = BottomGhost;
},
{
horizontal = 1;
origin = "{1, 3}";
target = "{0, 3}";
type = Stem;
},
{
horizontal = 1;
origin = "{0, 2}";
target = down;
type = TopGhost;
},
{
origin = "{2, 3}";
target = "{2, 0}";
type = Stem;
}
);
layerId = "B51EB05F-9FBB-4087-814F-400611B2D4B0";
paths = (
{
closed = 1;
nodes = (
"180 250 LINE",
"490 720 LINE",
"340 720 LINE",
"30 250 LINE"
);
},
{
closed = 1;
nodes = (
"600 140 LINE",
"600 250 LINE",
"30 250 LINE",
"30 140 LINE"
);
},
{
closed = 1;
nodes = (
"510 0 LINE",
"510 720 LINE",
"360 720 LINE",
"360 0 LINE"
);
}
);
width = 630;
}
);
leftKerningGroup = "4";
rightKerningGroup = "4";
unicode = 0034;
},
{
glyphname = five;
lastChange = "2025-12-24 17:11:13 +0000";
layers = (
{
hints = (
{
horizontal = 1;
origin = "{0, 22}";
target = "{0, 29}";
type = Stem;
},
{
horizontal = 1;
origin = "{0, 5}";
target = "{0, 16}";
type = Stem;
},
{
horizontal = 1;
origin = "{1, 2}";
target = "{2, 3}";
type = Stem;
},
{
horizontal = 1;
origin = "{0, 9}";
target = "{1, 3}";
type = Stem;
},
{
origin = "{0, 26}";
target = "{0, 25}";
type = Stem;
},
{
origin = "{0, 19}";
target = "{0, 2}";
type = Stem;
}
);
layerId = "05246BF3-0764-4143-87C4-5D2B296D3790";
paths = (
{
closed = 1;
nodes = (
"470 -10 OFFCURVE",
"580 100 OFFCURVE",
"580 230 CURVE SMOOTH",
"580 370 OFFCURVE",
"470 470 OFFCURVE",
"330 470 CURVE SMOOTH",
"246 470 OFFCURVE",
"190 431 OFFCURVE",
"172 391 CURVE",
"162 391 LINE",
"145 364 OFFCURVE",
"133 336 OFFCURVE",
"125 320 CURVE",
"155 320 LINE",
"185 360 OFFCURVE",
"240 390 OFFCURVE",
"320 390 CURVE SMOOTH",
"420 390 OFFCURVE",
"490 320 OFFCURVE",
"490 230 CURVE SMOOTH",
"490 140 OFFCURVE",
"420 70 OFFCURVE",
"320 70 CURVE SMOOTH",
"210 70 OFFCURVE",
"160 130 OFFCURVE",
"150 170 CURVE",
"60 170 LINE",
"70 80 OFFCURVE",
"160 -10 OFFCURVE",
"320 -10 CURVE SMOOTH"
);
},
{
closed = 1;
nodes = (
"155 320 LINE",
"195 720 LINE",
"105 720 LINE",
"65 320 LINE"
);
},
{
closed = 1;
nodes = (
"531 640 LINE",
"531 720 LINE",
"105 720 LINE",
"105 640 LINE"
);
}
);
width = 620;
},
{
hints = (
{
horizontal = 1;
origin = "{0, 29}";
target = "{0, 22}";
type = Stem;
},
{
horizontal = 1;
origin = "{0, 16}";
target = "{0, 5}";
type = Stem;
},
{
horizontal = 1;
origin = "{1, 2}";
target = "{2, 3}";
type = Stem;
},
{
horizontal = 1;
origin = "{1, 3}";
target = "{0, 9}";
type = Stem;
},
{
origin = "{0, 26}";
target = "{0, 25}";
type = Stem;
},
{
origin = "{0, 19}";
target = "{0, 2}";
type = Stem;
}
);
layerId = "B51EB05F-9FBB-4087-814F-400611B2D4B0";
paths = (
{
closed = 1;
nodes = (
"500 -10 OFFCURVE",
"630 90 OFFCURVE",
"630 230 CURVE SMOOTH",
"630 380 OFFCURVE",
"500 470 OFFCURVE",
"360 470 CURVE SMOOTH",
"286 470 OFFCURVE",
"232 431 OFFCURVE",
"222 391 CURVE",
"212 391 LINE",
"195 364 OFFCURVE",
"153 316 OFFCURVE",
"145 300 CURVE",
"205 300 LINE",
"225 340 OFFCURVE",
"260 360 OFFCURVE",
"340 360 CURVE SMOOTH",
"420 360 OFFCURVE",
"460 300 OFFCURVE",
"460 230 CURVE SMOOTH",
"460 160 OFFCURVE",
"420 100 OFFCURVE",
"340 100 CURVE SMOOTH",
"260 100 OFFCURVE",
"220 130 OFFCURVE",
"220 190 CURVE",
"50 190 LINE",
"50 80 OFFCURVE",
"180 -10 OFFCURVE",
"340 -10 CURVE SMOOTH"
);
},
{
closed = 1;
nodes = (
"205 300 LINE",
"245 720 LINE",
"95 720 LINE",
"55 300 LINE"
);
},
{
closed = 1;
nodes = (
"581 610 LINE",
"581 720 LINE",
"135 720 LINE",
"135 610 LINE"
);
}
);
width = 670;
}
);
leftKerningGroup = "5";
rightKerningGroup = "5";
unicode = 0035;
},
{
glyphname = six;
lastChange = "2025-12-24 17:11:13 +0000";
layers = (
{
hints = (
{
horizontal = 1;
origin = "{0, 22}";
target = "{0, 42}";
type = Stem;
},
{
horizontal = 1;
origin = "{0, 5}";
target = "{0, 16}";
type = Stem;
},
{
horizontal = 1;
origin = "{0, 36}";
target = "{0, 29}";
type = Stem;
},
{
origin = "{0, 39}";
target = "{0, 9}";
type = Stem;
},
{
origin = "{0, 19}";
target = "{0, 2}";
type = Stem;
},
{
origin = "{0, 32}";
target = "{0, 33}";
type = Stem;
},
{
origin = "{0, 39}";
target = "{0, 13}";
type = Stem;
}
);
layerId = "05246BF3-0764-4143-87C4-5D2B296D3790";
paths = (
{
closed = 1;
nodes = (
"495 -10 OFFCURVE",
"590 100 OFFCURVE",
"590 230 CURVE SMOOTH",
"590 360 OFFCURVE",
"495 470 OFFCURVE",
"335 470 CURVE SMOOTH",
"246 470 OFFCURVE",
"178 411 OFFCURVE",
"158 341 CURVE",
"147 341 LINE",
"139 314 OFFCURVE",
"135 261 OFFCURVE",
"135 230 CURVE",
"170 230 LINE",
"170 330 OFFCURVE",
"235 390 OFFCURVE",
"335 390 CURVE SMOOTH",
"435 390 OFFCURVE",
"500 330 OFFCURVE",
"500 230 CURVE SMOOTH",
"500 130 OFFCURVE",
"435 70 OFFCURVE",
"335 70 CURVE SMOOTH",
"235 70 OFFCURVE",
"170 130 OFFCURVE",
"170 230 CURVE",
"155 240 LINE",
"125 490 OFFCURVE",
"175 650 OFFCURVE",
"335 650 CURVE SMOOTH",
"445 650 OFFCURVE",
"480 590 OFFCURVE",
"490 540 CURVE",
"580 540 LINE",
"570 640 OFFCURVE",
"495 730 OFFCURVE",
"335 730 CURVE SMOOTH",
"175 730 OFFCURVE",
"60 620 OFFCURVE",
"60 350 CURVE SMOOTH",
"60 70 OFFCURVE",
"185 -10 OFFCURVE",
"335 -10 CURVE SMOOTH"
);
}
);
width = 650;
},
{
hints = (
{
horizontal = 1;
origin = "{0, 42}";
target = "{0, 22}";
type = Stem;
},
{
horizontal = 1;
origin = "{0, 16}";
target = "{0, 5}";
type = Stem;
},
{
horizontal = 1;
origin = "{0, 36}";
target = "{0, 29}";
type = Stem;
},
{
origin = "{0, 39}";
target = "{0, 9}";
type = Stem;
},
{
origin = "{0, 19}";
target = "{0, 2}";
type = Stem;
},
{
origin = "{0, 32}";
target = "{0, 33}";
type = Stem;
},
{
origin = "{0, 39}";
target = "{0, 13}";
type = Stem;
}
);
layerId = "B51EB05F-9FBB-4087-814F-400611B2D4B0";
paths = (
{
closed = 1;
nodes = (
"530 -10 OFFCURVE",
"630 100 OFFCURVE",
"630 230 CURVE SMOOTH",
"630 380 OFFCURVE",
"510 470 OFFCURVE",
"370 470 CURVE SMOOTH",
"291 470 OFFCURVE",
"233 431 OFFCURVE",
"203 351 CURVE",
"192 351 LINE",
"184 324 OFFCURVE",
"150 261 OFFCURVE",
"150 230 CURVE",
"220 230 LINE",
"220 320 OFFCURVE",
"280 360 OFFCURVE",
"350 360 CURVE SMOOTH",
"420 360 OFFCURVE",
"480 320 OFFCURVE",
"480 230 CURVE SMOOTH",
"480 140 OFFCURVE",
"420 100 OFFCURVE",
"350 100 CURVE SMOOTH",
"280 100 OFFCURVE",
"220 140 OFFCURVE",
"220 230 CURVE",
"200 240 LINE",
"170 490 OFFCURVE",
"220 620 OFFCURVE",
"350 620 CURVE SMOOTH",
"450 620 OFFCURVE",
"470 580 OFFCURVE",
"470 520 CURVE",
"620 520 LINE",
"620 640 OFFCURVE",
"520 730 OFFCURVE",
"350 730 CURVE SMOOTH",
"190 730 OFFCURVE",
"50 630 OFFCURVE",
"50 350 CURVE SMOOTH",
"50 60 OFFCURVE",
"180 -10 OFFCURVE",
"350 -10 CURVE SMOOTH"
);
}
);
width = 670;
}
);
leftKerningGroup = "6";
rightKerningGroup = "6";
unicode = 0036;
},
{
glyphname = seven;
lastChange = "2025-12-24 17:11:13 +0000";
layers = (
{
hints = (
{
horizontal = 1;
origin = "{0, 3}";
target = up;
type = BottomGhost;
},
{
horizontal = 1;
origin = "{1, 2}";
target = "{1, 3}";
type = Stem;
},
{
origin = "{0, 2}";
target = "{0, 1}";
type = Stem;
}
);
layerId = "05246BF3-0764-4143-87C4-5D2B296D3790";
paths = (
{
closed = 1;
nodes = (
"210 0 LINE",
"505 640 LINE",
"415 640 LINE",
"115 0 LINE"
);
},
{
closed = 1;
nodes = (
"505 640 LINE",
"505 720 LINE",
"30 720 LINE",
"30 640 LINE"
);
}
);
width = 545;
},
{
hints = (
{
horizontal = 1;
origin = "{0, 3}";
target = up;
type = BottomGhost;
},
{
horizontal = 1;
origin = "{1, 2}";
target = "{1, 3}";
type = Stem;
}
);
layerId = "B51EB05F-9FBB-4087-814F-400611B2D4B0";
paths = (
{
closed = 1;
nodes = (
"230 0 LINE",
"545 610 LINE",
"390 610 LINE",
"70 0 LINE"
);
},
{
closed = 1;
nodes = (
"545 610 LINE",
"545 720 LINE",
"20 720 LINE",
"20 610 LINE"
);
}
);
width = 565;
}
);
leftKerningGroup = "7";
rightKerningGroup = "7";
unicode = 0037;
},
{
glyphname = eight;
lastChange = "2025-12-24 17:11:13 +0000";
layers = (
{
hints = (
{
horizontal = 1;
origin = "{1, 11}";
target = "{0, 19}";
type = Stem;
},
{
horizontal = 1;
origin = "{2, 11}";
target = "{1, 5}";
type = Stem;
},
{
horizontal = 1;
origin = "{3, 9}";
target = "{2, 5}";
type = Stem;
},
{
origin = "{0, 16}";
target = "{1, 2}";
type = Stem;
},
{
origin = "{1, 8}";
target = "{0, 2}";
type = Stem;
},
{
origin = "{3, 12}";
target = "{2, 2}";
type = Stem;
},
{
origin = "{2, 8}";
target = "{3, 6}";
type = Stem;
}
);
layerId = "05246BF3-0764-4143-87C4-5D2B296D3790";
paths = (
{
closed = 1;
nodes = (
"465 -10 OFFCURVE",
"580 75 OFFCURVE",
"580 205 CURVE SMOOTH",
"580 291 OFFCURVE",
"521 353 OFFCURVE",
"435 380 CURVE",
"435 391 LINE",
"401 402 OFFCURVE",
"359 400 OFFCURVE",
"315 400 CURVE SMOOTH",
"271 400 OFFCURVE",
"228 400 OFFCURVE",
"195 391 CURVE",
"195 381 LINE",
"109 353 OFFCURVE",
"50 301 OFFCURVE",
"50 205 CURVE SMOOTH",
"50 75 OFFCURVE",
"165 -10 OFFCURVE",
"315 -10 CURVE SMOOTH"
);
},
{
closed = 1;
nodes = (
"195 70 OFFCURVE",
"140 135 OFFCURVE",
"140 205 CURVE SMOOTH",
"140 275 OFFCURVE",
"195 345 OFFCURVE",
"315 345 CURVE SMOOTH",
"435 345 OFFCURVE",
"490 275 OFFCURVE",
"490 205 CURVE SMOOTH",
"490 135 OFFCURVE",
"435 70 OFFCURVE",
"315 70 CURVE SMOOTH"
);
},
{
closed = 1;
nodes = (
"225 425 OFFCURVE",
"170 470 OFFCURVE",
"170 540 CURVE SMOOTH",
"170 610 OFFCURVE",
"225 650 OFFCURVE",
"315 650 CURVE SMOOTH",
"405 650 OFFCURVE",
"460 610 OFFCURVE",
"460 540 CURVE SMOOTH",
"460 470 OFFCURVE",
"405 425 OFFCURVE",
"315 425 CURVE SMOOTH"
);
},
{
closed = 1;
nodes = (
"361 370 OFFCURVE",
"401 368 OFFCURVE",
"435 380 CURVE",
"435 391 LINE",
"504 415 OFFCURVE",
"550 466 OFFCURVE",
"550 540 CURVE SMOOTH",
"550 660 OFFCURVE",
"445 730 OFFCURVE",
"315 730 CURVE SMOOTH",
"185 730 OFFCURVE",
"80 660 OFFCURVE",
"80 540 CURVE SMOOTH",
"80 466 OFFCURVE",
"126 415 OFFCURVE",
"195 391 CURVE",
"195 381 LINE",
"229 370 OFFCURVE",
"270 370 OFFCURVE",
"315 370 CURVE SMOOTH"
);
}
);
width = 630;
},
{
hints = (
{
horizontal = 1;
origin = "{0, 19}";
target = "{1, 11}";
type = Stem;
},
{
horizontal = 1;
origin = "{1, 5}";
target = "{2, 11}";
type = Stem;
},
{
horizontal = 1;
origin = "{3, 9}";
target = "{2, 5}";
type = Stem;
},
{
origin = "{0, 16}";
target = "{1, 2}";
type = Stem;
},
{
origin = "{1, 8}";
target = "{0, 2}";
type = Stem;
},
{
origin = "{3, 12}";
target = "{2, 2}";
type = Stem;
},
{
origin = "{2, 8}";
target = "{3, 6}";
type = Stem;
}
);
layerId = "B51EB05F-9FBB-4087-814F-400611B2D4B0";
paths = (
{
closed = 1;
nodes = (
"475 -10 OFFCURVE",
"610 75 OFFCURVE",
"610 215 CURVE SMOOTH",
"610 295 OFFCURVE",
"552 356 OFFCURVE",
"469 380 CURVE",
"469 390 LINE",
"429 401 OFFCURVE",
"379 400 OFFCURVE",
"325 400 CURVE SMOOTH",
"271 400 OFFCURVE",
"221 401 OFFCURVE",
"181 390 CURVE",
"181 380 LINE",
"98 356 OFFCURVE",
"40 295 OFFCURVE",
"40 215 CURVE SMOOTH",
"40 75 OFFCURVE",
"175 -10 OFFCURVE",
"325 -10 CURVE SMOOTH"
);
},
{
closed = 1;
nodes = (
"245 100 OFFCURVE",
"190 145 OFFCURVE",
"190 215 CURVE SMOOTH",
"190 285 OFFCURVE",
"245 330 OFFCURVE",
"325 330 CURVE SMOOTH",
"405 330 OFFCURVE",
"460 285 OFFCURVE",
"460 215 CURVE SMOOTH",
"460 145 OFFCURVE",
"405 100 OFFCURVE",
"325 100 CURVE SMOOTH"
);
},
{
closed = 1;
nodes = (
"255 440 OFFCURVE",
"215 480 OFFCURVE",
"215 530 CURVE SMOOTH",
"215 580 OFFCURVE",
"255 620 OFFCURVE",
"325 620 CURVE SMOOTH",
"395 620 OFFCURVE",
"435 580 OFFCURVE",
"435 530 CURVE SMOOTH",
"435 480 OFFCURVE",
"395 440 OFFCURVE",
"325 440 CURVE SMOOTH"
);
},
{
closed = 1;
nodes = (
"380 370 OFFCURVE",
"430 369 OFFCURVE",
"469 380 CURVE",
"469 390 LINE",
"536 411 OFFCURVE",
"585 460 OFFCURVE",
"585 530 CURVE SMOOTH",
"585 660 OFFCURVE",
"465 730 OFFCURVE",
"325 730 CURVE SMOOTH",
"185 730 OFFCURVE",
"65 660 OFFCURVE",
"65 530 CURVE SMOOTH",
"65 460 OFFCURVE",
"114 411 OFFCURVE",
"181 390 CURVE",
"181 380 LINE",
"220 369 OFFCURVE",
"270 370 OFFCURVE",
"325 370 CURVE SMOOTH"
);
}
);
width = 650;
}
);
leftKerningGroup = "8";
rightKerningGroup = "8";
unicode = 0038;
},
{
glyphname = nine;
lastChange = "2025-12-24 17:11:13 +0000";
layers = (
{
hints = (
{
horizontal = 1;
origin = "{0, 35}";
target = "{0, 42}";
type = Stem;
},
{
horizontal = 1;
origin = "{0, 22}";
target = "{0, 11}";
type = Stem;
},
{
horizontal = 1;
origin = "{0, 5}";
target = "{0, 28}";
type = Stem;
},
{
origin = "{0, 8}";
target = "{0, 25}";
type = Stem;
},
{
origin = "{0, 15}";
target = "{0, 2}";
type = Stem;
},
{
origin = "{0, 39}";
target = "{0, 38}";
type = Stem;
},
{
origin = "{0, 19}";
target = "{0, 2}";
type = Stem;
}
);
layerId = "05246BF3-0764-4143-87C4-5D2B296D3790";
paths = (
{
closed = 1;
nodes = (
"475 -10 OFFCURVE",
"590 100 OFFCURVE",
"590 370 CURVE SMOOTH",
"590 650 OFFCURVE",
"465 730 OFFCURVE",
"315 730 CURVE SMOOTH",
"155 730 OFFCURVE",
"60 620 OFFCURVE",
"60 490 CURVE SMOOTH",
"60 360 OFFCURVE",
"155 250 OFFCURVE",
"315 250 CURVE SMOOTH",
"404 250 OFFCURVE",
"472 309 OFFCURVE",
"492 379 CURVE",
"503 379 LINE",
"511 406 OFFCURVE",
"515 459 OFFCURVE",
"515 490 CURVE",
"480 490 LINE",
"480 390 OFFCURVE",
"415 330 OFFCURVE",
"315 330 CURVE SMOOTH",
"215 330 OFFCURVE",
"150 390 OFFCURVE",
"150 490 CURVE SMOOTH",
"150 590 OFFCURVE",
"215 650 OFFCURVE",
"315 650 CURVE SMOOTH",
"415 650 OFFCURVE",
"480 590 OFFCURVE",
"480 490 CURVE",
"495 480 LINE",
"525 230 OFFCURVE",
"475 70 OFFCURVE",
"315 70 CURVE SMOOTH",
"205 70 OFFCURVE",
"170 130 OFFCURVE",
"160 180 CURVE",
"70 180 LINE",
"80 80 OFFCURVE",
"155 -10 OFFCURVE",
"315 -10 CURVE SMOOTH"
);
}
);
width = 650;
},
{
hints = (
{
horizontal = 1;
origin = "{0, 42}";
target = "{0, 35}";
type = Stem;
},
{
horizontal = 1;
origin = "{0, 11}";
target = "{0, 22}";
type = Stem;
},
{
horizontal = 1;
origin = "{0, 5}";
target = "{0, 28}";
type = Stem;
},
{
origin = "{0, 8}";
target = "{0, 25}";
type = Stem;
},
{
origin = "{0, 15}";
target = "{0, 2}";
type = Stem;
},
{
origin = "{0, 39}";
target = "{0, 38}";
type = Stem;
},
{
origin = "{0, 19}";
target = "{0, 2}";
type = Stem;
}
);
layerId = "B51EB05F-9FBB-4087-814F-400611B2D4B0";
paths = (
{
closed = 1;
nodes = (
"480 -10 OFFCURVE",
"620 90 OFFCURVE",
"620 370 CURVE SMOOTH",
"620 660 OFFCURVE",
"490 730 OFFCURVE",
"320 730 CURVE SMOOTH",
"140 730 OFFCURVE",
"40 620 OFFCURVE",
"40 490 CURVE SMOOTH",
"40 340 OFFCURVE",
"160 250 OFFCURVE",
"300 250 CURVE SMOOTH",
"379 250 OFFCURVE",
"437 289 OFFCURVE",
"467 369 CURVE",
"478 369 LINE",
"486 396 OFFCURVE",
"520 459 OFFCURVE",
"520 490 CURVE",
"450 490 LINE",
"450 400 OFFCURVE",
"390 360 OFFCURVE",
"320 360 CURVE SMOOTH",
"250 360 OFFCURVE",
"190 400 OFFCURVE",
"190 490 CURVE SMOOTH",
"190 580 OFFCURVE",
"250 620 OFFCURVE",
"320 620 CURVE SMOOTH",
"390 620 OFFCURVE",
"450 580 OFFCURVE",
"450 490 CURVE",
"470 480 LINE",
"500 230 OFFCURVE",
"450 100 OFFCURVE",
"320 100 CURVE SMOOTH",
"220 100 OFFCURVE",
"200 140 OFFCURVE",
"200 200 CURVE",
"50 200 LINE",
"50 80 OFFCURVE",
"150 -10 OFFCURVE",
"320 -10 CURVE SMOOTH"
);
}
);
width = 670;
}
);
leftKerningGroup = "9";
rightKerningGroup = "9";
unicode = 0039;
},
{
glyphname = onesuperior;
lastChange = "2025-12-24 17:11:13 +0000";
layers = (
{
hints = (
{
origin = "{0, 3}";
target = "{0, 0}";
type = Stem;
}
);
layerId = "05246BF3-0764-4143-87C4-5D2B296D3790";
paths = (
{
closed = 1;
nodes = (
"240 410 LINE",
"240 750 LINE",
"170 750 LINE",
"170 410 LINE"
);
},
{
closed = 1;
nodes = (
"170 690 LINE",
"170 750 LINE",
"70 690 LINE",
"70 630 LINE"
);
}
);
width = 310;
},
{
hints = (
{
origin = "{0, 3}";
target = "{0, 0}";
type = Stem;
}
);
layerId = "B51EB05F-9FBB-4087-814F-400611B2D4B0";
paths = (
{
closed = 1;
nodes = (
"270 410 LINE",
"270 750 LINE",
"160 750 LINE",
"160 410 LINE"
);
},
{
closed = 1;
nodes = (
"160 650 LINE",
"160 750 LINE",
"60 690 LINE",
"60 590 LINE"
);
}
);
width = 330;
}
);
leftKerningGroup = onesuperior;
rightKerningGroup = onesuperior;
unicode = 00B9;
},
{
glyphname = twosuperior;
lastChange = "2025-12-24 17:11:13 +0000";
layers = (
{
hints = (
{
horizontal = 1;
origin = "{0, 21}";
target = "{1, 3}";
type = Stem;
},
{
horizontal = 1;
origin = "{0, 7}";
target = "{0, 14}";
type = Stem;
},
{
origin = "{1, 3}";
target = "{0, 11}";
type = Stem;
},
{
origin = "{0, 17}";
target = "{0, 4}";
type = Stem;
},
{
origin = "{1, 3}";
target = "{1, 0}";
type = Stem;
}
);
layerId = "05246BF3-0764-4143-87C4-5D2B296D3790";
paths = (
{
closed = 1;
nodes = (
"166 470 LINE",
"266 567 LINE SMOOTH",
"297 597 OFFCURVE",
"308 625 OFFCURVE",
"308 659 CURVE SMOOTH",
"308 707 OFFCURVE",
"266 760 OFFCURVE",
"189 760 CURVE SMOOTH",
"122 760 OFFCURVE",
"70 722 OFFCURVE",
"70 650 CURVE",
"140 650 LINE",
"140 673 OFFCURVE",
"155 700 OFFCURVE",
"189 700 CURVE SMOOTH",
"233 700 OFFCURVE",
"238 664 OFFCURVE",
"238 649 CURVE SMOOTH",
"238 639 OFFCURVE",
"238 623 OFFCURVE",
"204 592 CURVE SMOOTH",
"70 470 LINE"
);
},
{
closed = 1;
nodes = (
"314 410 LINE",
"314 470 LINE",
"70 470 LINE",
"70 410 LINE"
);
}
);
width = 384;
},
{
hints = (
{
horizontal = 1;
origin = "{1, 3}";
target = "{0, 21}";
type = Stem;
},
{
horizontal = 1;
origin = "{0, 10}";
target = "{0, 7}";
type = Stem;
},
{
horizontal = 1;
origin = "{0, 14}";
target = "{0, 7}";
type = Stem;
},
{
origin = "{0, 10}";
target = "{0, 11}";
type = Stem;
},
{
origin = "{0, 17}";
target = "{0, 4}";
type = Stem;
},
{
origin = "{1, 3}";
target = "{1, 0}";
type = Stem;
}
);
layerId = "B51EB05F-9FBB-4087-814F-400611B2D4B0";
paths = (
{
closed = 1;
nodes = (
"186 490 LINE",
"276 567 LINE SMOOTH",
"308 595 OFFCURVE",
"318 625 OFFCURVE",
"318 659 CURVE SMOOTH",
"318 717 OFFCURVE",
"276 760 OFFCURVE",
"189 760 CURVE SMOOTH",
"122 760 OFFCURVE",
"60 722 OFFCURVE",
"60 650 CURVE",
"150 650 LINE",
"150 673 OFFCURVE",
"155 690 OFFCURVE",
"189 690 CURVE SMOOTH",
"233 690 OFFCURVE",
"228 664 OFFCURVE",
"228 649 CURVE SMOOTH",
"228 639 OFFCURVE",
"229 620 OFFCURVE",
"194 592 CURVE SMOOTH",
"65 490 LINE"
);
},
{
closed = 1;
nodes = (
"329 410 LINE",
"329 490 LINE",
"65 490 LINE",
"65 410 LINE"
);
}
);
width = 378;
}
);
leftKerningGroup = twosuperior;
rightKerningGroup = twosuperior;
unicode = 00B2;
},
